<svg width="25" height="8" viewBox="0 0 25 8" fill="none" xmlns="http://www.w3.org/2000/svg">
<path d="M0.744507 7.00905H3.995V6.39484H2.80523V1.24672H2.23923C1.86022 1.46412 1.44299 1.60678 1.01018 1.66697V2.1438H2.06134V6.39484H0.744507V7.00905ZM5.9818 7.00905H6.87124L7.7549 3.43689C7.85193 2.96815 7.95705 2.53981 8.05408 2.08723H8.08642C8.18345 2.53981 8.27239 2.96815 8.3752 3.43689L9.27388 7.00905H10.1714L11.4004 1.077H10.682L10.0594 4.30973C9.94616 4.94011 9.83296 5.57857 9.71975 6.22512H9.67817C9.54071 5.57857 9.40325 4.94011 9.25771 4.30973L8.43296 1.077H7.74566L6.92899 4.30973C6.78345 4.94819 6.64022 5.58666 6.50045 6.22512H6.4681C6.35259 5.58666 6.23362 4.94819 6.12157 4.30973L5.49896 1.077H4.73081L5.9818 7.00905ZM14.1346 7.11412C14.6538 7.1115 15.1605 6.95434 15.5901 6.66269L15.3232 6.17778C15.0023 6.40428 14.6187 6.52533 14.2259 6.52415C14.0275 6.52485 13.8311 6.48501 13.6487 6.40707C13.4664 6.32913 13.3018 6.21474 13.1653 6.07092C13.0288 5.92711 12.9231 5.75691 12.8548 5.57079C12.7865 5.38466 12.757 5.18654 12.7681 4.9886H15.7275C15.7486 4.8495 15.7594 4.70903 15.7599 4.56835C15.7599 3.31566 15.1292 2.50748 14.0133 2.50748C12.9945 2.50748 12.0323 3.39648 12.0323 4.81657C12.0042 5.10869 12.0378 5.40343 12.1309 5.68175C12.224 5.96007 12.3745 6.21577 12.5726 6.43232C12.7708 6.64887 13.0122 6.82144 13.2812 6.93889C13.5503 7.05633 13.841 7.11603 14.1346 7.11412ZM12.76 4.4552C12.7568 4.11062 12.8857 3.77789 13.1203 3.52537C13.3549 3.27285 13.6774 3.11972 14.0214 3.09746C14.7087 3.09746 15.113 3.57428 15.113 4.4552H12.76ZM18.6141 7.11412C19.1334 7.1115 19.6401 6.95434 20.0696 6.66269L19.8028 6.17778C19.4818 6.40428 19.0983 6.52533 18.7054 6.52415C18.5072 6.52453 18.3111 6.48446 18.129 6.40638C17.9469 6.3283 17.7827 6.21386 17.6464 6.07008C17.5101 5.9263 17.4046 5.75621 17.3365 5.57024C17.2683 5.38427 17.2389 5.18635 17.25 4.9886H20.207C20.2281 4.8495 20.2389 4.70903 20.2394 4.56835C20.2394 3.31566 19.6087 2.50748 18.4929 2.50748C17.474 2.50748 16.5118 3.39648 16.5118 4.81657C16.4838 5.10869 16.5174 5.40343 16.6105 5.68175C16.7035 5.96007 16.854 6.21577 17.0521 6.43232C17.2503 6.64887 17.4917 6.82144 17.7608 6.93889C18.0298 7.05633 18.3205 7.11603 18.6141 7.11412ZM17.2396 4.4552C17.2363 4.11062 17.3653 3.77789 17.5999 3.52537C17.8344 3.27285 18.1569 3.11972 18.5009 3.09746C19.1882 3.09746 19.5925 3.57428 19.5925 4.4552H17.2396ZM21.3229 7.00905H22.0506V5.85451L22.8754 4.89162L24.161 7.00905H24.9615L23.3039 4.39055L24.7674 2.62178H23.9438L22.0749 4.94011H22.0506V0.575928H21.3229V7.00905Z" fill="white"/>
</svg>
