<svg width="26" height="8" viewBox="0 0 26 8" fill="none" xmlns="http://www.w3.org/2000/svg">
<path d="M0.95312 7.00905H4.68068V6.37059H3.00576C2.6985 6.37059 2.34272 6.40292 2.03546 6.42832C3.40312 4.9886 4.38959 3.91372 4.38959 2.83075C4.40375 2.60247 4.36864 2.37381 4.28664 2.16028C4.20464 1.94674 4.07767 1.75332 3.91433 1.59313C3.75099 1.43294 3.55511 1.30972 3.33995 1.23182C3.1248 1.15393 2.8954 1.12318 2.66731 1.14166C2.32952 1.14786 1.99738 1.22946 1.6952 1.38048C1.39301 1.5315 1.12842 1.74811 0.920776 2.01449L1.34932 2.42666C1.49253 2.23038 1.67651 2.06736 1.88865 1.94879C2.10079 1.83022 2.33607 1.75889 2.57837 1.73971C2.72759 1.72767 2.87762 1.74873 3.01775 1.8014C3.15787 1.85407 3.28462 1.93704 3.38892 2.04438C3.49322 2.15172 3.5725 2.28077 3.62108 2.4223C3.66966 2.56384 3.68635 2.71435 3.66995 2.86308C3.66995 3.80865 2.69157 4.84313 0.95543 6.57264L0.95312 7.00905ZM6.54619 7.00905H7.43563L8.31929 3.43689C8.41632 2.96815 8.52144 2.53981 8.61847 2.08723H8.65081C8.74784 2.53981 8.83678 2.96815 8.93959 3.43689L9.83827 7.00905H10.7358L11.9648 1.077H11.2464L10.6237 4.30973C10.5105 4.94011 10.3973 5.57857 10.2841 6.22512H10.2426C10.1051 5.57857 9.96764 4.94011 9.8221 4.30973L8.99734 1.077H8.31005L7.49338 4.30973C7.34784 4.94819 7.2046 5.58666 7.06484 6.22512H7.03249C6.91698 5.58666 6.798 4.94819 6.68596 4.30973L6.06335 1.077H5.2952L6.54619 7.00905ZM14.699 7.11412C15.2182 7.1115 15.7249 6.95434 16.1544 6.66269L15.8876 6.17778C15.5667 6.40428 15.1831 6.52533 14.7902 6.52415C14.5919 6.52485 14.3955 6.48501 14.2131 6.40707C14.0307 6.32913 13.8662 6.21474 13.7297 6.07092C13.5932 5.92711 13.4875 5.75691 13.4192 5.57079C13.3509 5.38466 13.3214 5.18654 13.3325 4.9886H16.2919C16.313 4.8495 16.3238 4.70903 16.3242 4.56835C16.3242 3.31566 15.6935 2.50748 14.5777 2.50748C13.5589 2.50748 12.5967 3.39648 12.5967 4.81657C12.5686 5.10869 12.6022 5.40343 12.6953 5.68175C12.7884 5.96007 12.9388 6.21577 13.137 6.43232C13.3351 6.64887 13.5765 6.82144 13.8456 6.93889C14.1147 7.05633 14.4054 7.11603 14.699 7.11412ZM13.3244 4.4552C13.3212 4.11062 13.4501 3.77789 13.6847 3.52537C13.9193 3.27285 14.2417 3.11972 14.5858 3.09746C15.2731 3.09746 15.6774 3.57428 15.6774 4.4552H13.3244ZM19.1785 7.11412C19.6978 7.1115 20.2045 6.95434 20.634 6.66269L20.3671 6.17778C20.0462 6.40428 19.6627 6.52533 19.2698 6.52415C19.0716 6.52453 18.8755 6.48446 18.6934 6.40638C18.5113 6.3283 18.347 6.21386 18.2108 6.07008C18.0745 5.9263 17.969 5.75621 17.9009 5.57024C17.8327 5.38427 17.8032 5.18635 17.8143 4.9886H20.7714C20.7925 4.8495 20.8033 4.70903 20.8038 4.56835C20.8038 3.31566 20.1731 2.50748 19.0572 2.50748C18.0384 2.50748 17.0762 3.39648 17.0762 4.81657C17.0482 5.10869 17.0818 5.40343 17.1748 5.68175C17.2679 5.96007 17.4184 6.21577 17.6165 6.43232C17.8147 6.64887 18.0561 6.82144 18.3251 6.93889C18.5942 7.05633 18.8849 7.11603 19.1785 7.11412ZM17.8039 4.4552C17.8007 4.11062 17.9296 3.77789 18.1642 3.52537C18.3988 3.27285 18.7213 3.11972 19.0653 3.09746C19.7526 3.09746 20.1569 3.57428 20.1569 4.4552H17.8039ZM21.8873 7.00905H22.615V5.85451L23.4398 4.89162L24.7254 7.00905H25.5259L23.8683 4.39055L25.3318 2.62178H24.5082L22.6393 4.94011H22.615V0.575928H21.8873V7.00905Z" fill="white"/>
</svg>
