<svg width="43" height="8" viewBox="0 0 43 8" fill="none" xmlns="http://www.w3.org/2000/svg">
<path d="M2.06434 7.11412C3.1155 7.11412 3.96451 6.4999 3.96451 5.47351C3.96072 5.12053 3.83324 4.78005 3.60425 4.5113C3.37526 4.24256 3.05925 4.06256 2.71121 4.00262V3.97029C3.01185 3.88939 3.27748 3.71178 3.46705 3.46492C3.65662 3.21805 3.75959 2.91566 3.76005 2.60446C3.76005 1.66697 3.03233 1.14166 2.03777 1.14166C1.72762 1.14607 1.42143 1.21191 1.13691 1.33538C0.852387 1.45884 0.595184 1.63747 0.380182 1.86094L0.776387 2.32276C0.931662 2.14786 1.12065 2.00608 1.33203 1.9059C1.54341 1.80572 1.77284 1.74919 2.00658 1.73971C2.13429 1.72459 2.26375 1.73712 2.38618 1.77643C2.50862 1.81574 2.62115 1.88093 2.71615 1.96756C2.81115 2.05419 2.88639 2.16023 2.93676 2.27849C2.98713 2.39676 3.01145 2.52447 3.00807 2.65296C3.00807 3.25909 2.58761 3.73592 1.36665 3.73592V4.30165C2.73315 4.30165 3.21021 4.75423 3.21021 5.44118C3.20839 5.59224 3.17485 5.74123 3.11176 5.87851C3.04867 6.01579 2.95744 6.13829 2.84397 6.2381C2.73051 6.3379 2.59734 6.41277 2.45309 6.45787C2.30884 6.50297 2.15672 6.51729 2.00658 6.4999C1.72684 6.49837 1.45067 6.43699 1.19664 6.3199C0.942602 6.2028 0.716596 6.0327 0.533812 5.82103L0.161865 6.30594C0.401042 6.57089 0.695195 6.78048 1.02379 6.92007C1.35238 7.05966 1.70749 7.12588 2.06434 7.11412ZM10.045 4.16426C10.2685 4.43047 10.5466 4.64556 10.8605 4.79496C11.1744 4.94436 11.5167 5.02457 11.8643 5.03016C12.3129 5.01374 12.7479 4.8727 13.1207 4.62287C13.4935 4.37305 13.7892 4.02433 13.9747 3.61585L13.4006 3.30874C13.2691 3.61013 13.0568 3.8693 12.7871 4.05757C12.5174 4.24584 12.2008 4.35589 11.8724 4.37554C11.6092 4.36812 11.3506 4.30513 11.1135 4.19071C10.8764 4.0763 10.6662 3.91305 10.4967 3.71167C10.2732 3.44546 9.99514 3.23037 9.68124 3.08097C9.36735 2.93157 9.025 2.85136 8.67738 2.84576C8.22886 2.86219 7.7938 3.00323 7.42102 3.25306C7.04824 3.50288 6.7525 3.8516 6.56698 4.26008L7.14107 4.56719C7.27259 4.2658 7.48494 4.00663 7.75465 3.81836C8.02435 3.63008 8.3409 3.52004 8.66929 3.50039C8.93224 3.5073 9.19071 3.57007 9.42752 3.68453C9.66432 3.79899 9.87404 3.96252 10.0427 4.16426H10.045ZM17.0531 4.82696L18.4034 2.84692C18.5732 2.56406 18.735 2.31352 18.8805 2.03874H18.9129C18.8967 2.34585 18.8724 2.83884 18.8724 3.13556V4.82696H17.0531ZM18.8713 7.00906H19.5643V5.41694H20.3487V4.82696H19.5678V1.24787H18.7511L16.285 4.93087V5.41578H18.8713V7.00906ZM23.8845 7.00906H24.7739L25.6553 3.43689C25.7523 2.96815 25.8574 2.53981 25.9544 2.08723H25.9868C26.0838 2.53981 26.1728 2.96815 26.2756 3.43689L27.1766 7.00906H28.0741L29.3031 1.077H28.5835L27.9609 4.30973C27.8477 4.94011 27.7345 5.57857 27.6213 6.22512H27.5808C27.4434 5.57857 27.3059 4.94011 27.1604 4.30973L26.3356 1.077H25.6483L24.8317 4.30973C24.6861 4.94819 24.5429 5.58666 24.4031 6.22512H24.3708C24.2553 5.58666 24.1363 4.94819 24.0242 4.30973L23.4016 1.077H22.6335L23.8845 7.00906ZM32.0361 7.11412C32.5554 7.1115 33.0621 6.95434 33.4916 6.66269L33.2247 6.17778C32.9038 6.40428 32.5203 6.52533 32.1274 6.52415C31.9292 6.52454 31.7331 6.48446 31.551 6.40638C31.3689 6.3283 31.2046 6.21386 31.0684 6.07008C30.9321 5.9263 30.8266 5.75621 30.7584 5.57024C30.6903 5.38427 30.6608 5.18635 30.6719 4.9886H33.6313C33.6524 4.8495 33.6632 4.70903 33.6637 4.56835C33.6637 3.31566 33.033 2.50748 31.9171 2.50748C30.8983 2.50748 29.9361 3.39648 29.9361 4.81657C29.9081 5.10849 29.9416 5.40304 30.0346 5.6812C30.1275 5.95936 30.2778 6.21495 30.4757 6.43146C30.6736 6.64797 30.9147 6.82059 31.1835 6.93818C31.4523 7.05577 31.7427 7.1157 32.0361 7.11412ZM30.6615 4.4552C30.6583 4.11043 30.7874 3.77754 31.0222 3.52499C31.2571 3.27244 31.5798 3.11944 31.9241 3.09746C32.6114 3.09746 33.0157 3.57428 33.0157 4.4552H30.6615ZM36.5157 7.11412C37.0349 7.1115 37.5416 6.95434 37.9711 6.66269L37.7043 6.17778C37.3833 6.40428 36.9998 6.52533 36.6069 6.52415C36.4088 6.52454 36.2126 6.48446 36.0305 6.40638C35.8484 6.3283 35.6842 6.21386 35.5479 6.07008C35.4116 5.9263 35.3062 5.75621 35.238 5.57024C35.1698 5.38427 35.1404 5.18635 35.1515 4.9886H38.1109C38.1319 4.8495 38.1428 4.70903 38.1432 4.56835C38.1432 3.31566 37.5125 2.50748 36.3967 2.50748C35.3779 2.50748 34.4157 3.39648 34.4157 4.81657C34.3876 5.10849 34.4212 5.40304 34.5141 5.6812C34.607 5.95936 34.7573 6.21495 34.9552 6.43146C35.1531 6.64797 35.3942 6.82059 35.663 6.93818C35.9318 7.05577 36.2223 7.1157 36.5157 7.11412ZM35.1411 4.4552C35.1378 4.11062 35.2668 3.77789 35.5014 3.52537C35.736 3.27285 36.0584 3.11972 36.4025 3.09746C37.0898 3.09746 37.494 3.57428 37.494 4.4552H35.1411ZM39.2244 7.00906H39.9521V5.85451L40.7769 4.89277L42.0625 7.00906H42.863L41.2054 4.39055L42.6666 2.62178H41.8442L39.9764 4.94011H39.9521V0.575928H39.2244V7.00906Z" fill="white"/>
</svg>
