<svg width="752" height="51" viewBox="0 0 752 51" fill="none" xmlns="http://www.w3.org/2000/svg">
<g clip-path="url(#clip0_3_720)">
<path d="M0 0V34.938H4V3.726H17.064V0H0ZM52.758 36.4C50.756 37.9844 48.5375 39.2742 46.17 40.23C43.7797 39.2852 41.5416 37.9933 39.528 36.396L52.758 36.4ZM33.75 24.3H57.942V26.46H33.75V24.3ZM33.75 18.576H57.942V20.736H33.75V18.576ZM33.75 12.906H57.942V15.012H33.75V12.906ZM58.482 31.806L57.348 32.076H42.012C42.66 31.428 43.254 30.776 43.848 30.076H64.422V9.342H48.114C48.4069 8.65536 48.6593 7.95215 48.87 7.236H69.012V2.052H22.842V7.236H41.9C41.792 7.936 41.684 8.636 41.522 9.342H27.594V30.078H36.18C32.94 32.94 27.918 35.478 21.006 37.314C22.4991 38.58 23.76 40.0968 24.732 41.796C27.8076 40.7727 30.8048 39.5274 33.7 38.07C35.3549 39.7664 37.1814 41.2865 39.15 42.606C33.0188 44.072 26.7632 44.9579 20.466 45.252C21.4955 46.8424 22.2954 48.5701 22.842 50.384C30.888 49.626 38.88 48.33 45.738 45.954C51.948 48.384 59.4 49.784 67.986 50.384C68.9588 48.3385 70.1721 46.4163 71.6 44.658C65.4813 44.4791 59.3906 43.7563 53.4 42.498C57.0096 40.4885 60.1125 37.6811 62.472 34.29L58.482 31.806ZM85.32 28.296H92.02V31.968H85.32V28.296ZM92.02 11.934V15.066H85.32V11.934H92.02ZM85.32 19.98H92.02V23.38H85.32V19.98ZM101.2 31.968H97.9V11.934H101.572V6.318H97.9V0.593998H92.014V6.318H85.314V0.593998H79.536V6.318H75.33V11.934H79.542V31.968H74.682V37.584H101.2V31.968ZM81.378 37.962C79.7002 41.3834 77.262 44.3757 74.25 46.71C76.0698 47.8341 77.7865 49.1171 79.38 50.544C82.6645 47.4474 85.3709 43.7903 87.372 39.744L81.378 37.962ZM109.35 26.784C109.404 25.11 109.404 23.544 109.404 22.14V20.14H117.18V26.784H109.35ZM117.18 8.154V14.472H109.4V8.154H117.18ZM123.39 2.322H103.41V22.14C103.41 29.16 103.14 38.286 100.01 45.04C98.2645 42.4407 96.3143 39.9849 94.178 37.696L89.318 40.342C91.4933 42.8744 93.4277 45.6043 95.096 48.496L99.576 45.954C99.414 46.278 99.198 46.548 99.036 46.872C100.92 47.7831 102.636 49.0063 104.112 50.49C107.028 45.63 108.378 38.88 108.972 32.508H117.18V43.146C117.18 44.01 116.91 44.28 116.1 44.28C115.344 44.28 112.752 44.334 110.43 44.172C111.319 46.1115 111.937 48.1641 112.266 50.272C116.266 50.326 119.016 50.164 120.906 49.138C122.796 48.112 123.39 46.438 123.39 43.252V2.322ZM144.666 1.998L143.748 2.268H131V50.384H137V7.994H141.752C140.78 11.774 139.538 16.634 138.404 20.094C141.59 23.712 142.404 27.06 142.404 29.594C142.404 31.106 142.08 32.132 141.432 32.618C140.973 32.9391 140.426 33.109 139.866 33.104C139.166 33.104 138.354 33.104 137.328 33.05C138.214 34.833 138.712 36.7842 138.786 38.774C140.029 38.8231 141.274 38.787 142.512 38.666C143.661 38.5245 144.756 38.0975 145.698 37.424C147.426 36.236 148.236 33.968 148.182 30.404C148.238 26.3361 146.75 22.3982 144.018 19.384C145.692 15.172 147.528 9.232 149.04 4.534L144.666 1.998ZM156.766 17.388H169.29V21.924H156.762L156.766 17.388ZM169.294 7.888V12.154H156.762V7.884L169.294 7.888ZM173.182 27.814C171.699 29.7158 170.074 31.5029 168.322 33.16C167.485 31.3103 166.799 29.3961 166.27 27.436H175.67V2.326H150.606V42.444C148.5 42.768 146.606 43.092 144.99 43.308L147.096 49.518C152.172 48.384 158.814 47.034 165.024 45.576L164.538 39.96C161.946 40.446 159.3 40.932 156.762 41.36V27.432H160.65C163.08 37.962 167.292 46.008 175.23 50.22C176.333 48.2028 177.735 46.364 179.388 44.766C175.967 43.2304 173.034 40.7831 170.91 37.692C173.445 35.7108 175.879 33.602 178.2 31.374L173.182 27.814ZM191.16 11.502H224.37V18.902H231.012V5.402H211.248V0.0019989H204.448V5.402H184.848V18.902H191.166L191.16 11.502ZM211.194 35.046H226.044V28.998H211.194V22.248H222.75V16.148H193.05V22.248H204.55V41.31C202.825 40.4537 201.288 39.2633 200.027 37.8079C198.767 36.3525 197.808 34.6611 197.206 32.832C197.692 30.672 198.07 28.404 198.394 25.974L191.694 25.326C190.722 34.56 188.076 42.012 182.244 46.332C184.132 47.6329 185.903 49.0965 187.536 50.706C190.692 47.9099 193.152 44.415 194.718 40.5C199.686 48.168 207.084 49.788 217.018 49.788H230.518C230.955 47.512 231.719 45.3111 232.786 43.254C229.168 43.416 220.258 43.416 217.342 43.416C215.286 43.4215 213.23 43.3134 211.186 43.092L211.194 35.046ZM253.8 50.328V15.39H249.8V46.602H236.736V50.328H253.8ZM313.2 34.128C315.792 36.774 318.708 40.446 319.842 42.928L323.082 40.876C321.225 37.6961 318.915 34.8037 316.224 32.29L313.2 34.128ZM340.47 20.574V16.848H327.186V9.99H337.986V6.318H327.186V0.483997H323.186V6.316H312.66V9.988H323.19V16.846H309.474V20.572H329.886V27.052H311.472L310.986 23.866L304.722 25.756V15.174H310.284V11.394H304.722V0.539997H301.05V11.394H296.838C297.216 8.964 297.594 6.48 297.864 3.994L294.354 3.4C293.706 9.934 292.68 16.792 290.682 21.328C291.723 21.8334 292.716 22.4297 293.652 23.11C294.715 20.5481 295.529 17.8898 296.082 15.172H301.05V26.836C297.27 27.97 293.76 28.942 291.006 29.698L292.086 33.478L301.05 30.724V49.784H304.722V29.584L310.392 27.802V30.718H329.886V44.82C329.886 45.63 329.67 45.792 328.752 45.846C327.834 45.9 324.918 45.9 321.624 45.792C322.275 47.0445 322.714 48.3961 322.924 49.792C327.082 49.792 329.944 49.738 331.618 49.144C333.292 48.444 333.832 47.254 333.832 44.878V30.726H340.15V27.054H333.832V20.574H340.47ZM351.918 6.584H365.634V16.952H351.918V6.584ZM357.48 26.294C357.696 24.35 357.858 22.406 357.966 20.516H369.414V2.966H348.192V20.516H354.078C353.538 30.29 352.242 41.306 344.898 47.138C345.983 47.872 346.918 48.8068 347.652 49.892C353.322 45.192 355.86 37.742 357.052 29.912H365.9C365.414 40.55 364.874 44.654 363.9 45.734C363.66 45.9675 363.37 46.1425 363.051 46.2455C362.733 46.3486 362.395 46.3768 362.064 46.328C361.092 46.328 358.554 46.328 355.908 46.058C356.549 47.126 356.937 48.3267 357.042 49.568C359.236 49.7057 361.436 49.7057 363.63 49.568C364.284 49.5984 364.935 49.4778 365.535 49.2156C366.134 48.9534 366.665 48.5566 367.086 48.056C368.544 46.382 369.086 41.468 369.732 28.022C369.732 27.536 369.786 26.294 369.786 26.294H357.48ZM378.81 6.962H374.922V36.662H378.81V6.962ZM388.044 1.562V44.492C388.044 45.518 387.612 45.842 386.644 45.842C385.618 45.896 382.216 45.95 378.436 45.788C379.103 47.066 379.593 48.4284 379.894 49.838C384.808 49.838 387.832 49.784 389.614 49.138C391.288 48.438 392.044 47.194 392.044 44.494V1.564L388.044 1.562ZM415.53 2.372H401.76V5.612H415.53V2.372ZM412.506 34.988V44.006H404.784V34.988H412.506ZM415.962 31.694H401.382V49.734H404.782V47.304H415.96L415.962 31.694ZM401.49 27.54H415.746V24.354H401.49V27.54ZM415.746 17.01H401.49V20.196H415.746V17.01ZM399.168 12.852H417.15V9.558H399.168V12.852ZM434.7 38.07V34.184H442.044V38.072L434.7 38.07ZM424.224 34.184H431.3V38.072H424.226L424.224 34.184ZM431.298 27.434V31.376H424.224V27.434H431.298ZM442.044 27.434V31.376H434.7V27.434H442.044ZM429.03 14.526H437.562V18.144H429.03V14.526ZM429.03 8.154H437.562V11.554H429.03V8.154ZM448.74 38.07H445.77V24.408H434.7V21.33H448.686V18.144H441.18V14.526H446.8V11.556H441.18V8.156H447.88V5.078H441.18V0.542H437.562V5.078H429.03V0.542H425.358V5.078H418.986V8.156H425.358V11.556H420.066V14.526H425.358V18.144H417.528V21.33H431.3V24.408H420.714V38.07H417.474V41.31H420.714V49.784H424.224V41.31H442.044V45.738C442.044 46.386 441.882 46.548 441.126 46.548C440.478 46.602 438.048 46.602 435.456 46.548C435.927 47.5827 436.272 48.6706 436.482 49.788C440.1 49.788 442.476 49.734 443.882 49.194C445.34 48.654 445.772 47.682 445.772 45.794V41.31H448.742L448.74 38.07ZM479.088 22.194C483.188 20.682 488.43 18.738 493.398 16.848L492.804 13.878C487.188 15.878 481.518 17.878 477.63 19.116L479.088 22.194ZM489.672 11.934C487.515 9.94879 485.077 8.29293 482.436 7.02L480.33 9.45C482.982 10.7396 485.393 12.4748 487.458 14.58L489.672 11.934ZM471.744 20.952C471.744 21.546 471.582 21.762 470.934 21.762C470.286 21.816 468.126 21.816 465.75 21.762C466.196 22.713 466.54 23.7086 466.776 24.732C470.176 24.732 472.338 24.786 473.742 24.246C475.042 23.706 475.47 22.788 475.47 21.006V3.24H455V6.534H471.74L471.744 20.952ZM457.272 9.396C459.878 10.7743 462.248 12.5594 464.292 14.684L466.452 12.092C464.355 10.0629 461.972 8.35266 459.378 7.016L457.272 9.396ZM468.18 14.904C462.834 17.01 457.38 19.004 453.708 20.142L455.274 23.436C459.162 21.924 464.022 19.926 468.774 17.874L468.18 14.904ZM491.18 36.018H464.99V30.784H491.18V36.018ZM464.99 44.658V39.204H491.18V44.658H464.99ZM475.79 22.572C475.189 24.3041 474.486 25.999 473.684 27.648H461.052V49.948H464.994V47.844H491.184V49.95H495.234V27.65H477.634C478.39 26.35 479.2 24.842 479.956 23.384L475.79 22.572ZM499.5 3.24H478.872V6.534H495.72V21.006C495.72 21.654 495.504 21.816 494.856 21.87C494.1 21.87 491.778 21.87 489.24 21.762C489.768 22.7643 490.15 23.8372 490.374 24.948C493.938 24.948 496.206 24.948 497.664 24.408C499.064 23.814 499.5 22.896 499.5 21.008V3.24ZM548.1 9.558L545.346 7.452C544.022 7.78214 542.659 7.92752 541.296 7.884H520.452C518.832 7.884 515.752 7.668 514.998 7.56V12.474C515.592 12.42 518.562 12.204 520.452 12.204H541.512C540.162 16.686 536.22 23.058 532.548 27.216C526.986 33.426 518.994 39.852 510.3 43.254L513.756 46.872C521.748 43.254 529.038 37.314 534.816 31.104C540.226 36.005 545.195 41.3716 549.666 47.142L553.446 43.902C548.604 38.1312 543.333 32.7339 537.678 27.756C541.395 22.911 544.446 17.5896 546.75 11.934C547.129 11.1038 547.581 10.3087 548.1 9.558ZM587.844 3.294L582.93 1.728C582.524 3.21332 581.943 4.64529 581.2 5.994C577.168 13.6672 571.191 20.1467 563.868 24.784L567.486 27.592C573.047 23.6842 577.89 18.8434 581.8 13.284H600.052C598.552 18.6833 596.058 23.7559 592.7 28.242C588.92 25.596 584.87 23.004 581.306 20.952L578.39 23.922C581.846 26.082 585.95 28.89 589.838 31.698C584.14 37.8022 576.93 42.2919 568.938 44.712L572.826 48.06C580.703 45.2369 587.769 40.5277 593.406 34.344C595.62 36.126 597.672 37.8 599.292 39.258L602.478 35.532C600.75 34.132 598.59 32.454 596.322 30.78C600.084 25.7128 602.934 20.0292 604.746 13.984C605.091 12.9749 605.526 11.9989 606.046 11.068L602.482 8.908C601.333 9.28709 600.128 9.46965 598.918 9.448H584.28C584.698 8.82415 585.077 8.17489 585.414 7.504C585.954 6.534 586.926 4.698 587.844 3.294ZM618.408 22.302V27.594C620.082 27.432 622.944 27.324 625.914 27.324H655.56C657.99 27.324 660.26 27.54 661.338 27.594V22.302C660.15 22.41 658.206 22.572 655.506 22.572H625.914C622.89 22.572 620.028 22.41 618.408 22.302ZM685.1 40.932C685.117 43.0621 684.991 45.1909 684.722 47.304H689.96C689.744 45.522 689.636 42.604 689.636 40.932C689.636 39.366 689.636 31.212 689.582 23.112C696.878 25.4315 703.974 28.339 710.8 31.806L712.636 27.216C705.173 23.6987 697.467 20.7211 689.578 18.306V9.506C689.578 7.886 689.794 5.564 689.956 3.89H684.664C684.963 5.74687 685.107 7.62528 685.096 9.506L685.1 40.932ZM746.12 32.616H749.684L750.764 11.664L750.872 5.292H744.932L745.04 11.664L746.12 32.616ZM747.9 45.954C748.365 45.9613 748.827 45.8733 749.257 45.6954C749.686 45.5175 750.075 45.2534 750.399 44.9195C750.723 44.5856 750.975 44.1889 751.139 43.7538C751.304 43.3188 751.378 42.8546 751.356 42.39C751.379 41.9226 751.306 41.4554 751.142 41.017C750.979 40.5786 750.727 40.178 750.404 39.8396C750.081 39.5012 749.692 39.232 749.262 39.0485C748.831 38.865 748.368 38.7709 747.9 38.772C747.432 38.7709 746.969 38.865 746.538 39.0485C746.108 39.232 745.719 39.5012 745.396 39.8396C745.073 40.178 744.822 40.5786 744.658 41.017C744.494 41.4554 744.422 41.9226 744.444 42.39C744.418 42.8557 744.489 43.3218 744.652 43.7588C744.815 44.1959 745.066 44.5944 745.391 44.9293C745.716 45.2641 746.106 45.5281 746.538 45.7044C746.97 45.8808 747.434 45.9658 747.9 45.954Z" fill="black"/>
</g>
<defs>
<clipPath id="clip0_3_720">
<rect width="751.356" height="50.706" fill="white"/>
</clipPath>
</defs>
</svg>
