<svg width="134" height="22" viewBox="0 0 134 22" fill="none" xmlns="http://www.w3.org/2000/svg">
<path d="M17.3902 1.63964L15.9283 2.2582C16.5993 3.27169 17.2022 4.32896 17.7328 5.42297L19.2404 4.78151C18.6815 3.70099 18.0639 2.65212 17.3902 1.63964ZM19.9713 0.657814L18.5094 1.27637C19.2181 2.27824 19.8455 3.33545 20.3858 4.43786L21.8705 3.77349C21.3082 2.69214 20.6737 1.65012 19.9713 0.654541V0.657814ZM11.5883 2.87675L8.9386 2.00619C8.729 2.72104 8.44576 3.41204 8.09344 4.06804C6.4313 7.20041 3.9523 9.82133 0.921021 11.6511L2.93113 13.1402C5.16086 11.6206 7.11534 9.73009 8.71018 7.55027H15.8598C15.2194 10.0345 14.0331 12.3437 12.3878 14.3085C9.97573 17.0903 6.78365 19.0783 3.22807 20.013L5.34913 21.9374C8.91304 20.6939 12.0718 18.5001 14.486 15.5915C16.3187 13.2823 17.6844 10.6364 18.5062 7.80227C18.6732 7.31656 18.8874 6.84848 19.1458 6.4048L17.2694 5.25933C16.7121 5.41687 16.1353 5.49401 15.5563 5.48842H10.0579C10.1949 5.28224 10.2863 5.09896 10.4005 4.89278C10.6518 4.43459 11.1314 3.56403 11.5883 2.87675ZM34.3847 19.6464L35.8923 20.9065C36.1673 20.6945 36.4574 20.5031 36.7603 20.3337C39.7705 18.7993 42.4245 16.646 44.5494 14.014L43.1561 12.0405C41.57 14.3023 39.4304 16.1169 36.943 17.3097V4.64078C36.9405 4.02799 36.9786 3.41572 37.0572 2.80802H34.4076C34.4866 3.41597 34.5323 4.02781 34.5446 4.64078V18.2031C34.5443 18.6887 34.4907 19.1727 34.3847 19.6464ZM23.8545 19.4402L26.0473 20.9065C28.0156 19.2275 29.4327 16.9918 30.1132 14.4918C30.73 12.2009 30.8213 7.32118 30.8213 4.7095C30.8267 4.09698 30.8649 3.48519 30.9355 2.87675H28.2859C28.4274 3.48463 28.4888 4.10851 28.4686 4.73241C28.4686 7.36699 28.4686 11.8343 27.8062 13.8733C27.1375 16.1154 25.7481 18.0728 23.8545 19.4402ZM47.6755 9.93285V12.7736C48.4522 12.7049 49.8227 12.6591 51.079 12.6591H63.5084C64.5134 12.6591 65.5642 12.7507 66.0667 12.7736V9.93285C65.4957 9.97867 64.6048 10.0703 63.5084 10.0703H51.0823C49.8488 10.0703 48.4326 9.97867 47.6788 9.93285H47.6755ZM85.3226 3.54113C85.3236 3.1626 85.4724 2.79952 85.7372 2.52973C86.0019 2.25994 86.3615 2.10489 86.7388 2.09783C87.1186 2.10395 87.4811 2.25797 87.7496 2.52732C88.0182 2.79668 88.1718 3.16025 88.1779 3.54113C88.1708 3.91959 88.0162 4.28023 87.7472 4.54574C87.4782 4.81125 87.1162 4.9605 86.7388 4.96151C86.3638 4.95957 86.0047 4.8093 85.7395 4.54335C85.4744 4.27739 85.3245 3.91724 85.3226 3.54113ZM84.112 3.54113C84.1122 3.7492 84.1352 3.95663 84.1805 4.15968C83.8555 4.19564 83.5285 4.21094 83.2016 4.2055H72.1199C71.3661 4.2055 70.2925 4.11386 69.6529 4.04186V6.60771C70.2468 6.56189 71.1605 6.51607 72.1199 6.51607H83.3582C82.9615 9.05138 81.9842 11.4599 80.5029 13.5525C78.607 15.9351 76.0259 17.9053 71.5684 19.005L73.5328 21.1585C77.1334 20.1012 80.3078 17.9279 82.6011 14.95C84.4513 12.4954 85.5021 8.87901 86.0274 6.54226C86.0503 6.4048 86.096 6.24443 86.1188 6.10698C86.3213 6.15245 86.5281 6.1755 86.7355 6.17571C87.0822 6.17797 87.4259 6.11154 87.7469 5.98022C88.0679 5.8489 88.3599 5.65529 88.6061 5.4105C88.8523 5.1657 89.0479 4.87455 89.1816 4.55375C89.3153 4.23295 89.3845 3.88882 89.3852 3.54113C89.3798 2.84009 89.0982 2.16964 88.6018 1.67607C88.1054 1.1825 87.4345 0.905874 86.7355 0.906543C86.0394 0.907411 85.3721 1.18537 84.8802 1.67935C84.3883 2.17334 84.112 2.84296 84.112 3.54113ZM97.6802 1.68546H91.7869V3.35785H97.6802V1.68546ZM96.0812 15.958V19.257H93.4087V15.958H96.0812ZM97.8629 14.2398H91.6499V21.9374H93.4087V20.9523H97.8629V14.2398ZM91.6727 12.7278H97.7716V11.0783H91.6727V12.7278ZM97.7716 7.95937H91.6727V9.60884H97.7716V7.95937ZM90.6905 6.47026H98.3883V4.77496H90.6905V6.47026ZM105.946 16.7795V15.3853H108.595V16.7828L105.946 16.7795ZM101.54 15.382H104.145V16.7795H101.54V15.382ZM104.145 12.5871V13.9845H101.54V12.5903L104.145 12.5871ZM108.599 12.5871V13.9845H105.949V12.5903L108.599 12.5871ZM103.573 7.02335H106.748V8.28337H103.573V7.02335ZM103.573 4.27423H106.748V5.48842H103.573V4.27423ZM111.774 16.7828H110.563V11.0554H105.949V9.95576H111.728V8.28664H108.667V7.02663H110.906V5.48842H108.667V4.2775H111.359V2.72293H108.667V0.935999H106.748V2.72293H103.573V0.935999H101.655V2.72293H99.0964V4.2775H101.655V5.4917H99.5337V7.02663H101.655V8.28664H98.4797V9.95903H104.145V11.0587H99.7392V16.786H98.4568V18.4813H99.736V21.9603H101.54V18.4781H108.599V19.9213C108.599 20.1963 108.53 20.2879 108.233 20.3108C107.936 20.3108 106.928 20.3108 105.949 20.265C106.189 20.7979 106.358 21.3602 106.452 21.9374C107.533 22.0251 108.621 21.9322 109.672 21.6625C110.38 21.3875 110.563 20.9065 110.563 19.9443V18.4781H111.774V16.7828ZM124.611 10.319C126.324 9.70048 128.494 8.89865 130.527 8.11973L130.185 6.56517C127.877 7.3899 125.502 8.19173 123.88 8.69247L124.611 10.319ZM129.065 5.71425C128.157 4.90251 127.133 4.23079 126.027 3.72113L124.977 4.95823C126.058 5.54069 127.063 6.25523 127.969 7.08554L129.065 5.71425ZM119.723 7.04299C117.484 7.84482 115.246 8.64665 113.693 9.15065L114.492 10.8918C116.114 10.2503 118.101 9.37975 120.039 8.57792L119.723 7.04299ZM119.083 5.78297C118.213 4.95326 117.219 4.26528 116.137 3.74404L115.086 4.98114C116.15 5.55942 117.127 6.28673 117.987 7.14117L119.083 5.78297ZM129.339 15.9777H118.897V14.1449H129.339V15.9777ZM118.901 19.4861V17.6042H129.343V19.4861H118.901ZM123.012 10.4369C123.094 10.1386 123.133 9.82987 123.126 9.52048V2.0291H114.286V3.70476H121.185V9.52375C121.185 9.75284 121.116 9.84448 120.819 9.84448C120.545 9.84448 119.677 9.84448 118.763 9.82157C119.01 10.315 119.194 10.8372 119.312 11.3761C120.316 11.4665 121.329 11.3812 122.304 11.1241C122.488 11.0481 122.652 10.9305 122.784 10.7805C122.599 11.3741 122.378 11.9556 122.121 12.5216H116.776V22.0061H118.897V21.1585H129.339V22.0061H131.555V12.5216H124.2C124.52 11.9718 124.839 11.3761 125.159 10.7805L123.012 10.4369ZM133.314 2.0291H124.451V3.70476H131.304V9.50084C131.304 9.75285 131.235 9.82157 130.938 9.84448C130.641 9.84448 129.633 9.84448 128.677 9.79866C128.941 10.3278 129.134 10.8903 129.248 11.4711C130.314 11.558 131.387 11.4651 132.423 11.1961C133.108 10.8983 133.314 10.4401 133.314 9.50084V2.0291Z" fill="white"/>
</svg>
