<svg width="77" height="13" viewBox="0 0 77 13" fill="none" xmlns="http://www.w3.org/2000/svg">
<path d="M3.64701 0.290527C3.01305 2.20467 1.9959 3.96875 0.657959 5.4746C0.863221 5.77753 1.05063 6.09226 1.21922 6.41715C1.63833 5.94768 2.02226 5.44776 2.36785 4.9215V12.2034H3.29459V3.40621C3.77903 2.49034 4.19777 1.54101 4.54764 0.56544L3.64701 0.290527ZM8.85501 7.07171V3.86439H11.4003V7.07171H8.85501ZM5.43522 7.07171V3.86439H7.90217V7.07171H5.43522ZM8.85501 2.95784V0.405074H7.90217V2.95784H4.51175V8.80955H5.43522V7.98809H7.90217V12.2034H8.85501V7.98809H11.4003V8.73428H12.3531V2.95784H8.85501ZM18.2366 1.58327V2.66983H15.4205V1.58327H18.2366ZM15.4205 4.54513V3.39311H18.2399V4.54513H15.4205ZM19.1666 5.29132V0.830535H14.4546V12.2296H15.4205V5.29132H19.1666ZM21.2681 7.03244V8.23682H18.2007V7.03244H21.2681ZM18.2007 10.2398V8.96992H21.2681V10.2398H18.2007ZM22.1687 11.0121V6.27315H17.3262V11.6667H18.2007V11.0121H22.1687ZM21.255 4.55822V3.39311H24.1788V4.55822H21.255ZM24.1788 1.58654V2.6731H21.255V1.58654H24.1788ZM25.1577 0.827261H20.3283V5.30441H24.1788V10.9205C24.1788 11.1561 24.0972 11.2347 23.8786 11.2347C23.6436 11.2478 22.8474 11.2609 22.0512 11.2216C22.2125 11.5347 22.3268 11.8699 22.3906 12.2165C23.1248 12.2689 23.8627 12.2115 24.5802 12.0463C25.0109 11.8761 25.1512 11.5489 25.1512 10.9336L25.1577 0.827261ZM30.3135 1.03672L29.2824 1.46872C29.8447 2.84403 30.4764 4.18978 31.175 5.50078C29.7784 6.48261 28.9169 7.54626 28.9169 8.89137C28.9169 10.855 30.6921 11.5914 33.146 11.5914C34.5274 11.5937 35.9067 11.4842 37.2706 11.2641V10.0957C35.8984 10.3951 34.498 10.5444 33.0937 10.5408C31.0314 10.5408 30.0003 9.86011 30.0003 8.77355C30.0003 7.77863 30.7345 6.91462 31.9451 6.12915C33.2292 5.33607 34.5537 4.61071 35.9131 3.95603C36.2916 3.75966 36.618 3.58948 36.9182 3.40621L36.3471 2.47674C36.0546 2.70571 35.7448 2.91142 35.4204 3.09202C34.7025 3.48475 33.2928 4.17858 32.0659 4.92477C31.3847 3.67501 30.7989 2.37527 30.3135 1.03672ZM50.4015 5.00332H46.5902V3.73348H50.4015V5.00332ZM50.4015 6.98007H46.5902V5.69715H50.4015V6.98007ZM50.4015 8.9961H46.5902V7.70335H50.4015V8.9961ZM45.6895 2.9742V9.75538H51.3185V2.9742H48.6003C48.7178 2.59456 48.845 2.16255 48.9657 1.73055H51.759V0.892717H45.1674V1.73055H47.9117C47.8302 2.13964 47.7421 2.58147 47.6507 2.9742H45.6895ZM44.7628 0.928718H40.4554V1.81891H44.7628V0.928718ZM45.2588 8.80955C44.8411 8.96664 44.4104 9.12374 44.0057 9.28083V4.94441H45.1381V4.02803H40.0639V4.94441H41.082V6.18806C41.1982 7.87473 40.7328 9.55021 39.7636 10.9336C39.9999 11.107 40.2225 11.2985 40.4293 11.5063C41.7607 9.92557 41.9565 7.75245 41.9565 6.2077V4.95095H43.1312V9.59829C42.8865 9.68011 42.6613 9.75538 42.4655 9.82084L42.831 10.6718C43.6142 10.3314 44.5279 9.95175 45.4285 9.54592L45.2588 8.80955ZM46.9556 10.0008C46.1577 10.7224 45.2202 11.2717 44.2015 11.6143C44.4319 11.8192 44.6499 12.0378 44.8542 12.2689C45.9366 11.8649 46.9363 11.266 47.8041 10.5016L46.9556 10.0008ZM48.9788 10.5376C49.792 11.0375 50.5568 11.6128 51.263 12.2558L52.0201 11.6929C51.3069 11.0707 50.5329 10.5225 49.7097 10.0565L48.9788 10.5376ZM54.1868 6.61025C54.2684 6.03751 54.3434 5.41896 54.4218 4.82986H57.2542V0.945081H53.234V1.84509H56.3666V3.92658H53.6223C53.5048 5.19641 53.2699 6.89825 53.061 7.93572L53.9747 8.05354L54.0563 7.50372H56.4449C56.2752 9.95175 56.0664 10.9205 55.8053 11.2085C55.7474 11.2651 55.6772 11.3075 55.6002 11.3325C55.5232 11.3575 55.4416 11.3643 55.3615 11.3525C54.8897 11.356 54.4181 11.3341 53.9486 11.287C54.1053 11.5621 54.1948 11.8706 54.2096 12.1871C54.7255 12.2269 55.2437 12.2269 55.7596 12.1871C55.9212 12.1875 56.0811 12.1556 56.2302 12.0932C56.3792 12.0308 56.5144 11.9392 56.6276 11.8238C57.0062 11.4049 57.2281 10.1874 57.4239 7.03244C57.4369 6.91462 57.45 6.61352 57.45 6.61352L54.1868 6.61025ZM64.0579 7.57899C63.5074 8.09675 62.9219 8.57572 62.3055 9.01246C61.983 8.44298 61.7247 7.83925 61.5354 7.21244H64.89V6.33861H59.4731V5.23896H63.8196V4.50258H59.4731V3.4193H63.8196V2.68292H59.4731V1.60945H64.3287V0.758533H58.5464V6.33534H57.4761V7.21244H58.5725V10.9434C58.1646 11.0089 57.7893 11.0743 57.463 11.1136L57.6588 12.043C58.8596 11.8205 60.4651 11.5194 62.0053 11.2314L61.9662 10.3805C61.1308 10.5245 60.2693 10.6685 59.4862 10.7994V7.21244H60.687C61.3266 9.55574 62.5144 11.3754 64.4201 12.2263C64.5964 11.9256 64.8115 11.6494 65.0596 11.4049C64.103 11.0392 63.2761 10.3967 62.6841 9.55902C63.4404 9.10357 64.1644 8.59617 64.8508 8.04045L64.0579 7.57899ZM70.2285 9.84702C70.259 9.59852 70.3854 9.37192 70.5807 9.21588C70.7759 9.05985 71.0244 8.98681 71.2727 9.01246C71.738 9.02059 72.1816 9.21114 72.5085 9.54331C72.8355 9.87548 73.0197 10.3228 73.0218 10.7896C72.671 10.845 72.3163 10.8723 71.9612 10.8714C70.9464 10.8681 70.2285 10.4754 70.2285 9.84702ZM68.5577 1.57345L68.5969 2.66001C68.871 2.62074 69.168 2.59456 69.4584 2.57819C70.1502 2.53892 72.7607 2.4211 73.4557 2.39492C72.7901 2.98402 71.1585 4.35858 70.4275 4.96077C69.6705 5.60223 67.9998 7.00625 66.9196 7.89318L67.6636 8.66555C69.3213 6.9768 70.483 6.04733 72.6628 6.04733C74.3596 6.04733 75.5866 7.01607 75.5866 8.299C75.5946 8.79938 75.4396 9.28873 75.1452 9.69275C74.8507 10.0968 74.4328 10.3934 73.955 10.5376C73.8992 9.87974 73.5898 9.26967 73.0925 8.837C72.5953 8.40432 71.9495 8.18314 71.2923 8.22045C71.0482 8.1961 70.8017 8.22113 70.5674 8.29407C70.3331 8.367 70.1158 8.48635 69.9284 8.64505C69.741 8.80375 69.5872 8.99857 69.4762 9.21796C69.3652 9.43735 69.2992 9.67686 69.2822 9.92229C69.2822 11.0089 70.3655 11.7812 72.1374 11.7812C74.9046 11.7812 76.6243 10.4198 76.6243 8.31209C76.6243 6.54479 75.0743 5.23568 72.9043 5.23568C72.2885 5.22522 71.6752 5.31814 71.09 5.5106C72.1081 4.65968 73.8832 3.13784 74.5359 2.64692C74.7708 2.45056 75.0319 2.28037 75.2701 2.11019L74.6696 1.3509C74.4395 1.41306 74.203 1.44821 73.9648 1.45563C73.273 1.52109 70.1665 1.62582 69.4877 1.62582C69.177 1.627 68.8664 1.60952 68.5577 1.57345Z" fill="white"/>
</svg>
