<svg width="248" height="22" viewBox="0 0 248 22" fill="none" xmlns="http://www.w3.org/2000/svg">
<g clip-path="url(#clip0_3_705)">
<path d="M5.533 2.591H9.595L15.151 19.891H11.532L10.318 15.455H4.718L3.5 19.89H0L5.533 2.591ZM5.463 12.77H9.572L9.058 10.879C8.521 9.079 8.058 7.097 7.564 5.229H7.447C7 7.121 6.49 9.081 5.977 10.879L5.463 12.77Z" fill="white"/>
<path d="M16.527 17.812L24.581 5.486H17.3V2.591H28.83V4.669L20.776 17H28.9V19.9H16.527V17.812Z" fill="white"/>
<path d="M35.739 2.591H39.8L45.356 19.891H41.738L40.524 15.455H34.924L33.707 19.89H30.2L35.739 2.591ZM35.669 12.77H39.778L39.264 10.879C38.727 9.079 38.264 7.097 37.77 5.23H37.653C37.209 7.121 36.696 9.082 36.182 10.879L35.669 12.77Z" fill="white"/>
<path d="M47.388 2.591H51.217L54.159 10.691C54.533 11.764 54.859 12.909 55.209 14.005H55.326C55.7 12.905 56.003 11.764 56.377 10.691L59.249 2.591H63.078V19.891H59.926V12.676C59.926 11.041 60.183 8.637 60.37 7.003H60.253L58.853 11.065L56.19 18.326H54.206L51.521 11.065L50.144 7H50.051C50.214 8.634 50.494 11.038 50.494 12.673V19.89H47.394V2.591H47.388Z" fill="white"/>
<path d="M66.856 2.591H70.311V19.891H66.856V2.591Z" fill="white"/>
<path d="M74.093 2.591H77.618L82.637 11.812L84.365 15.547H84.482C84.319 13.747 84.039 11.462 84.039 9.5V2.59H87.308V19.89H83.808L78.808 10.645L77.059 6.932H76.942C77.106 8.799 77.362 10.971 77.362 12.955V19.889H74.093V2.591Z" fill="white"/>
<path d="M94.893 2.591H98.955L104.512 19.891H100.894L99.679 15.455H94.079L92.862 19.89H89.362L94.893 2.591ZM94.822 12.77H98.93L98.416 10.879C97.88 9.079 97.416 7.097 96.922 5.23H96.806C96.363 7.121 95.849 9.082 95.335 10.879L94.822 12.77Z" fill="white"/>
<path d="M116.462 16.622C117.372 18.186 119.007 18.84 121.388 18.934C124.188 19.05 129.7 18.981 132.921 18.724C132.532 19.5913 132.242 20.4997 132.057 21.432C129.157 21.572 124.213 21.619 121.365 21.502C118.588 21.385 116.719 20.708 115.319 18.91C114.384 19.82 113.427 20.71 112.237 21.71L110.929 18.955C111.941 18.3019 112.909 17.5844 113.829 16.807V11.72H111.21V9.175H116.463L116.462 16.622ZM114.805 6.163C113.831 4.70954 112.652 3.4044 111.305 2.288L113.427 0.700001C114.804 1.77426 116.036 3.02192 117.093 4.412L114.805 6.163ZM118.913 8.263C118.493 8.707 118.073 9.104 117.652 9.478C117.032 8.69545 116.353 7.96162 115.621 7.283C117.935 5.41112 119.715 2.96214 120.781 0.183001L123.536 0.977001C123.182 1.82179 122.784 2.64787 122.345 3.452H125.007C125.391 2.4437 125.718 1.41477 125.987 0.370001L129.046 0.953001C128.625 1.793 128.205 2.653 127.785 3.453H131.917V5.79H127.271V7.26H131.287V9.5H127.271V11.041H131.193V13.282H127.271V14.87H132.313V17.205H118.913V8.264V8.263ZM124.633 5.789H121.6V7.26H124.635L124.633 5.789ZM124.633 9.5H121.6V11.041H124.635L124.633 9.5ZM124.633 13.282H121.6V14.87H124.635L124.633 13.282Z" fill="white"/>
<path d="M155.681 15.828H146.693V18.933C146.693 20.38 146.393 21.104 145.246 21.501C143.77 21.8915 142.241 22.0411 140.717 21.944C140.444 20.9992 140.06 20.0901 139.573 19.236C141.067 19.305 142.795 19.305 143.261 19.282C143.751 19.282 143.868 19.189 143.868 18.862V15.827H134.9V13.282H143.865V11.741H145.195C145.824 11.356 146.426 10.9272 146.995 10.458H139.081V8.058H149.563L150.169 7.918L151.92 9.272C150.433 10.8468 148.727 12.1993 146.855 13.288H155.679V15.832L155.681 15.828ZM137.821 9.479H135.207V3.805H138.382C137.904 2.96671 137.366 2.16457 136.771 1.405L139.129 0.35C139.983 1.25969 140.699 2.29005 141.253 3.408L140.413 3.808H144.078C143.687 2.7873 143.194 1.80866 142.607 0.887L145.059 0C145.82 1.02986 146.433 2.16159 146.88 3.362L145.759 3.805H149.284C150.075 2.69574 150.748 1.50658 151.292 0.257L154.304 1.167C153.673 2.054 152.973 2.988 152.343 3.805H155.443V9.478H152.712V6.257H137.812V9.479H137.821Z" fill="white"/>
<path d="M174.659 5.51C173.672 7.77554 172.443 9.92798 170.994 11.93C173.321 13.9984 175.498 16.2297 177.508 18.607L174.846 20.919C173.072 18.5572 171.104 16.3472 168.963 14.312C166.453 17.0067 163.48 19.2289 160.185 20.873L157.785 18.352C161.44 16.8689 164.712 14.5784 167.356 11.652C168.862 9.97864 170.042 8.03869 170.835 5.932H162.921C161.941 5.932 160.656 6.072 160.166 6.096V2.778C161.081 2.88152 162 2.93627 162.921 2.942H171.162C171.972 2.95865 172.781 2.8576 173.562 2.642L175.477 4.066C175.168 4.52576 174.894 5.0085 174.659 5.51Z" fill="white"/>
<path d="M190.369 4.062C190.346 4.109 190.322 4.132 190.299 4.179H194.991C195.678 4.17908 196.361 4.08486 197.022 3.899L199.4 5.37C199.088 5.90339 198.83 6.46649 198.629 7.051C197.759 9.87588 196.383 12.5189 194.567 14.851C192.069 17.8503 188.812 20.1241 185.135 21.435L182.38 18.96C186.027 18.0329 189.307 16.0222 191.788 13.193C193.345 11.3358 194.477 9.16018 195.103 6.819H188.542C186.883 8.99359 184.899 10.8993 182.659 12.469L180.044 10.531C183.08 8.69613 185.59 6.10644 187.328 3.014C187.776 2.2407 188.131 1.4165 188.383 0.559L191.791 1.68C191.256 2.5 190.649 3.548 190.369 4.062Z" fill="white"/>
<path d="M207.2 9.222H219.737C220.837 9.222 221.861 9.128 222.468 9.081V12.746C221.907 12.724 220.717 12.63 219.737 12.63H207.2C205.87 12.63 204.3 12.677 203.441 12.746V9.081C204.281 9.151 205.985 9.222 207.2 9.222Z" fill="white"/>
<path d="M229.539 13.447C230.193 11.439 230.217 7.027 230.217 4.202C230.235 3.48006 230.164 2.75865 230.006 2.054H233.439C233.335 2.7577 233.281 3.46773 233.275 4.179C233.275 6.934 233.206 11.86 232.575 14.218C231.877 16.8105 230.432 19.1406 228.42 20.918L225.571 19.026C227.453 17.6358 228.843 15.6814 229.539 13.447ZM236.566 17.647V4.039C236.57 3.36516 236.507 2.6926 236.379 2.031H239.858C239.746 2.70211 239.691 3.38159 239.695 4.062V16.272C242.013 15.1592 244 13.4609 245.461 11.345L247.261 13.913C245.073 16.5427 242.383 18.7093 239.347 20.286C238.986 20.4772 238.65 20.7123 238.347 20.986L236.386 19.375C236.502 18.8069 236.562 18.2288 236.566 17.649V17.647Z" fill="white"/>
</g>
<defs>
<clipPath id="clip0_3_705">
<rect width="247.259" height="21.944" fill="white"/>
</clipPath>
</defs>
</svg>
