<svg width="157" height="22" viewBox="0 0 157 22" fill="none" xmlns="http://www.w3.org/2000/svg">
<path d="M14.2753 1.66982H11.6713C11.7809 2.35976 11.8496 3.05563 11.8768 3.75375C11.8997 4.30335 11.9225 4.99036 11.9454 5.74607H3.97347C3.20936 5.74041 2.4464 5.68578 1.68926 5.5825V8.00993C2.44305 7.96413 3.21968 7.94123 4.01915 7.94123H10.986C8.28138 11.5441 4.74672 14.4367 0.684204 16.3718L2.32884 18.2529C6.08421 16.2046 9.38663 13.4146 12.0367 10.0513C12.0824 12.8452 12.1053 15.7077 12.1053 17.4252C12.1053 18.0435 11.8768 18.3412 11.2601 18.3412C10.2125 18.3281 9.167 18.2439 8.13073 18.0893L8.31347 20.4481C9.5241 20.52 10.8489 20.5855 12.1053 20.5855C13.6357 20.5855 14.4123 19.8494 14.4123 18.5244C14.3895 15.5703 14.2981 11.3337 14.2296 7.9445H17.5645C18.1356 7.9445 18.9579 7.9674 19.5746 7.9903V5.58577C18.8713 5.6813 18.1631 5.73592 17.4536 5.74934H14.1904C14.1904 4.97073 14.1676 4.30662 14.1676 3.75702C14.1463 3.0595 14.1823 2.36141 14.2753 1.66982ZM27.1354 2.72323L25.4679 4.50946C27.4908 5.98102 29.3998 7.60394 31.1784 9.36432L32.9829 7.5094C31.1623 5.76237 29.207 4.16202 27.1354 2.72323ZM24.7826 18.0435L26.313 20.4023C29.4167 19.8246 32.3845 18.6671 35.0616 16.9901C38.3825 14.9412 41.1388 12.0912 43.0792 8.70021L41.6858 6.20735C39.8798 9.75601 37.1385 12.7408 33.7596 14.8375C31.0142 16.5036 27.9604 17.5943 24.7826 18.0435ZM49.8633 2.51713V4.87586C50.5028 4.83006 51.3251 4.80716 52.0561 4.80716H60.9188C61.6955 4.80716 62.6092 4.83006 63.1802 4.87586V2.51713C62.4365 2.59372 61.6893 2.63193 60.9417 2.63163H52.0561C51.3237 2.63202 50.5917 2.5938 49.8633 2.51713ZM64.9847 8.81471L63.3629 7.8071C62.8902 7.95545 62.3963 8.02507 61.901 8.0132H50.2026C49.5402 8.0132 48.6722 7.9445 47.7814 7.84963V10.2313C48.6494 10.1626 49.6577 10.1397 50.2026 10.1397H61.8325C61.3752 11.8519 60.5044 13.4249 59.297 14.7197C57.1015 16.8619 54.3175 18.2974 51.3023 18.8418L53.084 20.9028C56.2196 20.0977 59.0582 18.4056 61.2615 16.0283C62.8489 14.1723 63.9969 11.9802 64.6193 9.61622C64.7114 9.33644 64.834 9.06766 64.9847 8.81471ZM69.2334 11.2421L70.3526 13.5093C73.2712 12.6051 76.0942 11.4162 78.7814 9.95973V17.929C78.7814 18.8304 78.7357 19.7313 78.6443 20.628H81.4767C81.3519 19.734 81.2973 18.8316 81.3136 17.929V8.42541C83.5282 6.96981 85.5873 5.2892 87.4581 3.41024L85.5394 1.57822C83.7053 3.69979 81.5662 5.5356 79.1925 7.02522C76.092 8.90299 72.7378 10.3232 69.2334 11.2421ZM95.6649 2.72323L93.9975 4.50946C96.0204 5.98102 97.9294 7.60394 99.708 9.36432L101.513 7.5094C99.6908 5.76223 97.7345 4.16188 95.6617 2.72323H95.6649ZM93.3089 18.0435L94.8394 20.4023C97.9431 19.8246 100.911 18.6671 103.588 16.9901C106.909 14.9412 109.665 12.0912 111.605 8.70021L110.212 6.20735C108.407 9.75722 105.665 12.7432 102.286 14.8408C99.5403 16.5057 96.4864 17.5953 93.3089 18.0435ZM121.085 1.32631H115.192V2.99804H121.085V1.32631ZM119.486 15.5932V18.8908H116.813V15.5932H119.486ZM121.268 13.8757H115.058V21.5702H116.817V20.5855H121.271L121.268 13.8757ZM115.077 12.3643H121.176V10.7154H115.077V12.3643ZM121.176 7.59773H115.077V9.24655H121.176V7.59773ZM114.095 6.10921H121.793V4.41458H114.095V6.10921ZM129.351 16.4143V15.0207H132V16.4176L129.351 16.4143ZM124.945 15.0174H127.549V16.4143H124.945V15.0174ZM127.549 12.2236V13.6205H124.945V12.2269L127.549 12.2236ZM132.003 12.2236V13.6205H129.354V12.2269L132.003 12.2236ZM126.978 6.66208H130.15V7.9216H126.975L126.978 6.66208ZM126.978 3.91405H130.15V5.12776H126.975L126.978 3.91405ZM135.179 16.4176H133.968V10.6925H129.354V9.59332H135.133V7.92487H132.072V6.66536H134.311V5.12776H132.072V3.91732H134.764V2.36337H132.072V0.577148H130.15V2.36337H126.975V0.577148H125.059V2.36337H122.501V3.91732H125.059V5.13104H122.938V6.66536H125.059V7.92487H121.884V9.59659H127.549V10.6958H123.144V16.4209H121.862V18.1155H123.141V21.5931H124.945V18.1122H132.003V19.555C132.003 19.8298 131.935 19.9214 131.638 19.9443C131.341 19.9443 130.333 19.9443 129.354 19.8985C129.594 20.4311 129.763 20.9932 129.856 21.5702C130.938 21.6578 132.026 21.565 133.077 21.2954C133.785 21.0206 133.968 20.5397 133.968 19.5779V18.1122H135.179V16.4176ZM148.016 9.95646C149.729 9.33815 151.899 8.53664 153.932 7.75803L153.589 6.20408C151.282 7.02849 148.907 7.83 147.285 8.33053L148.016 9.95646ZM152.47 5.3535C151.561 4.54209 150.538 3.87063 149.432 3.36117L148.381 4.59779C149.462 5.18001 150.468 5.89427 151.374 6.72424L152.47 5.3535ZM143.128 6.68171C140.889 7.48322 138.651 8.28473 137.097 8.78854L137.897 10.529C139.519 9.88776 141.506 9.01754 143.444 8.21603L143.128 6.68171ZM142.488 5.4222C141.618 4.59281 140.624 3.90511 139.541 3.38407L138.491 4.62069C139.555 5.19873 140.532 5.92575 141.392 6.77986L142.488 5.4222ZM152.747 15.6128H142.305V13.7808H152.747V15.6128ZM142.305 19.1198V17.2388H152.747V19.1198H142.305ZM146.417 10.0742C146.499 9.77605 146.537 9.46749 146.531 9.15822V1.66982H137.691V3.34481H144.589V9.16149C144.589 9.39049 144.521 9.48209 144.224 9.48209C143.95 9.48209 143.082 9.48209 142.168 9.45919C142.414 9.95238 142.599 10.4744 142.716 11.0131C143.721 11.1035 144.733 11.0182 145.709 10.7612C145.893 10.6852 146.057 10.5677 146.188 10.4177C146.004 11.0111 145.783 11.5924 145.526 12.1582H140.184V21.6389H142.305V20.7916H152.747V21.6389H154.963V12.1582H147.608C147.928 11.6085 148.247 11.0131 148.567 10.4177L146.417 10.0742ZM156.719 1.66982H147.853V3.34481H154.705V9.13859C154.705 9.39049 154.637 9.45919 154.34 9.48209C154.043 9.48209 153.035 9.48209 152.078 9.43629C152.343 9.96522 152.535 10.5275 152.649 11.108C153.716 11.195 154.789 11.1021 155.825 10.8332C156.51 10.5355 156.715 10.0775 156.715 9.13859L156.719 1.66982Z" fill="white"/>
</svg>
