<svg width="58" height="13" viewBox="0 0 58 13" fill="none" xmlns="http://www.w3.org/2000/svg">
<path d="M0.447388 11.1826H5.69455V10.1881H3.77581V1.57758H2.86212C2.24877 1.92869 1.57626 2.16378 0.878125 2.27113V3.03012H2.57497V10.1881H0.447388V11.1826ZM12.4036 0.632127C12.3122 2.36274 12.3122 8.6047 7.02591 11.3135C7.32602 11.5173 7.59061 11.7693 7.80907 12.0594C11.1114 10.2666 12.4591 7.11291 13.0301 4.49574C13.6567 7.11291 15.0924 10.4662 18.46 12.0594C18.6486 11.7524 18.8919 11.4829 19.1779 11.2644C14.2701 9.01364 13.5653 2.96796 13.4478 1.24062C13.4609 1.01816 13.4609 0.808786 13.4739 0.63867L12.4036 0.632127ZM20.6268 2.56884L20.7442 3.70731C22.1539 3.40633 25.4823 3.09227 26.879 2.93524C26.1379 3.41146 25.5268 4.06514 25.1006 4.83731C24.6745 5.60948 24.4468 6.47585 24.4381 7.35827C24.4381 10.283 27.1922 11.5752 29.607 11.6668L29.9855 10.5807C27.8579 10.4989 25.4823 9.69083 25.4823 7.13908C25.5155 6.2288 25.8172 5.34882 26.3493 4.61044C26.8813 3.87206 27.6198 3.30844 28.4714 2.99086C29.313 2.82059 30.1717 2.75031 31.0297 2.78148V1.73461C30.1552 1.77387 28.9282 1.85239 27.5055 1.97016C25.1038 2.16645 22.6369 2.41508 21.7884 2.50668C21.5404 2.53285 21.1228 2.55902 20.6268 2.57211V2.56884ZM29.1501 4.39432L28.4844 4.68221C28.8942 5.26248 29.2523 5.8777 29.5548 6.52078L30.2172 6.20999C29.9029 5.58124 29.5464 4.97462 29.1501 4.39432ZM30.5729 3.84471L29.9333 4.14569C30.3528 4.72167 30.7207 5.33363 31.033 5.97444L31.7117 5.64729C31.3696 5.02237 30.9893 4.41927 30.5729 3.84144V3.84471ZM35.8755 5.68982H38.9135V6.58948H35.8722L35.8755 5.68982ZM38.9135 3.43578H35.8722V2.55902H38.9135V3.43578ZM38.9135 4.98973H35.8722V4.12933H38.9135V4.98973ZM44.9699 8.98092V8.18268H39.6183V7.37136H44.6044V6.58621H39.8435V5.68655H43.6288V4.993H39.8435V4.12933H43.5896V3.43578H39.8435V2.55902H44.0986V1.78696H39.8141C40.0589 1.36821 40.3362 0.870945 40.5973 0.386767L39.5172 0.229736C39.3309 0.764366 39.104 1.28388 38.8384 1.78369H36.316C36.613 1.33984 36.8875 0.881249 37.1383 0.409667L36.1333 0.213379C35.3953 1.70263 34.3444 3.014 33.0529 4.05736C33.3167 4.23192 33.5504 4.44851 33.7446 4.69857C34.1775 4.33288 34.5862 3.93948 34.9683 3.52084V7.36482H38.6622V8.17614H33.3922V8.97438H37.8562C36.4211 10.0246 34.7999 10.7918 33.079 11.235C33.327 11.471 33.5421 11.7395 33.7185 12.0332C35.518 11.4577 37.1954 10.5526 38.6655 9.36368V12.1641H39.6183V9.33751C41.0991 10.517 42.7917 11.401 44.6044 11.9416C44.7786 11.6508 44.988 11.3827 45.2277 11.1434C43.5179 10.7316 41.9014 9.99896 40.4635 8.98419L44.9699 8.98092ZM52.6971 6.97878V3.51102H56.4432V6.97878H52.6971ZM47.959 6.97878V3.51102H51.692V6.97878H47.959ZM52.6971 2.55575V0.226465H51.692V2.55575H47.0061V8.74538H47.959V7.93405H51.692V12.1771H52.6971V7.93732H56.4432V8.68322H57.4352V2.55902L52.6971 2.55575Z" fill="white"/>
</svg>
