<svg width="34" height="48" viewBox="0 0 34 48" fill="none" xmlns="http://www.w3.org/2000/svg">
<path d="M3.01647 2.84775C3.09293 2.84611 3.1688 2.86134 3.23868 2.89238C3.30857 2.92341 3.37074 2.96947 3.42076 3.02728C3.51128 3.12595 3.56084 3.25536 3.55938 3.38923C3.5602 3.46552 3.54459 3.5411 3.51359 3.61082C3.4826 3.68055 3.43695 3.74279 3.37976 3.79332C3.28197 3.88663 3.15166 3.93819 3.01647 3.93706C2.93987 3.93783 2.86403 3.92191 2.79421 3.89041C2.72439 3.85891 2.66227 3.81258 2.61218 3.75464C2.52003 3.65534 2.46922 3.52466 2.4701 3.38923C2.46882 3.31259 2.48451 3.23661 2.51607 3.16675C2.54762 3.09688 2.59425 3.03487 2.65261 2.98514C2.7522 2.89507 2.88218 2.84599 3.01647 2.84775ZM10.0557 1.96856V3.11156H10.5825L11.4321 3.09828C11.466 3.09828 11.4829 3.11406 11.4829 3.14562V3.34882C11.4829 3.38038 11.466 3.39616 11.4321 3.39616L10.5825 3.3823H10.0546V4.72504H10.8938L11.8346 4.71176C11.8685 4.71176 11.8855 4.72754 11.8855 4.7591V4.97557C11.8855 5.00713 11.8685 5.02291 11.8346 5.02291L10.8938 5.00963H8.99651L8.0522 5.02291C8.04578 5.02377 8.03925 5.02313 8.03311 5.02105C8.02698 5.01898 8.0214 5.01551 8.01682 5.01094C8.01224 5.00636 8.00878 5.00079 8.0067 4.99465C8.00462 4.98852 8.00399 4.98199 8.00484 4.97557V4.75736C8.00399 4.75095 8.00462 4.74442 8.0067 4.73829C8.00878 4.73215 8.01224 4.72658 8.01682 4.722C8.0214 4.71742 8.02698 4.71396 8.03311 4.71189C8.03925 4.70981 8.04578 4.70917 8.0522 4.71003L8.99651 4.72331H9.74444V3.3823H9.30781L8.44552 3.39558C8.4391 3.39643 8.43256 3.3958 8.42643 3.39372C8.42029 3.39165 8.41472 3.38818 8.41014 3.3836C8.40556 3.37903 8.40209 3.37345 8.40002 3.36732C8.39794 3.36119 8.3973 3.35466 8.39816 3.34824V3.14504C8.3973 3.13862 8.39794 3.1321 8.40002 3.12596C8.40209 3.11983 8.40556 3.11426 8.41014 3.10968C8.41472 3.1051 8.42029 3.10164 8.42643 3.09956C8.43256 3.09749 8.4391 3.09685 8.44552 3.09771L9.30492 3.11098H9.74156V1.96798H9.12126L8.19081 1.98126C8.18439 1.98212 8.17786 1.98148 8.17173 1.9794C8.16559 1.97733 8.16002 1.97386 8.15544 1.96929C8.15085 1.96471 8.14739 1.95914 8.14531 1.953C8.14324 1.94687 8.1426 1.94034 8.14346 1.93392V1.73072C8.1426 1.72431 8.14324 1.71778 8.14531 1.71164C8.14739 1.70551 8.15085 1.69994 8.15544 1.69536C8.16002 1.69078 8.16559 1.68732 8.17173 1.68524C8.17786 1.68317 8.18439 1.68253 8.19081 1.68339L9.12126 1.69782H10.8031L11.7272 1.68454C11.7336 1.68369 11.7402 1.68432 11.7463 1.6864C11.7524 1.68848 11.758 1.69194 11.7626 1.69652C11.7672 1.70109 11.7706 1.70667 11.7727 1.7128C11.7748 1.71893 11.7754 1.72546 11.7746 1.73188V1.93508C11.7754 1.9415 11.7748 1.94803 11.7727 1.95416C11.7706 1.96029 11.7672 1.96586 11.7626 1.97044C11.758 1.97502 11.7524 1.97848 11.7463 1.98056C11.7402 1.98263 11.7336 1.98327 11.7272 1.98241L10.8031 1.96914L10.0557 1.96856ZM10.8539 3.65304C11.0805 3.86838 11.2803 4.11028 11.4488 4.37348C11.4551 4.38278 11.4596 4.39315 11.4621 4.40407C11.4621 4.41754 11.444 4.43679 11.4078 4.4618L11.3298 4.51953C11.3072 4.53945 11.2806 4.55439 11.2519 4.5634C11.2407 4.5634 11.2284 4.55109 11.2149 4.52646C11.0528 4.26135 10.8589 4.01708 10.6373 3.79909C10.6268 3.79048 10.6196 3.77841 10.6171 3.76503C10.6171 3.75387 10.6373 3.73463 10.6778 3.70731L10.7454 3.65997C10.7636 3.64538 10.7841 3.63388 10.806 3.62591C10.8179 3.62591 10.8339 3.63495 10.8539 3.65304ZM7.57918 6.0545V6.47071C7.58004 6.47713 7.5794 6.48366 7.57732 6.48979C7.57525 6.49592 7.57178 6.50149 7.5672 6.50607C7.56262 6.51065 7.55705 6.51411 7.55091 6.51619C7.54477 6.51827 7.53824 6.5189 7.53182 6.51805H7.2904C7.28398 6.5189 7.27745 6.51827 7.27131 6.51619C7.26518 6.51411 7.2596 6.51065 7.25502 6.50607C7.25044 6.50149 7.24698 6.49592 7.2449 6.48979C7.24282 6.48366 7.24219 6.47713 7.24304 6.47071L7.25633 3.92032V2.52332L7.24304 0.700292C7.24219 0.693874 7.24282 0.687345 7.2449 0.681213C7.24698 0.67508 7.25044 0.669508 7.25502 0.66493C7.2596 0.660351 7.26518 0.65689 7.27131 0.654813C7.27745 0.652737 7.28398 0.652101 7.2904 0.652956L8.26821 0.666233H11.6152L12.593 0.652956C12.5994 0.652101 12.6059 0.652737 12.6121 0.654813C12.6182 0.65689 12.6238 0.660351 12.6283 0.66493C12.6329 0.669508 12.6364 0.67508 12.6385 0.681213C12.6405 0.687345 12.6412 0.693874 12.6403 0.700292L12.6276 2.33282V3.92032L12.6409 6.47071C12.6418 6.47713 12.6411 6.48366 12.639 6.48979C12.637 6.49592 12.6335 6.50149 12.6289 6.50607C12.6243 6.51065 12.6188 6.51411 12.6126 6.51619C12.6065 6.51827 12.6 6.5189 12.5935 6.51805H12.3498C12.3434 6.5189 12.3369 6.51827 12.3307 6.51619C12.3246 6.51411 12.319 6.51065 12.3144 6.50607C12.3098 6.50149 12.3064 6.49592 12.3043 6.48979C12.3022 6.48366 12.3016 6.47713 12.3024 6.47071V6.0545H7.57918ZM7.57918 5.77048H12.3001V0.964106H7.57918V5.77048ZM17.0402 3.26396C17.1711 2.92568 17.2974 2.54237 17.419 2.11403L16.7323 2.12731C16.7259 2.12817 16.7194 2.12753 16.7132 2.12545C16.7071 2.12338 16.7015 2.11991 16.6969 2.11534C16.6924 2.11076 16.6889 2.10519 16.6868 2.09905C16.6847 2.09292 16.6841 2.08639 16.685 2.07997V1.871C16.6841 1.86458 16.6847 1.85805 16.6868 1.85192C16.6889 1.84579 16.6924 1.84022 16.6969 1.83564C16.7015 1.83106 16.7071 1.8276 16.7132 1.82552C16.7194 1.82345 16.7259 1.82281 16.7323 1.82366L17.4831 1.83694H17.5034C17.5935 1.5079 17.6668 1.19906 17.7234 0.910419H17.3977L16.4973 0.923697C16.4634 0.923697 16.4464 0.907918 16.4464 0.87636V0.66681C16.4464 0.635253 16.4634 0.619474 16.4973 0.619474L17.3977 0.632751H18.8664L19.7656 0.618896C19.7995 0.618896 19.8165 0.634676 19.8165 0.666233V0.875783C19.8165 0.907341 19.7995 0.923119 19.7656 0.923119L18.8652 0.909842H18.033C17.9768 1.19848 17.9034 1.50732 17.8129 1.83636H18.368L19.1228 1.82309C19.1293 1.82223 19.1358 1.82287 19.1419 1.82494C19.1481 1.82702 19.1536 1.83048 19.1582 1.83506C19.1628 1.83964 19.1663 1.84521 19.1683 1.85134C19.1704 1.85748 19.171 1.86401 19.1702 1.87042L19.1569 2.38997V3.26281L19.9453 3.24953C19.9792 3.24953 19.9961 3.26531 19.9961 3.29686V3.50641C19.9961 3.53797 19.9792 3.55375 19.9453 3.55375L19.0044 3.54047H17.2059L16.2616 3.55375C16.2552 3.55461 16.2487 3.55397 16.2425 3.55189C16.2364 3.54982 16.2308 3.54636 16.2262 3.54178C16.2216 3.5372 16.2182 3.53163 16.2161 3.52549C16.214 3.51936 16.2134 3.51283 16.2142 3.50641V3.29686C16.2134 3.29045 16.214 3.28392 16.2161 3.27779C16.2182 3.27165 16.2216 3.26608 16.2262 3.2615C16.2308 3.25692 16.2364 3.25346 16.2425 3.25139C16.2487 3.24931 16.2552 3.24867 16.2616 3.24953L17.0402 3.26396ZM17.3717 3.26396H18.8473V2.11403H17.7373C17.6425 2.45001 17.5207 2.83331 17.3717 3.26396ZM14.492 6.08163V6.44993C14.4928 6.45635 14.4922 6.46288 14.4901 6.46901C14.488 6.47514 14.4846 6.48071 14.48 6.48529C14.4754 6.48987 14.4698 6.49333 14.4637 6.49541C14.4576 6.49748 14.451 6.49812 14.4446 6.49726H14.228C14.2216 6.49812 14.2151 6.49748 14.2089 6.49541C14.2028 6.49333 14.1972 6.48987 14.1926 6.48529C14.1881 6.48071 14.1846 6.47514 14.1825 6.46901C14.1804 6.46288 14.1798 6.45635 14.1807 6.44993L14.194 5.43855V5.02926L14.1807 4.44044C14.1798 4.43402 14.1804 4.4275 14.1825 4.42136C14.1846 4.41523 14.1881 4.40966 14.1926 4.40508C14.1972 4.4005 14.2028 4.39704 14.2089 4.39496C14.2151 4.39289 14.2216 4.39225 14.228 4.39311L14.8304 4.40638H15.3762L15.989 4.39311C15.9954 4.39225 16.002 4.39289 16.0081 4.39496C16.0142 4.39704 16.0198 4.4005 16.0244 4.40508C16.029 4.40966 16.0324 4.41523 16.0345 4.42136C16.0366 4.4275 16.0372 4.43402 16.0364 4.44044L16.0231 4.92073V5.35369L16.0387 6.32524C16.0397 6.33174 16.0392 6.3384 16.0373 6.34469C16.0353 6.35097 16.0318 6.3567 16.0272 6.36142C16.0226 6.36613 16.017 6.3697 16.0107 6.37184C16.0045 6.37398 15.9978 6.37463 15.9913 6.37373H15.7805C15.7741 6.37443 15.7675 6.37364 15.7615 6.37141C15.7554 6.36919 15.7499 6.36559 15.7454 6.3609C15.7409 6.35621 15.7376 6.35055 15.7357 6.34437C15.7338 6.33818 15.7333 6.33163 15.7343 6.32524V6.08163H14.492ZM14.492 5.82474H15.7337V4.66442H14.492V5.82474ZM17.0638 6.1255V6.44358C17.0644 6.44986 17.0636 6.45619 17.0614 6.4621C17.0591 6.46801 17.0556 6.47336 17.0511 6.47773C17.0466 6.48211 17.0411 6.48541 17.0351 6.48739C17.0291 6.48938 17.0227 6.48999 17.0165 6.48918H16.7797C16.7733 6.49004 16.7667 6.4894 16.7606 6.48733C16.7545 6.48525 16.7489 6.48179 16.7443 6.47721C16.7397 6.47263 16.7363 6.46706 16.7342 6.46093C16.7321 6.45479 16.7315 6.44826 16.7323 6.44185L16.7456 5.36985V4.93055L16.7323 4.29151C16.7315 4.28509 16.7321 4.27856 16.7342 4.27243C16.7363 4.26629 16.7397 4.26072 16.7443 4.25614C16.7489 4.25156 16.7545 4.2481 16.7606 4.24603C16.7667 4.24395 16.7733 4.24331 16.7797 4.24417L17.5854 4.25745H18.5869L19.3856 4.24417C19.392 4.24331 19.3986 4.24395 19.4047 4.24603C19.4108 4.2481 19.4164 4.25156 19.421 4.25614C19.4256 4.26072 19.429 4.26629 19.4311 4.27243C19.4332 4.27856 19.4338 4.28509 19.433 4.29151L19.4197 4.85319V5.36754L19.433 6.42337C19.4338 6.42979 19.4332 6.43632 19.4311 6.44245C19.429 6.44859 19.4256 6.45416 19.421 6.45874C19.4164 6.46331 19.4108 6.46678 19.4047 6.46885C19.3986 6.47093 19.392 6.47156 19.3856 6.47071H19.1488C19.1424 6.47156 19.1359 6.47093 19.1297 6.46885C19.1236 6.46678 19.118 6.46331 19.1134 6.45874C19.1089 6.45416 19.1054 6.44859 19.1033 6.44245C19.1012 6.43632 19.1006 6.42979 19.1015 6.42337V6.1255H17.0638ZM17.0638 5.85476H19.1015V4.52646H17.0638V5.85476ZM14.8564 3.47005H15.3537L15.922 3.45677C15.9289 3.45581 15.9359 3.45646 15.9425 3.45868C15.9491 3.46089 15.9551 3.46461 15.9601 3.46953C15.965 3.47445 15.9687 3.48045 15.9709 3.48705C15.9731 3.49365 15.9738 3.50067 15.9728 3.50757V3.71366C15.9728 3.74521 15.9559 3.76099 15.922 3.76099L15.3537 3.74771H14.8564L14.2881 3.76099C14.2817 3.76185 14.2751 3.76121 14.269 3.75914C14.2629 3.75706 14.2573 3.7536 14.2527 3.74902C14.2481 3.74444 14.2447 3.73887 14.2426 3.73274C14.2405 3.7266 14.2399 3.72007 14.2407 3.71366V3.50757C14.2407 3.4737 14.2565 3.45677 14.2881 3.45677L14.8564 3.47005ZM14.8564 2.54987H15.3537L15.922 2.5366C15.9559 2.5366 15.9728 2.55238 15.9728 2.58393V2.79464C15.9728 2.8262 15.9559 2.84197 15.922 2.84197L15.3537 2.8287H14.8564L14.2881 2.84197C14.2815 2.84324 14.2747 2.84291 14.2683 2.84101C14.2618 2.83912 14.2559 2.83571 14.2511 2.83108C14.2462 2.82645 14.2425 2.82073 14.2403 2.81439C14.2381 2.80805 14.2375 2.80128 14.2384 2.79464V2.58509C14.2376 2.57867 14.2382 2.57214 14.2403 2.56601C14.2424 2.55988 14.2458 2.5543 14.2504 2.54972C14.255 2.54515 14.2606 2.54168 14.2667 2.53961C14.2728 2.53753 14.2794 2.5369 14.2858 2.53775L14.8564 2.54987ZM14.8495 0.652379H15.4178L16.0271 0.639101C16.0335 0.638247 16.0401 0.638882 16.0462 0.640958C16.0523 0.643035 16.0579 0.646497 16.0625 0.651075C16.0671 0.655653 16.0705 0.661225 16.0726 0.667358C16.0747 0.673491 16.0753 0.68002 16.0745 0.686438V0.892524C16.0745 0.92639 16.0587 0.943324 16.0271 0.943324L15.4161 0.930047H14.8477L14.2454 0.943324C14.2385 0.944283 14.2314 0.94363 14.2248 0.941416C14.2182 0.939202 14.2122 0.935488 14.2073 0.930565C14.2024 0.925642 14.1987 0.919645 14.1964 0.913044C14.1942 0.906444 14.1936 0.899419 14.1945 0.892524V0.686438C14.1945 0.65488 14.2115 0.639101 14.2454 0.639101L14.8495 0.652379ZM14.6398 1.60603H15.4588L16.1865 1.59276C16.1929 1.5919 16.1995 1.59254 16.2056 1.59461C16.2117 1.59669 16.2173 1.60015 16.2219 1.60473C16.2265 1.60931 16.2299 1.61488 16.232 1.62101C16.2341 1.62715 16.2347 1.63367 16.2339 1.64009V1.84964C16.2347 1.85606 16.2341 1.86259 16.232 1.86872C16.2299 1.87485 16.2265 1.88043 16.2219 1.885C16.2173 1.88958 16.2117 1.89304 16.2056 1.89512C16.1995 1.8972 16.1929 1.89783 16.1865 1.89698L15.4588 1.89005H14.6375L13.9098 1.89698C13.9034 1.89783 13.8968 1.8972 13.8907 1.89512C13.8846 1.89304 13.879 1.88958 13.8744 1.885C13.8698 1.88043 13.8664 1.87485 13.8643 1.86872C13.8622 1.86259 13.8616 1.85606 13.8624 1.84964V1.64009C13.8616 1.63367 13.8622 1.62715 13.8643 1.62101C13.8664 1.61488 13.8698 1.60931 13.8744 1.60473C13.879 1.60015 13.8846 1.59669 13.8907 1.59461C13.8968 1.59254 13.9034 1.5919 13.9098 1.59276L14.6398 1.60603ZM3.01647 13.2387C3.09293 13.237 3.1688 13.2523 3.23868 13.2833C3.30857 13.3143 3.37074 13.3604 3.42076 13.4182C3.5168 13.5256 3.56644 13.6666 3.55887 13.8104C3.55129 13.9542 3.48712 14.0892 3.38034 14.186C3.28213 14.2788 3.15162 14.3297 3.01647 14.328C2.87148 14.3268 2.73277 14.2687 2.63024 14.1662C2.52771 14.0637 2.46958 13.9251 2.46837 13.7801C2.46709 13.7035 2.48278 13.6275 2.51434 13.5577C2.54589 13.4878 2.59252 13.4258 2.65088 13.376C2.75091 13.2856 2.88159 13.2365 3.01647 13.2387ZM10.0725 14.754C10.4008 15.2632 10.8549 15.6792 11.3911 15.9616C11.9018 16.2355 12.4521 16.4283 13.0221 16.5332C12.9528 16.5893 12.8963 16.6595 12.8563 16.7392C12.8224 16.8047 12.7909 16.8374 12.7616 16.8374C12.7352 16.8357 12.7091 16.8313 12.6836 16.8241C12.0718 16.6806 11.4906 16.4286 10.9677 16.08C10.4951 15.7688 10.1026 15.3507 9.82184 14.8596C9.75079 15.0784 9.64825 15.2857 9.51747 15.475C8.95326 16.1772 8.15821 16.6566 7.27365 16.8281C7.24702 16.8352 7.21974 16.8397 7.19222 16.8414C7.16526 16.8414 7.13485 16.811 7.10096 16.7502C7.05904 16.6804 7.00392 16.6194 6.93867 16.5707C7.85059 16.4426 8.68259 15.981 9.27374 15.2753C9.38123 15.1127 9.46979 14.9384 9.53768 14.7557H7.97423L7.03685 14.769C7.03043 14.7699 7.0239 14.7692 7.01777 14.7671C7.01163 14.7651 7.00606 14.7616 7.00147 14.757C6.99689 14.7525 6.99343 14.7469 6.99135 14.7407C6.98927 14.7346 6.98864 14.7281 6.98949 14.7217V14.4983C6.98864 14.4918 6.98927 14.4853 6.99135 14.4792C6.99343 14.4731 6.99689 14.4675 7.00147 14.4629C7.00606 14.4583 7.01163 14.4549 7.01777 14.4528C7.0239 14.4507 7.03043 14.4501 7.03685 14.4509L7.87605 14.4642V13.4857L7.86276 12.8969C7.86191 12.8905 7.86254 12.884 7.86462 12.8778C7.8667 12.8717 7.87016 12.8661 7.87474 12.8615C7.87932 12.857 7.8849 12.8535 7.89103 12.8514C7.89717 12.8494 7.9037 12.8487 7.91012 12.8496L8.89486 12.8629H9.75426C9.76296 12.6085 9.74943 12.354 9.71383 12.102C9.84706 12.1089 9.95756 12.118 10.0454 12.1291C10.1062 12.138 10.1366 12.1593 10.1366 12.1932C10.1366 12.1978 10.1243 12.234 10.0996 12.3017C10.0685 12.4873 10.0549 12.6753 10.0592 12.8634H10.9521L11.9299 12.8502C11.9363 12.8493 11.9429 12.8499 11.949 12.852C11.9551 12.8541 11.9607 12.8575 11.9653 12.8621C11.9699 12.8667 11.9733 12.8723 11.9754 12.8784C11.9775 12.8845 11.9781 12.8911 11.9773 12.8975L11.964 13.4863V14.4636L12.8234 14.4503C12.8298 14.4495 12.8364 14.4501 12.8425 14.4522C12.8486 14.4543 12.8542 14.4577 12.8588 14.4623C12.8634 14.4669 12.8668 14.4725 12.8689 14.4786C12.871 14.4847 12.8716 14.4913 12.8708 14.4977V14.7211C12.8716 14.7275 12.871 14.734 12.8689 14.7402C12.8668 14.7463 12.8634 14.7519 12.8588 14.7565C12.8542 14.761 12.8486 14.7645 12.8425 14.7666C12.8364 14.7686 12.8298 14.7693 12.8234 14.7684L11.886 14.7552L10.0725 14.754ZM9.62258 14.4654C9.67906 14.2126 9.71632 13.956 9.73405 13.6976C9.74753 13.337 9.75426 13.1544 9.75426 13.1498H8.18735V14.4654H9.62258ZM11.644 14.4654V13.1474H10.05C10.046 13.5884 10.0064 14.0284 9.93157 14.4631L11.644 14.4654ZM8.87753 11.4462C8.88751 11.1938 8.87164 10.941 8.83017 10.6917C8.94472 10.6962 9.0589 10.7076 9.17209 10.7258C9.21714 10.7327 9.23966 10.7529 9.23966 10.7864C9.23676 10.8161 9.2275 10.8449 9.21251 10.8707C9.17275 11.0604 9.15915 11.2546 9.17209 11.448H10.6737C10.6838 11.1934 10.6679 10.9385 10.6264 10.6871C10.743 10.6888 10.8591 10.7024 10.9729 10.7275C11.018 10.7344 11.0405 10.7525 11.0405 10.7818C11.0379 10.8137 11.0286 10.8448 11.0133 10.873C10.9727 11.0573 10.9591 11.2465 10.9729 11.4347V11.448H11.9646L12.8783 11.4347C12.9122 11.4347 12.9291 11.4505 12.9291 11.482V11.7187C12.9291 11.7503 12.9122 11.766 12.8783 11.766L11.9646 11.7528H10.9723V11.773L10.9856 12.3346C10.9865 12.3411 10.9858 12.3476 10.9838 12.3537C10.9817 12.3599 10.9782 12.3654 10.9736 12.37C10.9691 12.3746 10.9635 12.378 10.9573 12.3801C10.9512 12.3822 10.9447 12.3828 10.9383 12.382H10.7072C10.7008 12.3828 10.6943 12.3822 10.6881 12.3801C10.682 12.378 10.6764 12.3746 10.6719 12.37C10.6673 12.3654 10.6638 12.3599 10.6617 12.3537C10.6597 12.3476 10.659 12.3411 10.6599 12.3346L10.6732 11.773V11.7504H9.17151V11.7776L9.18479 12.3393C9.18479 12.3708 9.16785 12.3866 9.13397 12.3866H8.90756C8.8783 12.3866 8.86367 12.3708 8.86367 12.3393L8.87695 11.7776V11.7504H7.89511L6.97794 11.7637C6.97152 11.7646 6.96499 11.7639 6.95885 11.7619C6.95272 11.7598 6.94714 11.7563 6.94256 11.7517C6.93798 11.7472 6.93452 11.7416 6.93244 11.7355C6.93036 11.7293 6.92973 11.7228 6.93058 11.7164V11.4797C6.92973 11.4733 6.93036 11.4668 6.93244 11.4606C6.93452 11.4545 6.93798 11.4489 6.94256 11.4443C6.94714 11.4398 6.95272 11.4363 6.95885 11.4342C6.96499 11.4322 6.97152 11.4315 6.97794 11.4324L7.89511 11.4456L8.87753 11.4462ZM17.0402 13.6549C17.1711 13.3166 17.2974 12.9333 17.419 12.5049L16.7323 12.5182C16.7259 12.5191 16.7194 12.5184 16.7132 12.5164C16.7071 12.5143 16.7015 12.5108 16.6969 12.5062C16.6924 12.5017 16.6889 12.4961 16.6868 12.49C16.6847 12.4838 16.6841 12.4773 16.685 12.4709V12.2619C16.6841 12.2555 16.6847 12.249 16.6868 12.2428C16.6889 12.2367 16.6924 12.2311 16.6969 12.2265C16.7015 12.222 16.7071 12.2185 16.7132 12.2164C16.7194 12.2144 16.7259 12.2137 16.7323 12.2146L17.4831 12.2279H17.5034C17.5935 11.8988 17.6668 11.59 17.7234 11.3013H17.3977L16.4973 11.3146C16.4634 11.3146 16.4464 11.2988 16.4464 11.2673V11.0571C16.4464 11.0256 16.4634 11.0098 16.4973 11.0098L17.3977 11.0231H18.8664L19.7656 11.0098C19.7995 11.0098 19.8165 11.0256 19.8165 11.0571V11.2667C19.8165 11.2982 19.7995 11.314 19.7656 11.314L18.8652 11.3008H18.033C17.9768 11.5894 17.9034 11.8982 17.8129 12.2273H18.368L19.1228 12.214C19.1293 12.2131 19.1358 12.2138 19.1419 12.2159C19.1481 12.2179 19.1536 12.2214 19.1582 12.226C19.1628 12.2305 19.1663 12.2361 19.1683 12.2423C19.1704 12.2484 19.171 12.2549 19.1702 12.2613L19.1569 12.7809V13.6537L19.9453 13.6404C19.9792 13.6404 19.9961 13.6562 19.9961 13.6878V13.8973C19.9961 13.9289 19.9792 13.9447 19.9453 13.9447L19.0044 13.9314H17.2059L16.2616 13.9447C16.2552 13.9455 16.2487 13.9449 16.2425 13.9428C16.2364 13.9407 16.2308 13.9373 16.2262 13.9327C16.2216 13.9281 16.2182 13.9225 16.2161 13.9164C16.214 13.9103 16.2134 13.9037 16.2142 13.8973V13.6878C16.2134 13.6814 16.214 13.6748 16.2161 13.6687C16.2182 13.6626 16.2216 13.657 16.2262 13.6524C16.2308 13.6478 16.2364 13.6444 16.2425 13.6423C16.2487 13.6402 16.2552 13.6396 16.2616 13.6404L17.0402 13.6549ZM17.3717 13.6549H18.8473V12.5049H17.7373C17.6425 12.8409 17.5207 13.2242 17.3717 13.6549ZM14.492 16.4725V16.8414C14.4928 16.8478 14.4922 16.8544 14.4901 16.8605C14.488 16.8666 14.4846 16.8722 14.48 16.8768C14.4754 16.8814 14.4698 16.8848 14.4637 16.8869C14.4576 16.889 14.451 16.8896 14.4446 16.8888H14.228C14.2216 16.8896 14.2151 16.889 14.2089 16.8869C14.2028 16.8848 14.1972 16.8814 14.1926 16.8768C14.1881 16.8722 14.1846 16.8666 14.1825 16.8605C14.1804 16.8544 14.1798 16.8478 14.1807 16.8414L14.194 15.83V15.4207L14.1807 14.8319C14.1798 14.8255 14.1804 14.819 14.1825 14.8128C14.1846 14.8067 14.1881 14.8011 14.1926 14.7966C14.1972 14.792 14.2028 14.7885 14.2089 14.7864C14.2151 14.7844 14.2216 14.7837 14.228 14.7846L14.8304 14.7979H15.3762L15.989 14.7846C15.9954 14.7837 16.002 14.7844 16.0081 14.7864C16.0142 14.7885 16.0198 14.792 16.0244 14.7966C16.029 14.8011 16.0324 14.8067 16.0345 14.8128C16.0366 14.819 16.0372 14.8255 16.0364 14.8319L16.0231 15.3122V15.7452L16.0364 16.7161C16.0372 16.7226 16.0366 16.7291 16.0345 16.7352C16.0324 16.7414 16.029 16.7469 16.0244 16.7515C16.0198 16.7561 16.0142 16.7595 16.0081 16.7616C16.002 16.7637 15.9954 16.7643 15.989 16.7635H15.7805C15.7741 16.7643 15.7675 16.7637 15.7614 16.7616C15.7553 16.7595 15.7497 16.7561 15.7451 16.7515C15.7405 16.7469 15.7371 16.7414 15.735 16.7352C15.7329 16.7291 15.7323 16.7226 15.7331 16.7161V16.4725H14.492ZM14.492 16.2157H15.7337V15.0553H14.492V16.2157ZM17.0638 16.5164V16.8345C17.0647 16.8409 17.0641 16.8474 17.062 16.8536C17.0599 16.8597 17.0564 16.8653 17.0519 16.8698C17.0473 16.8744 17.0417 16.8779 17.0356 16.88C17.0294 16.882 17.0229 16.8827 17.0165 16.8818H16.7797C16.7733 16.8827 16.7667 16.882 16.7606 16.88C16.7545 16.8779 16.7489 16.8744 16.7443 16.8698C16.7397 16.8653 16.7363 16.8597 16.7342 16.8536C16.7321 16.8474 16.7315 16.8409 16.7323 16.8345L16.7456 15.7625V15.3215L16.7323 14.6824C16.7315 14.676 16.7321 14.6695 16.7342 14.6633C16.7363 14.6572 16.7397 14.6516 16.7443 14.6471C16.7489 14.6425 16.7545 14.639 16.7606 14.6369C16.7667 14.6349 16.7733 14.6342 16.7797 14.6351L17.5854 14.6484H18.5869L19.3856 14.6351C19.392 14.6342 19.3986 14.6349 19.4047 14.6369C19.4108 14.639 19.4164 14.6425 19.421 14.6471C19.4256 14.6516 19.429 14.6572 19.4311 14.6633C19.4332 14.6695 19.4338 14.676 19.433 14.6824L19.4197 15.2441V15.7585L19.433 16.8172C19.4338 16.8236 19.4332 16.8301 19.4311 16.8362C19.429 16.8424 19.4256 16.848 19.421 16.8525C19.4164 16.8571 19.4108 16.8606 19.4047 16.8626C19.3986 16.8647 19.392 16.8654 19.3856 16.8645H19.1488C19.1424 16.8654 19.1359 16.8647 19.1297 16.8626C19.1236 16.8606 19.118 16.8571 19.1134 16.8525C19.1089 16.848 19.1054 16.8424 19.1033 16.8362C19.1012 16.8301 19.1006 16.8236 19.1015 16.8172V16.5164H17.0638ZM17.0638 16.2457H19.1015V14.9174H17.0638V16.2457ZM14.8564 13.861H15.3537L15.922 13.8477C15.9289 13.8467 15.9359 13.8474 15.9425 13.8496C15.9491 13.8518 15.9551 13.8555 15.9601 13.8604C15.965 13.8654 15.9687 13.8714 15.9709 13.878C15.9731 13.8846 15.9738 13.8916 15.9728 13.8985V14.1046C15.9728 14.1361 15.9559 14.1519 15.922 14.1519L15.3537 14.1386H14.8564L14.2881 14.1519C14.2817 14.1528 14.2751 14.1521 14.269 14.15C14.2629 14.148 14.2573 14.1445 14.2527 14.1399C14.2481 14.1353 14.2447 14.1298 14.2426 14.1236C14.2405 14.1175 14.2399 14.111 14.2407 14.1046V13.8985C14.2407 13.8646 14.2565 13.8477 14.2881 13.8477L14.8564 13.861ZM14.8564 12.9408H15.3537L15.922 12.9275C15.9559 12.9275 15.9728 12.9433 15.9728 12.9748V13.1855C15.9728 13.2171 15.9559 13.2329 15.922 13.2329L15.3537 13.2196H14.8564L14.2881 13.2329C14.2817 13.2337 14.2751 13.2331 14.269 13.231C14.2629 13.2289 14.2573 13.2255 14.2527 13.2209C14.2481 13.2163 14.2447 13.2108 14.2426 13.2046C14.2405 13.1985 14.2399 13.192 14.2407 13.1855V12.976C14.2399 12.9696 14.2405 12.963 14.2426 12.9569C14.2447 12.9508 14.2481 12.9452 14.2527 12.9406C14.2573 12.9361 14.2629 12.9326 14.269 12.9305C14.2751 12.9284 14.2817 12.9278 14.2881 12.9287L14.8564 12.9408ZM14.8495 11.0433H15.4178L16.0271 11.03C16.0335 11.0292 16.0401 11.0298 16.0462 11.0319C16.0523 11.0339 16.0579 11.0374 16.0625 11.042C16.0671 11.0466 16.0705 11.0521 16.0726 11.0583C16.0747 11.0644 16.0753 11.0709 16.0745 11.0773V11.2834C16.0745 11.3173 16.0587 11.3342 16.0271 11.3342L15.4161 11.321H14.8477L14.2454 11.3342C14.2385 11.3352 14.2314 11.3345 14.2248 11.3323C14.2182 11.3301 14.2122 11.3264 14.2073 11.3215C14.2024 11.3166 14.1987 11.3106 14.1964 11.304C14.1942 11.2974 14.1936 11.2903 14.1945 11.2834V11.0773C14.1945 11.0458 14.2115 11.03 14.2454 11.03L14.8495 11.0433ZM14.6398 11.9969H15.4588L16.1865 11.9837C16.1929 11.9828 16.1995 11.9834 16.2056 11.9855C16.2117 11.9876 16.2173 11.9911 16.2219 11.9956C16.2265 12.0002 16.2299 12.0058 16.232 12.0119C16.2341 12.0181 16.2347 12.0246 16.2339 12.031V12.2406C16.2347 12.247 16.2341 12.2535 16.232 12.2596C16.2299 12.2658 16.2265 12.2713 16.2219 12.2759C16.2173 12.2805 16.2117 12.284 16.2056 12.286C16.1995 12.2881 16.1929 12.2887 16.1865 12.2879L15.4588 12.281H14.6375L13.9098 12.2879C13.9034 12.2887 13.8968 12.2881 13.8907 12.286C13.8846 12.284 13.879 12.2805 13.8744 12.2759C13.8698 12.2713 13.8664 12.2658 13.8643 12.2596C13.8622 12.2535 13.8616 12.247 13.8624 12.2406V12.031C13.8616 12.0246 13.8622 12.0181 13.8643 12.0119C13.8664 12.0058 13.8698 12.0002 13.8744 11.9956C13.879 11.9911 13.8846 11.9876 13.8907 11.9855C13.8968 11.9834 13.9034 11.9828 13.9098 11.9837L14.6398 11.9969ZM3.01647 23.6296C3.09293 23.6279 3.1688 23.6432 3.23868 23.6742C3.30857 23.7052 3.37074 23.7513 3.42076 23.8091C3.5168 23.9165 3.56644 24.0575 3.55887 24.2013C3.55129 24.3451 3.48712 24.4801 3.38034 24.5769C3.28213 24.6697 3.15162 24.7206 3.01647 24.7189C2.87148 24.7177 2.73277 24.6596 2.63024 24.5571C2.52771 24.4546 2.46958 24.316 2.46837 24.171C2.46709 24.0944 2.48278 24.0184 2.51434 23.9486C2.54589 23.8787 2.59252 23.8167 2.65088 23.767C2.75091 23.6765 2.88159 23.6274 3.01647 23.6296ZM10.5663 25.0727C10.5254 25.6385 10.2758 26.1688 9.86573 26.561C9.44224 26.8927 8.94828 27.1229 8.42184 27.2341C8.39889 27.2424 8.37505 27.248 8.3508 27.2508C8.32808 27.2508 8.29651 27.2204 8.25608 27.1596C8.21443 27.0936 8.16052 27.0362 8.09725 26.9904C8.68247 26.9076 9.23443 26.6683 9.69477 26.2977C10.0185 25.9698 10.2091 25.5335 10.2296 25.0733L9.46144 25.0866C9.45502 25.0875 9.44849 25.0868 9.44235 25.0847C9.43622 25.0827 9.43064 25.0792 9.42606 25.0746C9.42148 25.07 9.41802 25.0645 9.41594 25.0583C9.41386 25.0522 9.41323 25.0457 9.41408 25.0393L9.42737 24.1866V22.3209L9.41408 21.4683C9.41323 21.4618 9.41386 21.4553 9.41594 21.4492C9.41802 21.443 9.42148 21.4375 9.42606 21.4329C9.43064 21.4283 9.43622 21.4249 9.44235 21.4228C9.44849 21.4207 9.45502 21.4201 9.46144 21.4209L10.3278 21.4342H11.5458L12.4018 21.4209C12.4357 21.4209 12.4526 21.4367 12.4526 21.4683L12.4393 22.3209V24.1849L12.4526 25.0375C12.4526 25.0691 12.4357 25.0849 12.4018 25.0849L11.5458 25.0716H11.4985V26.5321C11.4935 26.6042 11.5027 26.6766 11.5256 26.7451C11.5382 26.7656 11.5555 26.7828 11.5761 26.7951C11.5967 26.8075 11.62 26.8147 11.644 26.8161C11.8067 26.8378 11.9709 26.8469 12.135 26.8432C12.3162 26.8588 12.4981 26.8223 12.6594 26.7382C12.7066 26.7019 12.7463 26.6567 12.776 26.6051C12.8057 26.5534 12.825 26.4965 12.8326 26.4374C12.8606 26.2788 12.8753 26.1182 12.8765 25.9571C12.9394 26.0083 13.0075 26.0527 13.0798 26.0893C13.1341 26.1209 13.1613 26.1513 13.1613 26.1805C13.1603 26.2009 13.1579 26.2211 13.1543 26.2411C13.1419 26.4142 13.1066 26.5848 13.0492 26.7486C13.0129 26.8384 12.953 26.9167 12.876 26.9754C12.6519 27.1055 12.3931 27.1633 12.135 27.1411C11.9005 27.1477 11.6659 27.1318 11.4344 27.0938C11.2653 27.0511 11.1808 26.9123 11.1808 26.6776V25.0704L10.5663 25.0727ZM9.7404 24.802H12.1298V23.9136H9.74098L9.7404 24.802ZM9.7404 23.6475H12.1298V22.822H9.74098L9.7404 23.6475ZM9.7404 22.5506H12.1298V21.7188H9.74098L9.7404 22.5506ZM7.87547 25.5305V23.7618H7.71664L7.09057 23.775C7.08415 23.7759 7.07761 23.7753 7.07148 23.7732C7.06534 23.7711 7.05977 23.7676 7.05519 23.7631C7.05061 23.7585 7.04714 23.7529 7.04507 23.7468C7.04299 23.7406 7.04235 23.7341 7.04321 23.7277V23.5112C7.04235 23.5048 7.04299 23.4983 7.04507 23.4921C7.04714 23.486 7.05061 23.4804 7.05519 23.4759C7.05977 23.4713 7.06534 23.4678 7.07148 23.4657C7.07761 23.4637 7.08415 23.463 7.09057 23.4639L7.71664 23.4772H7.87547V21.8908H7.66582L6.98892 21.9041C6.95503 21.9041 6.93809 21.886 6.93809 21.8498V21.6334C6.93809 21.6018 6.95503 21.586 6.98892 21.586L7.66582 21.5993H8.37968L9.06004 21.586C9.06646 21.5852 9.07299 21.5858 9.07913 21.5879C9.08526 21.59 9.09084 21.5934 9.09542 21.598C9.1 21.6026 9.10346 21.6081 9.10554 21.6143C9.10762 21.6204 9.10825 21.6269 9.1074 21.6334V21.8498C9.1074 21.886 9.09161 21.9041 9.06004 21.9041L8.37968 21.8908H8.18677V23.4772H8.31903L8.94164 23.4639C8.94806 23.463 8.95459 23.4637 8.96073 23.4657C8.96686 23.4678 8.97244 23.4713 8.97702 23.4759C8.9816 23.4804 8.98506 23.486 8.98714 23.4921C8.98922 23.4983 8.98985 23.5048 8.989 23.5112V23.7277C8.98985 23.7341 8.98922 23.7406 8.98714 23.7468C8.98506 23.7529 8.9816 23.7585 8.97702 23.7631C8.97244 23.7676 8.96686 23.7711 8.96073 23.7732C8.95459 23.7753 8.94806 23.7759 8.94164 23.775L8.31903 23.7618H8.18677V25.3954C8.501 25.2583 8.80619 25.1014 9.10047 24.9255C9.09032 24.9916 9.08587 25.0584 9.08718 25.1253C9.08949 25.1522 9.09065 25.1715 9.09065 25.183C9.0885 25.2085 9.07953 25.2329 9.0647 25.2537C9.04986 25.2745 9.0297 25.291 9.00633 25.3013C8.49358 25.5884 7.96085 25.8382 7.41227 26.0489C7.32157 26.082 7.23336 26.1216 7.14832 26.1673C7.12997 26.1885 7.1049 26.2027 7.07728 26.2077C7.05457 26.2077 7.03435 26.1896 7.01664 26.1534C6.96815 26.0521 6.92854 25.9469 6.89824 25.8388C7.11434 25.7955 7.32675 25.7354 7.53355 25.6593C7.5786 25.6435 7.64059 25.6198 7.71953 25.5882L7.87547 25.5305ZM17.3474 23.5788L16.5925 23.6734C16.236 23.7208 15.9168 23.767 15.635 23.812C15.6284 23.8139 15.6216 23.815 15.6147 23.8154C15.592 23.8154 15.5785 23.7985 15.5743 23.7646L15.5495 23.5187C15.5476 23.5121 15.5464 23.5054 15.546 23.4985C15.546 23.4804 15.563 23.4714 15.5968 23.4714C15.705 23.4714 16.0265 23.4364 16.5614 23.3663L17.3093 23.2682C17.2619 22.9457 17.2225 22.5466 17.1909 22.0709C17.185 21.8001 17.1601 21.5301 17.1164 21.2627C17.2411 21.2607 17.3658 21.2698 17.4889 21.2899C17.5451 21.2968 17.5732 21.317 17.5732 21.3505C17.5732 21.3574 17.5609 21.4015 17.5363 21.4827C17.5192 21.5695 17.5124 21.6581 17.5161 21.7465C17.5161 21.8254 17.5184 21.9268 17.523 22.0507C17.5615 22.5807 17.5987 22.973 17.6345 23.2278L18.8052 23.0823C19.236 23.028 19.5598 22.983 19.7766 22.9472C19.7843 22.9451 19.7923 22.944 19.8003 22.9438C19.8161 22.9438 19.8263 22.9584 19.8309 22.9876L19.8546 23.2185V23.2422C19.8546 23.2534 19.84 23.2613 19.8107 23.2659C19.7995 23.2682 19.7048 23.2805 19.5265 23.3028C19.3055 23.3275 19.0732 23.3546 18.8294 23.3842L17.6789 23.5297C17.7755 24.2238 17.9716 24.9004 18.2611 25.5386C18.4193 25.9025 18.6404 26.2357 18.9143 26.5229C19.0446 26.6816 19.2305 26.7848 19.4341 26.8115C19.6101 26.8115 19.7256 26.4191 19.7807 25.6344C19.8402 25.692 19.9074 25.741 19.9805 25.7799C20.0413 25.8092 20.0718 25.8419 20.0718 25.878C20.0706 25.9007 20.0683 25.9232 20.0648 25.9456C19.979 26.7688 19.7737 27.1804 19.4491 27.1804C19.2909 27.1644 19.1376 27.1158 18.999 27.0379C18.8603 26.9599 18.7393 26.8541 18.6435 26.7272C18.3686 26.4228 18.1431 26.0772 17.9752 25.7031C17.6718 25.0255 17.4608 24.3102 17.348 23.5765L17.3474 23.5788ZM15.1377 22.8924V26.1742L15.151 27.2531C15.151 27.2847 15.1329 27.3004 15.0967 27.3004H14.846C14.8396 27.3013 14.8331 27.3007 14.8269 27.2986C14.8208 27.2965 14.8152 27.293 14.8106 27.2885C14.8061 27.2839 14.8026 27.2783 14.8005 27.2722C14.7984 27.2661 14.7978 27.2595 14.7987 27.2531L14.8119 26.1742V24.3846C14.8119 24.0556 14.8187 23.7208 14.8322 23.3802C14.5774 23.7538 14.2921 24.1056 13.9791 24.432C13.9452 24.4705 13.9192 24.4897 13.9011 24.4897C13.883 24.4897 13.8605 24.4705 13.8336 24.432C13.7938 24.3654 13.7395 24.3088 13.6747 24.2663C14.4281 23.5152 15.0104 22.6104 15.382 21.6137C15.4376 21.4672 15.4718 21.3134 15.4836 21.1571C15.6 21.1916 15.7132 21.2358 15.8221 21.2893C15.8648 21.3097 15.8862 21.3322 15.8862 21.3568C15.8856 21.3746 15.8811 21.392 15.8729 21.4078C15.8647 21.4236 15.8531 21.4374 15.8388 21.4481C15.7665 21.5178 15.7159 21.607 15.6933 21.7049C15.5396 22.1135 15.354 22.5094 15.1383 22.8889L15.1377 22.8924ZM18.4916 21.5393C18.7822 21.7625 19.0456 22.019 19.2765 22.3036C19.2857 22.3127 19.2916 22.3247 19.2932 22.3376C19.2932 22.3534 19.273 22.3794 19.2326 22.4156L19.1448 22.49C19.1201 22.5146 19.09 22.5332 19.057 22.5443C19.0481 22.5443 19.0379 22.5376 19.0264 22.5241C18.8131 22.2256 18.5561 21.9609 18.264 21.739C18.2482 21.7255 18.2403 21.7142 18.2403 21.7049C18.2403 21.6957 18.2628 21.6697 18.3079 21.627L18.3991 21.5595C18.415 21.5411 18.4362 21.5282 18.4598 21.5225C18.4716 21.5239 18.4827 21.5285 18.4921 21.5358L18.4916 21.5393ZM22.1192 22.703H21.8449L20.9208 22.7105C20.9143 22.7114 20.9078 22.7108 20.9017 22.7087C20.8955 22.7066 20.89 22.7032 20.8854 22.6986C20.8808 22.694 20.8773 22.6884 20.8753 22.6823C20.8732 22.6762 20.8726 22.6696 20.8734 22.6632V22.4219C20.8726 22.4155 20.8732 22.409 20.8753 22.4028C20.8773 22.3967 20.8808 22.3911 20.8854 22.3865C20.89 22.382 20.8955 22.3785 20.9017 22.3764C20.9078 22.3744 20.9143 22.3737 20.9208 22.3746L21.8449 22.3878H23.618V21.8683C23.6272 21.6179 23.609 21.3672 23.5637 21.1207C23.7327 21.1296 23.859 21.1409 23.9425 21.1548C23.9945 21.1636 24.0205 21.1829 24.0205 21.2125C24.013 21.256 23.9993 21.2981 23.9801 21.3378C23.9444 21.5124 23.932 21.691 23.9431 21.8689V22.3884H25.8185L26.7489 22.3752C26.7553 22.3743 26.7619 22.3749 26.768 22.377C26.7741 22.3791 26.7797 22.3825 26.7843 22.3871C26.7889 22.3917 26.7923 22.3973 26.7944 22.4034C26.7965 22.4095 26.7971 22.4161 26.7963 22.4225V22.6661C26.7971 22.6725 26.7965 22.679 26.7944 22.6852C26.7923 22.6913 26.7889 22.6969 26.7843 22.7015C26.7797 22.706 26.7741 22.7095 26.768 22.7116C26.7619 22.7137 26.7553 22.7143 26.7489 22.7134L25.8185 22.7002H25.4459C25.2154 23.6821 24.7324 24.5869 24.0448 25.325C24.884 26.0221 25.8523 26.5474 26.8944 26.8709C26.8245 26.938 26.766 27.016 26.7212 27.1019C26.685 27.1604 26.6569 27.1896 26.6369 27.1896C26.6075 27.1849 26.5791 27.1757 26.5525 27.1625C25.5472 26.7945 24.6155 26.2505 23.801 25.5559C22.9989 26.2453 22.0749 26.7789 21.0767 27.129C21.0472 27.1399 21.0166 27.1478 20.9855 27.1527C20.9608 27.1527 20.9337 27.1278 20.904 27.0782C20.8616 26.9958 20.7973 26.9266 20.718 26.8785C21.758 26.5534 22.7222 26.0234 23.5539 25.3198C23.2221 24.9756 22.9386 24.588 22.7112 24.1676C22.4636 23.7001 22.2654 23.2081 22.1198 22.6996L22.1192 22.703ZM22.4507 22.703C22.5861 23.174 22.7722 23.6288 23.0058 24.0596C23.2184 24.4413 23.4838 24.7911 23.7941 25.0987C24.1401 24.751 24.4281 24.3501 24.6472 23.9113C24.835 23.5229 24.9836 23.1168 25.0907 22.699L22.4507 22.703ZM3.01647 34.0205C3.09293 34.0188 3.1688 34.0341 3.23868 34.0651C3.30857 34.0961 3.37074 34.1422 3.42076 34.2C3.5168 34.3074 3.56644 34.4484 3.55887 34.5922C3.55129 34.7361 3.48712 34.8711 3.38034 34.9678C3.28213 35.0606 3.15162 35.1115 3.01647 35.1098C2.87148 35.1086 2.73277 35.0505 2.63024 34.948C2.52771 34.8455 2.46958 34.7069 2.46837 34.562C2.46709 34.4853 2.48278 34.4093 2.51434 34.3395C2.54589 34.2696 2.59252 34.2076 2.65088 34.1579C2.75091 34.0674 2.88159 34.0183 3.01647 34.0205ZM8.29593 36.9646V37.4212C8.29593 37.4527 8.28245 37.4685 8.2555 37.4685H8.00484C7.99842 37.4694 7.99189 37.4687 7.98575 37.4667C7.97962 37.4646 7.97404 37.4611 7.96946 37.4566C7.96488 37.452 7.96142 37.4464 7.95934 37.4403C7.95726 37.4341 7.95663 37.4276 7.95748 37.4212L7.97077 35.0769V33.7365L7.95748 32.0116C7.95663 32.0051 7.95726 31.9986 7.95934 31.9925C7.96142 31.9864 7.96488 31.9808 7.96946 31.9762C7.97404 31.9716 7.97962 31.9682 7.98575 31.9661C7.99189 31.964 7.99842 31.9634 8.00484 31.9642L8.96936 31.9775H10.9221L11.8866 31.9642C11.893 31.9634 11.8996 31.964 11.9057 31.9661C11.9118 31.9682 11.9174 31.9716 11.922 31.9762C11.9266 31.9808 11.93 31.9864 11.9321 31.9925C11.9342 31.9986 11.9348 32.0051 11.934 32.0116L11.9207 33.5777V35.0786L11.934 37.416C11.9348 37.4224 11.9342 37.4289 11.9321 37.4351C11.93 37.4412 11.9266 37.4468 11.922 37.4514C11.9174 37.4559 11.9118 37.4594 11.9057 37.4615C11.8996 37.4635 11.893 37.4642 11.8866 37.4633H11.6429C11.6159 37.4633 11.6024 37.4476 11.6024 37.416V36.9634L8.29593 36.9646ZM8.29593 34.2589H11.6024V32.2817H8.29593V34.2589ZM8.29593 34.5475V36.665H11.6024V34.5481L8.29593 34.5475ZM16.6468 32.982V32.3227C16.6535 32.0479 16.6376 31.7729 16.5995 31.5007C16.7266 31.5045 16.8533 31.518 16.9784 31.5411C17.0303 31.5499 17.0563 31.5657 17.0563 31.5884C17.0555 31.6152 17.0499 31.6416 17.0396 31.6664L17.0124 31.7339C16.9821 31.9263 16.9707 32.1212 16.9784 32.3158V32.982H18.8161L19.757 32.9687C19.7909 32.9687 19.8078 32.9845 19.8078 33.016V33.2527C19.8078 33.2843 19.7909 33.3 19.757 33.3L18.8161 33.2868H17.1453C17.8218 34.518 18.8393 35.528 20.0758 36.1956C20.0146 36.2483 19.963 36.3112 19.9233 36.3815C19.8987 36.4358 19.8762 36.4629 19.8557 36.4629C19.8231 36.4551 19.7922 36.4414 19.7645 36.4225C18.571 35.7039 17.6001 34.6688 16.9593 33.4322C16.9728 35.1121 16.9795 35.9555 16.9795 35.9624H17.5074L18.3807 35.9457C18.4122 35.9457 18.428 35.9626 18.428 35.9965V36.2164C18.428 36.2503 18.4122 36.2672 18.3807 36.2672L17.5074 36.2539H16.9795C16.993 37.0456 16.9997 37.4999 16.9997 37.6169C17.0006 37.6233 16.9999 37.6298 16.9979 37.636C16.9958 37.6421 16.9923 37.6477 16.9877 37.6522C16.9832 37.6568 16.9776 37.6603 16.9715 37.6624C16.9653 37.6644 16.9588 37.6651 16.9524 37.6642H16.6751C16.6687 37.6651 16.6622 37.6644 16.656 37.6624C16.6499 37.6603 16.6443 37.6568 16.6398 37.6522C16.6352 37.6477 16.6317 37.6421 16.6296 37.636C16.6276 37.6298 16.6269 37.6233 16.6278 37.6169C16.6278 37.6034 16.6289 37.5324 16.6312 37.4039C16.6401 37.0025 16.6457 36.6192 16.648 36.2539H16.1859L15.3196 36.2672C15.3127 36.2682 15.3057 36.2675 15.2991 36.2653C15.2925 36.2631 15.2865 36.2594 15.2816 36.2545C15.2766 36.2495 15.2729 36.2435 15.2707 36.2369C15.2685 36.2303 15.2678 36.2233 15.2688 36.2164V35.9965C15.2678 35.9896 15.2685 35.9826 15.2707 35.976C15.2729 35.9694 15.2766 35.9634 15.2816 35.9584C15.2865 35.9535 15.2925 35.9498 15.2991 35.9476C15.3057 35.9454 15.3127 35.9447 15.3196 35.9457L16.1859 35.9624H16.6561L16.6694 33.4801C16.0782 34.6956 15.1654 35.7261 14.0299 36.46C14.0053 36.4806 13.9766 36.4955 13.9456 36.5039C13.9252 36.5039 13.9004 36.4779 13.8711 36.426C13.8317 36.3572 13.7774 36.298 13.7123 36.2528C14.3268 35.8903 14.8797 35.4323 15.3502 34.8962C15.7921 34.41 16.1696 33.8691 16.4736 33.2868H14.9557L14.0218 33.3C13.988 33.3 13.971 33.2843 13.971 33.2527V33.016C13.971 32.9845 13.988 32.9687 14.0218 32.9687L14.9557 32.982H16.6468ZM23.6047 34.7478H22.4888L21.4902 34.7611C21.4838 34.762 21.4773 34.7613 21.4711 34.7593C21.465 34.7572 21.4594 34.7537 21.4549 34.7491C21.4503 34.7446 21.4468 34.739 21.4447 34.7329C21.4427 34.7267 21.442 34.7202 21.4429 34.7138L21.4562 34.125V33.4086L21.4406 32.8128C21.4406 32.7859 21.4564 32.7724 21.4879 32.7724L22.4865 32.7857H23.6538V32.3158C23.6553 32.0463 23.636 31.777 23.596 31.5105C23.7218 31.5164 23.8472 31.5299 23.9714 31.5509C24.0323 31.5598 24.0627 31.5811 24.0627 31.615C24.0502 31.6606 24.0332 31.7049 24.0119 31.7472C23.9799 31.9235 23.9685 32.1028 23.9778 32.2817V32.7857H25.1993L26.1979 32.7724C26.2295 32.7724 26.2453 32.7859 26.2453 32.8128L26.2343 33.4086V34.1255L26.2476 34.7144C26.2484 34.7208 26.2478 34.7273 26.2457 34.7334C26.2436 34.7396 26.2402 34.7451 26.2356 34.7497C26.231 34.7543 26.2254 34.7578 26.2193 34.7598C26.2132 34.7619 26.2066 34.7625 26.2002 34.7617L25.2016 34.7484H23.931C23.9084 35.0158 23.8573 35.2799 23.7785 35.5364C23.7031 35.7768 23.5948 36.0056 23.4568 36.2164C24.4893 36.8358 25.6657 37.1749 26.8696 37.2001C26.8023 37.2606 26.7483 37.3343 26.7108 37.4166C26.6792 37.4889 26.6442 37.5251 26.6057 37.5251C26.5853 37.5239 26.5651 37.5215 26.545 37.5182C25.3807 37.4544 24.2519 37.0946 23.2657 36.4727C22.6917 37.0549 21.9547 37.4494 21.1518 37.6042C21.1252 37.6122 21.098 37.6178 21.0704 37.6209C21.0434 37.6209 21.013 37.5894 20.9791 37.5262C20.9388 37.4525 20.8821 37.3889 20.8133 37.3404C21.6417 37.2241 22.4136 36.8543 23.0231 36.2817C22.6808 35.9793 22.3904 35.6228 22.1637 35.2264C22.1567 35.2175 22.1521 35.207 22.1504 35.1958C22.1504 35.1846 22.1752 35.1654 22.2249 35.1381L22.3433 35.0671C22.3621 35.0559 22.3826 35.0479 22.4039 35.0434C22.4151 35.0434 22.4253 35.0513 22.4345 35.0671C22.6334 35.43 22.8959 35.7542 23.2096 36.0242C23.3165 35.8603 23.4008 35.6829 23.4603 35.4966C23.5346 35.2527 23.5826 35.0018 23.6047 34.7478ZM23.6249 34.4638C23.6453 34.1559 23.6555 33.6914 23.6555 33.0703H21.775V34.4638H23.6249ZM23.9801 33.0703V33.5321C23.9801 33.9131 23.9734 34.2231 23.9599 34.4621H25.9166V33.0703H23.9801ZM3.00954 42.5751C3.12924 42.5747 3.2453 42.6162 3.33756 42.6924C3.42982 42.7687 3.49246 42.8748 3.51462 42.9924C3.53677 43.1099 3.51703 43.2315 3.45883 43.3361C3.40063 43.4406 3.30763 43.5215 3.19599 43.5647C3.08436 43.6078 2.96112 43.6106 2.84768 43.5724C2.73424 43.5342 2.63776 43.4575 2.57498 43.3556C2.51221 43.2538 2.4871 43.1332 2.50403 43.0147C2.52095 42.8963 2.57883 42.7875 2.66763 42.7073C2.76034 42.6209 2.8828 42.5735 3.00954 42.5751ZM1.14172 44.4454C1.2148 44.4443 1.28724 44.4592 1.35391 44.4891C1.42059 44.519 1.47986 44.5632 1.52753 44.6186C1.61401 44.7113 1.66139 44.8337 1.65979 44.9604C1.66152 45.0321 1.64723 45.1033 1.61796 45.1688C1.58868 45.2343 1.54516 45.2925 1.49057 45.3391C1.39581 45.4251 1.27207 45.4723 1.14403 45.4713C1.01106 45.4668 0.885035 45.4109 0.792552 45.3153C0.700068 45.2197 0.648369 45.0919 0.648369 44.9589C0.648369 44.826 0.700068 44.6982 0.792552 44.6026C0.885035 44.507 1.01106 44.4511 1.14403 44.4466L1.14172 44.4454ZM4.88776 44.4454C4.95982 44.4444 5.03121 44.4594 5.09675 44.4893C5.16228 44.5193 5.22032 44.5634 5.26664 44.6186C5.3512 44.7122 5.39721 44.8343 5.39544 44.9604C5.39731 45.0318 5.38343 45.1027 5.35478 45.1682C5.32613 45.2336 5.28342 45.292 5.22968 45.3391C5.13699 45.4255 5.01451 45.4729 4.88776 45.4713C4.81504 45.4726 4.7429 45.4582 4.67629 45.429C4.60968 45.3998 4.55021 45.3565 4.50195 45.3021C4.45687 45.2525 4.42204 45.1944 4.39949 45.1313C4.37693 45.0681 4.36709 45.0012 4.37052 44.9342C4.37396 44.8673 4.3906 44.8016 4.4195 44.7411C4.4484 44.6806 4.48899 44.6264 4.53892 44.5817C4.63326 44.493 4.75825 44.4442 4.88776 44.4454ZM3.00954 46.3158C3.08214 46.3145 3.15413 46.3293 3.22027 46.3593C3.28641 46.3892 3.34504 46.4335 3.39189 46.489C3.47835 46.5835 3.52564 46.7073 3.52415 46.8354C3.52588 46.9071 3.51159 46.9783 3.48231 47.0438C3.45304 47.1093 3.40952 47.1675 3.35492 47.214C3.25989 47.2993 3.13604 47.3453 3.00839 47.3428C2.93701 47.3442 2.86617 47.3301 2.80076 47.3015C2.73535 47.2729 2.67693 47.2304 2.62951 47.1771C2.54235 47.0849 2.49486 46.9622 2.49725 46.8354C2.49616 46.7632 2.51073 46.6917 2.53994 46.6257C2.56915 46.5598 2.61232 46.5009 2.66647 46.4532C2.75825 46.364 2.88154 46.3146 3.00954 46.3158ZM3.2192 44.9592L5.83149 47.5639L5.6253 47.77L3.00954 45.1665L0.410534 47.7711L0.204346 47.565L2.80336 44.9604L0.21763 42.3753L0.427283 42.1658L3.00954 44.7502L5.59527 42.1646L5.80492 42.3742L3.2192 44.9592ZM9.85187 45.9337V45.2242L8.90756 45.2375C8.87599 45.2375 8.8602 45.2194 8.8602 45.1832V45.0008C8.85935 44.9944 8.85998 44.9878 8.86206 44.9817C8.86414 44.9756 8.8676 44.97 8.87218 44.9654C8.87676 44.9608 8.88234 44.9574 8.88847 44.9553C8.89461 44.9532 8.90114 44.9526 8.90756 44.9534L9.85187 44.9667V44.8951C9.85433 44.733 9.84079 44.5709 9.81144 44.4114C9.91826 44.4182 10.0245 44.4317 10.1297 44.4518C10.1793 44.4606 10.2042 44.4799 10.2042 44.5095C10.2024 44.5438 10.1906 44.5767 10.1701 44.6042C10.1407 44.6794 10.129 44.7604 10.136 44.8409V44.9661H11.2426V44.9257C11.2472 44.7556 11.2336 44.5855 11.2022 44.4183C11.2723 44.4229 11.3807 44.4343 11.5274 44.4524C11.577 44.4612 11.6019 44.4826 11.6019 44.5164C11.5967 44.5499 11.5851 44.582 11.5678 44.6111C11.5411 44.6754 11.5295 44.7449 11.5337 44.8143V44.9667H11.6117L12.5525 44.9534C12.559 44.9526 12.5655 44.9532 12.5716 44.9553C12.5778 44.9574 12.5833 44.9608 12.5879 44.9654C12.5925 44.97 12.596 44.9756 12.598 44.9817C12.6001 44.9878 12.6007 44.9944 12.5999 45.0008V45.1832C12.5999 45.2194 12.5841 45.2375 12.5525 45.2375L11.6123 45.2242H11.5343V45.9342H11.8658L12.8436 45.921C12.85 45.9201 12.8566 45.9207 12.8627 45.9228C12.8688 45.9249 12.8744 45.9283 12.879 45.9329C12.8836 45.9375 12.887 45.9431 12.8891 45.9492C12.8912 45.9553 12.8918 45.9619 12.891 45.9683V46.1415C12.891 46.1776 12.8752 46.1957 12.8436 46.1957L11.8658 46.1825H9.63933L8.66152 46.1957C8.62764 46.1957 8.6107 46.1776 8.6107 46.1415V45.9683C8.6107 45.9367 8.62764 45.921 8.66152 45.921L9.63933 45.9342L9.85187 45.9337ZM10.136 45.2236V45.9337H11.2426V45.2242L10.136 45.2236ZM10.0783 42.4296H9.23966L8.65748 42.4429C8.6511 42.4436 8.64464 42.4429 8.63858 42.4408C8.63252 42.4387 8.62702 42.4352 8.62251 42.4307C8.61799 42.4261 8.61458 42.4205 8.61254 42.4145C8.61049 42.4084 8.60986 42.4019 8.6107 42.3955V42.2097C8.6107 42.1758 8.62649 42.1589 8.65806 42.1589L9.24024 42.1721H9.76813L10.3364 42.1589C10.3429 42.158 10.3494 42.1586 10.3555 42.1607C10.3617 42.1628 10.3672 42.1663 10.3718 42.1708C10.3764 42.1754 10.3799 42.181 10.3819 42.1871C10.384 42.1933 10.3847 42.1998 10.3838 42.2062L10.3705 42.6022V42.8187L10.3838 43.2228C10.3847 43.2292 10.384 43.2357 10.3819 43.2419C10.3799 43.248 10.3764 43.2536 10.3718 43.2581C10.3672 43.2627 10.3617 43.2662 10.3555 43.2683C10.3494 43.2703 10.3429 43.271 10.3364 43.2701L9.76813 43.2568H8.99304V43.5611C8.978 43.6785 8.99916 43.7977 9.05369 43.9028C9.23561 43.9577 9.42658 43.9761 9.61565 43.9571C9.81981 43.9829 10.0272 43.956 10.218 43.8791C10.2795 43.76 10.3057 43.6259 10.2937 43.4924C10.3436 43.5452 10.4051 43.5857 10.4733 43.6107C10.523 43.6265 10.5478 43.6525 10.5478 43.6886C10.547 43.7136 10.5447 43.7384 10.5409 43.7631C10.5278 43.8906 10.4718 44.0098 10.3821 44.1014C10.1293 44.2046 9.85469 44.2429 9.58331 44.2128C9.33085 44.2415 9.07521 44.2078 8.83883 44.1147C8.78481 44.0762 8.74437 44.0217 8.72332 43.9588C8.69879 43.8513 8.6885 43.7411 8.69271 43.6309V43.3019L8.67596 43.0381C8.67596 43.0065 8.69406 42.9907 8.73025 42.9907L9.23793 43.004H10.0771L10.0783 42.4296ZM12.3527 42.4296H11.5002L10.9227 42.4429C10.8865 42.4429 10.8684 42.4271 10.8684 42.3955V42.2097C10.8684 42.1758 10.8865 42.1589 10.9227 42.1589L11.5002 42.1721H12.042L12.6103 42.1589C12.6167 42.158 12.6232 42.1586 12.6294 42.1607C12.6355 42.1628 12.6411 42.1663 12.6457 42.1708C12.6502 42.1754 12.6537 42.181 12.6558 42.1871C12.6579 42.1933 12.6585 42.1998 12.6576 42.2062L12.6444 42.6022V42.8187L12.6576 43.2228C12.6585 43.2292 12.6579 43.2357 12.6558 43.2419C12.6537 43.248 12.6502 43.2536 12.6457 43.2581C12.6411 43.2627 12.6355 43.2662 12.6294 43.2683C12.6232 43.2703 12.6167 43.271 12.6103 43.2701L12.042 43.2568H11.2363V43.568C11.2363 43.7508 11.26 43.8624 11.3073 43.9028C11.5098 43.9586 11.7208 43.977 11.9299 43.9571C12.1269 43.9799 12.3264 43.9555 12.5121 43.8861C12.5765 43.7658 12.6036 43.6292 12.5901 43.4935C12.6459 43.5419 12.7086 43.5818 12.776 43.6119C12.8346 43.6365 12.8638 43.6625 12.8638 43.6898C12.8509 43.8414 12.7919 43.9855 12.6946 44.1025C12.4229 44.206 12.1307 44.2442 11.8416 44.214C11.5848 44.2425 11.3249 44.2088 11.0838 44.1158C11.0332 44.0757 10.9956 44.0214 10.9758 43.96C10.9513 43.8525 10.941 43.7422 10.9452 43.6321V43.3019L10.9319 43.0381C10.931 43.0316 10.9317 43.0251 10.9338 43.019C10.9358 43.0128 10.9393 43.0073 10.9439 43.0027C10.9485 42.9981 10.954 42.9946 10.9602 42.9926C10.9663 42.9905 10.9728 42.9899 10.9793 42.9907L11.4991 43.004H12.3521L12.3527 42.4296ZM13.1884 47.4455C13.1328 47.5144 13.0946 47.5955 13.077 47.6822C13.0755 47.7186 13.0636 47.7539 13.0429 47.7838C13.0125 47.7951 12.9805 47.8019 12.9482 47.804C11.9713 47.8648 11.1479 47.8952 10.4779 47.8952C9.89029 47.935 9.30069 47.8545 8.74527 47.6585C8.45125 47.5123 8.22228 47.2618 8.10303 46.956C7.86751 47.2037 7.61777 47.4375 7.35509 47.6562C7.29592 47.6952 7.24427 47.7444 7.20261 47.8017C7.1799 47.8421 7.15391 47.8623 7.12464 47.8623C7.10424 47.8623 7.0794 47.8442 7.05014 47.8081C6.98302 47.7241 6.92494 47.6334 6.87687 47.5373C7.02727 47.4636 7.17004 47.3752 7.30311 47.2735C7.53848 47.0928 7.75711 46.8913 7.95633 46.6714V44.8882H7.39436L6.92423 44.9015C6.91781 44.9023 6.91128 44.9017 6.90514 44.8996C6.89901 44.8976 6.89343 44.8941 6.88885 44.8895C6.88427 44.8849 6.88081 44.8794 6.87873 44.8732C6.87665 44.8671 6.87602 44.8606 6.87687 44.8542V44.6232C6.87602 44.6168 6.87665 44.6103 6.87873 44.6042C6.88081 44.598 6.88427 44.5925 6.88885 44.5879C6.89343 44.5833 6.89901 44.5798 6.90514 44.5778C6.91128 44.5757 6.91781 44.575 6.92423 44.5759L7.39436 44.5892H7.73281L8.22662 44.5759C8.23304 44.575 8.23958 44.5757 8.24571 44.5778C8.25185 44.5798 8.25742 44.5833 8.262 44.5879C8.26658 44.5925 8.27005 44.598 8.27213 44.6042C8.2742 44.6103 8.27484 44.6168 8.27398 44.6232L8.2607 45.2761V46.6899C8.3086 46.8458 8.38878 46.9899 8.49605 47.1128C8.60331 47.2358 8.73526 47.3348 8.88331 47.4034C9.33851 47.5572 9.81932 47.6209 10.2989 47.591C11.2014 47.591 12.1642 47.5425 13.1884 47.4455ZM10.0038 46.291C10.0814 46.3262 10.1532 46.3729 10.2169 46.4295C10.2306 46.4379 10.2423 46.4493 10.2511 46.4628C10.2599 46.4763 10.2656 46.4915 10.2677 46.5075V46.5207C10.2608 46.5454 10.2304 46.5656 10.1765 46.5814C10.141 46.5956 10.108 46.6151 10.0783 46.6391C10.0221 46.6776 9.99048 46.7001 9.98355 46.7066C9.68682 46.9045 9.37035 47.071 9.03925 47.2037C9.01266 47.2169 8.98424 47.226 8.95492 47.2308C8.93452 47.2308 8.90525 47.206 8.86713 47.1563C8.83047 47.1025 8.78027 47.0593 8.72159 47.031C9.078 46.9132 9.418 46.7507 9.73347 46.5473C9.83974 46.4793 9.9319 46.3915 10.0049 46.2887L10.0038 46.291ZM7.45212 42.1744C7.73938 42.4672 7.9967 42.7878 8.22027 43.1316C8.22664 43.1392 8.2303 43.1488 8.23067 43.1587C8.23067 43.1722 8.2093 43.1958 8.16656 43.2297L8.0753 43.2972C8.05061 43.3218 8.02057 43.3404 7.98751 43.3515C7.97404 43.3515 7.95941 43.3413 7.94362 43.3209C7.73763 42.9679 7.48874 42.6418 7.20261 42.3499C7.19547 42.3425 7.19083 42.333 7.18933 42.3228C7.18933 42.3047 7.21301 42.2811 7.26037 42.2518L7.3418 42.1975C7.36374 42.1785 7.389 42.1636 7.41631 42.1537C7.43049 42.1551 7.44365 42.1616 7.45327 42.1721L7.45212 42.1744ZM12.809 47.0386C12.7575 47.083 12.715 47.1369 12.6836 47.1973C12.6521 47.2604 12.6249 47.292 12.6022 47.292C12.5751 47.2882 12.5488 47.2802 12.5242 47.2683C12.0524 47.0731 11.6086 46.816 11.2045 46.504C11.1887 46.4905 11.1808 46.4792 11.1808 46.4699C11.1808 46.4607 11.1989 46.4382 11.2351 46.4024L11.3062 46.3383C11.3354 46.3091 11.3568 46.2944 11.3703 46.2944C11.3871 46.2972 11.4026 46.3056 11.4142 46.3181C11.8362 46.6335 12.308 46.8762 12.8101 47.0362L12.809 47.0386ZM18.1121 44.539C18.1912 45.0625 18.3426 45.5724 18.562 46.0543C18.7868 46.5515 19.1102 46.9979 19.5127 47.3664C19.6603 47.4953 19.8174 47.6129 19.9828 47.718C19.9083 47.7698 19.8431 47.8339 19.7899 47.9073C19.7606 47.9524 19.7381 47.9749 19.7223 47.9749C19.6939 47.9667 19.6674 47.953 19.6444 47.9345C19.1287 47.5179 18.7008 47.0032 18.3853 46.4203C18.0699 45.8374 17.8732 45.1978 17.8066 44.5384H16.8236C16.81 44.9868 16.7614 45.4334 16.678 45.8742C16.5275 46.6383 16.1812 47.3504 15.6731 47.9408C15.6415 47.9812 15.619 48.0014 15.6055 48.0014C15.592 48.0014 15.566 47.9812 15.5275 47.9408C15.4715 47.8809 15.4017 47.8355 15.3242 47.8086C15.8759 47.2377 16.2457 46.5161 16.3869 45.7351C16.4577 45.3397 16.4973 44.9394 16.5053 44.5378C16.5142 44.3192 16.5186 43.8959 16.5186 43.2678L16.5053 42.3817C16.5045 42.3753 16.5051 42.3687 16.5072 42.3626C16.5093 42.3565 16.5127 42.3509 16.5173 42.3463C16.5219 42.3418 16.5275 42.3383 16.5336 42.3362C16.5397 42.3341 16.5463 42.3335 16.5527 42.3344L17.4057 42.3476H18.614L19.4636 42.3344C19.4975 42.3344 19.5144 42.3501 19.5144 42.3817L19.5011 43.0744V44.1678L19.5144 44.8882C19.5154 44.8951 19.5147 44.9021 19.5125 44.9087C19.5103 44.9153 19.5066 44.9213 19.5016 44.9263C19.4967 44.9312 19.4907 44.9349 19.4841 44.9371C19.4775 44.9393 19.4705 44.94 19.4636 44.939H19.2366C19.205 44.939 19.1892 44.9221 19.1892 44.8882V44.5367L18.1121 44.539ZM19.1881 44.2503V42.6322H16.8374V43.2886C16.8374 43.7373 16.8351 44.0564 16.8305 44.2457L19.1881 44.2503ZM14.8633 45.5203C14.6785 45.5992 14.486 45.6748 14.2858 45.7472C14.1918 45.776 14.1044 45.8231 14.0288 45.8857C14.0174 45.8992 14.0035 45.9104 13.9879 45.9185C13.9722 45.9266 13.9551 45.9316 13.9375 45.9331C13.9148 45.9331 13.8946 45.915 13.8769 45.8788C13.8295 45.7751 13.7877 45.6689 13.7515 45.5607C13.9563 45.5211 14.1577 45.4657 14.3539 45.3951L14.8616 45.2057V43.6303H14.5503L13.8497 43.6436C13.8428 43.6446 13.8358 43.6439 13.8292 43.6417C13.8226 43.6395 13.8166 43.6358 13.8117 43.6309C13.8067 43.6259 13.803 43.6199 13.8008 43.6133C13.7986 43.6067 13.7979 43.5997 13.7989 43.5928V43.3729C13.7979 43.366 13.7986 43.359 13.8008 43.3524C13.803 43.3458 13.8067 43.3398 13.8117 43.3348C13.8166 43.3299 13.8226 43.3262 13.8292 43.324C13.8358 43.3218 13.8428 43.3211 13.8497 43.3221L14.5503 43.3388H14.8616V42.7038C14.8695 42.4378 14.8525 42.1717 14.8108 41.9089C14.9335 41.9134 15.0557 41.9269 15.1764 41.9493C15.2237 41.9562 15.2474 41.972 15.2474 41.9967C15.2415 42.0427 15.2278 42.0874 15.207 42.1288C15.1797 42.3169 15.1706 42.5071 15.1798 42.6969V43.3359H15.2954L15.9959 43.3192C16.0028 43.3182 16.0099 43.3189 16.0165 43.3211C16.0231 43.3233 16.0291 43.327 16.034 43.3319C16.0389 43.3369 16.0426 43.3429 16.0448 43.3495C16.0471 43.3561 16.0477 43.3631 16.0468 43.37V43.5899C16.0477 43.5968 16.0471 43.6038 16.0448 43.6104C16.0426 43.617 16.0389 43.623 16.034 43.628C16.0291 43.6329 16.0231 43.6366 16.0165 43.6388C16.0099 43.641 16.0028 43.6417 15.9959 43.6407L15.2954 43.6274H15.1798V45.0585C15.5452 44.9007 15.8521 44.7529 16.1005 44.6152C16.0958 44.6713 16.0935 44.721 16.0935 44.7641V44.8316C16.0957 44.8462 16.0969 44.8608 16.097 44.8755C16.097 44.9228 16.061 44.9658 15.989 45.0042C15.8042 45.0966 15.5347 45.2217 15.1804 45.3795V46.4382L15.1874 47.3716C15.1994 47.4632 15.1908 47.5563 15.1621 47.6442C15.1334 47.732 15.0854 47.8122 15.0216 47.8791C14.8409 47.9711 14.6378 48.0098 14.4359 47.9905H14.2939C14.2576 47.9953 14.2207 47.9882 14.1888 47.9703C14.1728 47.9418 14.1613 47.911 14.1547 47.8791C14.1262 47.7951 14.0864 47.7155 14.0363 47.6424C14.2162 47.6618 14.3971 47.6709 14.578 47.6695C14.6554 47.6786 14.7332 47.6568 14.7946 47.6089C14.8484 47.5321 14.8724 47.4383 14.8622 47.3451L14.8633 45.5203ZM25.5944 42.6657H21.805L20.8809 42.679C20.8745 42.6798 20.868 42.6792 20.8618 42.6771C20.8557 42.6751 20.8501 42.6716 20.8455 42.667C20.841 42.6624 20.8375 42.6569 20.8354 42.6507C20.8333 42.6446 20.8327 42.6381 20.8336 42.6316V42.388C20.8327 42.3816 20.8333 42.3751 20.8354 42.369C20.8375 42.3628 20.841 42.3573 20.8455 42.3527C20.8501 42.3481 20.8557 42.3446 20.8618 42.3426C20.868 42.3405 20.8745 42.3399 20.8809 42.3407L21.805 42.354H25.815L26.7356 42.3407C26.7695 42.3407 26.7864 42.3565 26.7864 42.388V42.6265C26.7864 42.658 26.7695 42.6738 26.7356 42.6738L25.9334 42.6605V46.026L25.9467 47.296C25.9574 47.3862 25.9468 47.4776 25.9156 47.5628C25.8844 47.6481 25.8335 47.7248 25.7671 47.7867C25.5334 47.89 25.2768 47.9308 25.0226 47.905C24.9071 47.905 24.7723 47.9027 24.6183 47.8981C24.5835 47.9028 24.5481 47.897 24.5166 47.8814C24.498 47.8527 24.4854 47.8204 24.4797 47.7867C24.4564 47.6975 24.4162 47.6136 24.3613 47.5396C24.5869 47.56 24.8622 47.5702 25.1872 47.5702C25.2994 47.5808 25.4124 47.5622 25.5152 47.516C25.5455 47.4886 25.5688 47.4543 25.5829 47.416C25.5971 47.3777 25.6018 47.3365 25.5967 47.296L25.5944 42.6657ZM22.0851 46.0716V46.6333C22.086 46.6397 22.0853 46.6463 22.0833 46.6524C22.0812 46.6585 22.0777 46.6641 22.0731 46.6687C22.0686 46.6732 22.063 46.6767 22.0569 46.6788C22.0507 46.6809 22.0442 46.6815 22.0378 46.6806H21.801C21.7945 46.6815 21.788 46.6809 21.7819 46.6788C21.7757 46.6767 21.7702 46.6732 21.7656 46.6687C21.761 46.6641 21.7575 46.6585 21.7555 46.6524C21.7534 46.6463 21.7527 46.6397 21.7536 46.6333L21.7669 45.3512V44.6891L21.7536 43.8301C21.7527 43.8237 21.7534 43.8171 21.7555 43.811C21.7575 43.8049 21.761 43.7993 21.7656 43.7947C21.7702 43.7901 21.7757 43.7867 21.7819 43.7846C21.788 43.7825 21.7945 43.7819 21.801 43.7827L22.542 43.796H23.4043L24.1453 43.7827C24.1517 43.7819 24.1582 43.7825 24.1644 43.7846C24.1705 43.7867 24.1761 43.7901 24.1807 43.7947C24.1852 43.7993 24.1887 43.8049 24.1908 43.811C24.1929 43.8171 24.1935 43.8237 24.1926 43.8301L24.1793 44.5372V45.2069L24.1926 46.4278C24.1935 46.4342 24.1929 46.4407 24.1908 46.4469C24.1887 46.453 24.1852 46.4586 24.1807 46.4632C24.1761 46.4677 24.1705 46.4712 24.1644 46.4733C24.1582 46.4754 24.1517 46.476 24.1453 46.4751H23.9085C23.8723 46.4751 23.8542 46.4594 23.8542 46.4278V46.0658L22.0851 46.0716ZM22.0851 45.7737H23.8548V44.1002H22.0863L22.0851 45.7737ZM31.4323 43.2141C31.8916 43.0574 32.3362 42.8604 32.7607 42.6253C32.8979 42.5534 33.0225 42.4599 33.1298 42.3482C33.2151 42.4119 33.2965 42.4808 33.3735 42.5543C33.3967 42.5739 33.4112 42.6019 33.4139 42.6322C33.4139 42.6661 33.3858 42.6863 33.3296 42.6928C33.2245 42.728 33.1226 42.7722 33.0252 42.825C32.5088 43.0853 31.9764 43.3124 31.4312 43.5051V44.0292C31.4239 44.106 31.4379 44.1833 31.4716 44.2526C31.5091 44.2964 31.5605 44.3261 31.6171 44.3369C31.8551 44.3776 32.0967 44.3934 32.3379 44.3843C32.649 44.4214 32.9642 44.371 33.2482 44.2388C33.3778 44.0393 33.4387 43.8029 33.4214 43.5657C33.4843 43.6187 33.5524 43.6651 33.6247 43.7042C33.6833 43.7358 33.7125 43.7673 33.7125 43.7989C33.7113 43.8183 33.709 43.8375 33.7056 43.8566C33.6959 44.0002 33.6652 44.1416 33.6143 44.2763C33.5761 44.3526 33.5231 44.4205 33.4584 44.476C33.1061 44.6413 32.7148 44.7056 32.3281 44.6619C32.0085 44.6775 31.6881 44.6531 31.3746 44.5892C31.2931 44.5672 31.2229 44.5153 31.1782 44.4437C31.1363 44.3502 31.1177 44.248 31.1239 44.1458V42.6594C31.13 42.4208 31.1165 42.1822 31.0835 41.9459C31.1782 41.9505 31.2937 41.9618 31.43 41.9799C31.4862 41.9888 31.5143 42.008 31.5143 42.0376C31.5069 42.08 31.4933 42.121 31.4739 42.1594C31.439 42.3238 31.4266 42.4922 31.4369 42.6599L31.4323 43.2141ZM31.4456 46.1905C31.9379 46.0341 32.4124 45.8263 32.8612 45.5705C32.9966 45.5007 33.1181 45.4068 33.2199 45.2935C33.3059 45.3514 33.3874 45.4159 33.4636 45.4863C33.4901 45.5098 33.507 45.5423 33.5109 45.5775C33.5109 45.6113 33.4828 45.6315 33.4266 45.6381C33.3184 45.6708 33.214 45.7151 33.1153 45.7703C32.5821 46.0586 32.0236 46.2974 31.4468 46.4838V47.1869C31.4383 47.2576 31.4524 47.3292 31.487 47.3914C31.5217 47.4536 31.5751 47.5032 31.6397 47.5333C31.896 47.5977 32.1608 47.6216 32.4246 47.6043C32.5991 47.6045 32.7732 47.5875 32.9444 47.5535C33.057 47.5408 33.1655 47.504 33.2626 47.4455C33.3404 47.3762 33.3938 47.2837 33.4151 47.1817C33.4423 47.04 33.4581 46.8964 33.4624 46.7522C33.5295 46.8043 33.6008 46.8506 33.6756 46.8908C33.7341 46.92 33.7633 46.9472 33.7633 46.9722C33.7616 46.9961 33.7581 47.0198 33.7529 47.0432C33.7391 47.1903 33.7015 47.3342 33.6415 47.4692C33.5989 47.5472 33.5427 47.6169 33.4757 47.6753C33.1525 47.8523 32.783 47.9266 32.4165 47.8883C32.0713 47.9106 31.7248 47.875 31.3913 47.7832C31.3011 47.7326 31.2283 47.6559 31.1824 47.5632C31.1365 47.4705 31.1198 47.3661 31.1343 47.2637V45.7051C31.1408 45.4686 31.1273 45.2321 31.0939 44.9979C31.1797 45.0025 31.297 45.0139 31.4456 45.032C31.4976 45.0408 31.5236 45.06 31.5236 45.0897C31.5153 45.1334 31.5005 45.1756 31.4797 45.215C31.4467 45.3784 31.4352 45.5455 31.4456 45.712V46.1905ZM28.2783 43.4543C28.4854 43.0982 28.6685 42.7287 28.8264 42.3482C28.89 42.1965 28.9344 42.0375 28.9586 41.8748C29.0653 41.8976 29.1695 41.9305 29.2699 41.973C29.3308 41.9999 29.3612 42.028 29.3612 42.0573C29.3612 42.0865 29.3375 42.1204 29.2902 42.1589C29.2416 42.2092 29.2024 42.2679 29.1746 42.332C29.0047 42.7039 28.815 43.0663 28.6063 43.4179C29.2066 43.3525 29.7164 43.2859 30.1357 43.2182C30.0228 43.0438 29.8961 42.8787 29.7568 42.7246C29.7457 42.7157 29.7401 42.7079 29.7401 42.7009C29.7401 42.6875 29.7614 42.6661 29.8042 42.6368L29.8856 42.586C29.902 42.5755 29.9206 42.5686 29.9399 42.5658C29.9543 42.5677 29.9675 42.5749 29.9769 42.586C30.2853 42.9116 30.5473 43.2782 30.7554 43.6754C30.7614 43.6858 30.765 43.6974 30.7658 43.7094C30.7658 43.7252 30.7456 43.7466 30.7052 43.7735L30.607 43.8341C30.5845 43.8528 30.5577 43.8655 30.529 43.8711C30.5132 43.8711 30.4986 43.8564 30.4851 43.8272C30.4716 43.7979 30.4062 43.6729 30.2888 43.452C29.7316 43.5559 29.0278 43.6619 28.1772 43.77C28.0699 43.7766 27.965 43.8053 27.8694 43.8543C27.8498 43.8695 27.8264 43.8789 27.8018 43.8814C27.7791 43.8814 27.7589 43.8566 27.7411 43.807C27.7041 43.7013 27.6759 43.5928 27.6568 43.4826C27.8646 43.4865 28.0718 43.477 28.2783 43.4543ZM30.0889 46.4561H28.5093V47.0784L28.5226 47.9443C28.5226 47.9782 28.5068 47.9951 28.4752 47.9951H28.2517C28.2201 47.9951 28.2043 47.9782 28.2043 47.9443L28.2176 47.0951V45.1266L28.2043 44.2607C28.2035 44.2543 28.2041 44.2478 28.2062 44.2416C28.2083 44.2355 28.2117 44.2299 28.2163 44.2253C28.2209 44.2208 28.2265 44.2173 28.2326 44.2152C28.2388 44.2132 28.2453 44.2125 28.2517 44.2134L28.9448 44.2267H29.6586L30.3592 44.2134C30.3862 44.2134 30.3996 44.2292 30.3996 44.2607L30.3864 45.1607V46.4884L30.3933 47.3947C30.4043 47.4701 30.3974 47.547 30.3734 47.6193C30.3493 47.6915 30.3087 47.7572 30.2547 47.8109C30.0372 47.9075 29.7984 47.9459 29.5616 47.9224C29.5257 47.9266 29.4893 47.9208 29.4565 47.9056C29.4382 47.8763 29.4246 47.8444 29.4161 47.8109C29.3949 47.7345 29.3605 47.6624 29.3144 47.5979C29.4815 47.6114 29.6271 47.6181 29.751 47.6181C29.8476 47.6284 29.9447 47.6045 30.0254 47.5506C30.0749 47.4872 30.0979 47.4071 30.0895 47.3272L30.0889 46.4561ZM30.0889 46.1923V45.4551H28.5093V46.1888L30.0889 46.1923ZM30.0889 45.1942V44.4962H28.5093V45.193L30.0889 45.1942Z" fill="black"/>
</svg>
