<svg width="35" height="38" viewBox="0 0 35 38" fill="none" xmlns="http://www.w3.org/2000/svg">
<path d="M3.58081 2.84757C3.65726 2.84593 3.73313 2.86117 3.80301 2.8922C3.8729 2.92324 3.93507 2.9693 3.9851 3.02711C4.07562 3.12578 4.12517 3.25519 4.12371 3.38906C4.12453 3.46535 4.10892 3.54093 4.07792 3.61065C4.04693 3.68038 4.00129 3.74262 3.94409 3.79315C3.8463 3.88646 3.71599 3.93802 3.58081 3.93689C3.5042 3.93766 3.42836 3.92174 3.35854 3.89024C3.28872 3.85873 3.2266 3.8124 3.17652 3.75447C3.08436 3.65517 3.03355 3.52449 3.03444 3.38906C3.03315 3.31241 3.04885 3.23644 3.0804 3.16657C3.11195 3.09671 3.15858 3.03469 3.21694 2.98496C3.31653 2.8949 3.44651 2.84582 3.58081 2.84757ZM9.43551 2.029C9.71136 2.33844 10.0374 2.59917 10.4 2.80024C10.3367 2.83892 10.2825 2.89092 10.2412 2.95264C10.2119 2.99112 10.1906 3.01036 10.1771 3.01036C10.144 3.00116 10.1138 2.98368 10.0893 2.95956C9.7739 2.7171 9.49566 2.42985 9.2634 2.10693C9.26571 2.36401 9.2736 2.62552 9.28708 2.89145C9.29824 3.09888 9.30383 3.20933 9.30383 3.2228C9.30468 3.22922 9.30404 3.23575 9.30197 3.24188C9.29989 3.24801 9.29643 3.25359 9.29185 3.25816C9.28727 3.26274 9.28169 3.2662 9.27556 3.26828C9.26942 3.27036 9.26289 3.27099 9.25647 3.27014H9.01967C9.01325 3.27099 9.00671 3.27036 9.00058 3.26828C8.99444 3.2662 8.98887 3.26274 8.98429 3.25816C8.97971 3.25359 8.97624 3.24801 8.97416 3.24188C8.97209 3.23575 8.97145 3.22922 8.97231 3.2228C8.97231 3.19817 8.97577 3.13275 8.9827 3.02653C9.0008 2.70633 9.011 2.40635 9.01331 2.12656C8.67221 2.65842 8.22392 3.11336 7.69706 3.46237C7.67259 3.48649 7.64238 3.50397 7.60927 3.51317C7.59348 3.51317 7.56981 3.49393 7.53823 3.45544C7.49795 3.40053 7.44584 3.35535 7.38576 3.32325C7.84663 3.05531 8.25901 2.71164 8.60556 2.30667C8.68366 2.22082 8.75384 2.12808 8.81521 2.02958H8.41901L7.55267 2.04286C7.54625 2.04371 7.53972 2.04308 7.53358 2.041C7.52745 2.03892 7.52187 2.03546 7.51729 2.03088C7.51271 2.0263 7.50925 2.02073 7.50717 2.0146C7.50509 2.00847 7.50446 2.00194 7.50531 1.99552V1.80964C7.50531 1.77115 7.5211 1.75191 7.55267 1.75191L8.41901 1.76519H9.00119V0.838665C9.00515 0.664249 8.98926 0.489948 8.95383 0.31912C9.06495 0.325109 9.17563 0.337443 9.28534 0.356065C9.33039 0.362992 9.35292 0.383197 9.35292 0.416679C9.34669 0.45316 9.33522 0.488549 9.31884 0.521742C9.28835 0.627211 9.27681 0.73725 9.28477 0.846747V1.76692H9.70754L10.5739 1.75364C10.6054 1.75364 10.6212 1.77288 10.6212 1.81137V1.99725C10.6221 2.00367 10.6215 2.0102 10.6194 2.01633C10.6173 2.02246 10.6138 2.02804 10.6093 2.03261C10.6047 2.03719 10.5991 2.04065 10.593 2.04273C10.5868 2.04481 10.5803 2.04544 10.5739 2.04459L9.70754 2.03131L9.43551 2.029ZM8.88741 4.01136H9.8115L10.6911 3.99808C10.6975 3.99722 10.7041 3.99786 10.7102 3.99994C10.7163 4.00201 10.7219 4.00547 10.7265 4.01005C10.7311 4.01463 10.7345 4.0202 10.7366 4.02634C10.7387 4.03247 10.7393 4.039 10.7385 4.04541V4.23476C10.7393 4.24118 10.7387 4.24771 10.7366 4.25384C10.7345 4.25997 10.7311 4.26554 10.7265 4.27012C10.7219 4.2747 10.7163 4.27816 10.7102 4.28024C10.7041 4.28232 10.6975 4.28295 10.6911 4.2821L10.6131 4.27863C10.4591 4.27401 10.2776 4.27055 10.0685 4.26824C9.94112 4.66121 9.74562 5.02875 9.49095 5.35409C9.70328 5.47253 9.909 5.60241 10.1072 5.74317C10.1253 5.75433 10.1344 5.76569 10.1344 5.77723C10.1344 5.78878 10.1209 5.81014 10.0939 5.84131L10.0229 5.92906C9.989 5.98101 9.96301 6.00699 9.94491 6.00699C9.92981 6.00417 9.9158 5.99717 9.90449 5.98678C9.71129 5.83414 9.50896 5.69341 9.29863 5.56537C8.85757 5.95381 8.33731 6.24178 7.77388 6.40935C7.74777 6.42009 7.72041 6.42746 7.69244 6.43128C7.66549 6.43128 7.63391 6.40319 7.59772 6.347C7.5608 6.28726 7.51035 6.23704 7.45044 6.20037C8.03241 6.06137 8.57513 5.79192 9.03757 5.4124C8.7909 5.27742 8.53675 5.15658 8.27635 5.05045C8.1928 5.17437 8.13754 5.25557 8.11059 5.29406C8.08364 5.33254 8.05438 5.35275 8.0228 5.35467C8.00089 5.3535 7.97927 5.34902 7.95869 5.34139L7.84723 5.30098C7.80218 5.2852 7.77965 5.26827 7.77965 5.25018C7.78159 5.23481 7.78872 5.22055 7.79987 5.20977C7.91445 5.08376 8.01856 4.94861 8.11117 4.80568C8.22681 4.63336 8.33305 4.45492 8.4294 4.27113H8.40919L7.52957 4.28441C7.52315 4.28526 7.51662 4.28463 7.51048 4.28255C7.50434 4.28047 7.49877 4.27701 7.49419 4.27243C7.48961 4.26785 7.48614 4.26228 7.48407 4.25615C7.48199 4.25002 7.48135 4.24349 7.48221 4.23707V4.04772C7.48135 4.04131 7.48199 4.03478 7.48407 4.02864C7.48614 4.02251 7.48961 4.01694 7.49419 4.01236C7.49877 4.00778 7.50434 4.00432 7.51048 4.00224C7.51662 4.00017 7.52315 3.99953 7.52957 4.00039L8.40919 4.01366H8.56802L8.71356 3.72503C8.76721 3.60766 8.8047 3.48358 8.82503 3.35615C8.92638 3.3824 9.02593 3.41518 9.12305 3.45429C9.16348 3.47007 9.18369 3.49373 9.18369 3.52529C9.18116 3.542 9.17498 3.55796 9.1656 3.57202C9.15622 3.58609 9.14386 3.59792 9.1294 3.60669C9.06594 3.68305 9.01256 3.76726 8.97058 3.85722C8.95556 3.87993 8.92784 3.93131 8.88741 4.01136ZM8.74879 4.26824C8.72415 4.3202 8.60864 4.51416 8.40226 4.85013C8.68861 4.95187 8.96683 5.07518 9.23452 5.21901C9.47311 4.94139 9.65219 4.6178 9.76067 4.26824H8.74879ZM11.4864 1.75826H12.7963L13.5408 1.74498C13.5472 1.74413 13.5537 1.74476 13.5599 1.74684C13.566 1.74892 13.5716 1.75238 13.5762 1.75696C13.5807 1.76154 13.5842 1.76711 13.5863 1.77324C13.5884 1.77937 13.589 1.7859 13.5881 1.79232V2.00187C13.589 2.00829 13.5884 2.01482 13.5863 2.02095C13.5842 2.02708 13.5807 2.03265 13.5762 2.03723C13.5716 2.04181 13.566 2.04527 13.5599 2.04735C13.5537 2.04943 13.5472 2.05006 13.5408 2.04921L12.928 2.03593C12.8893 2.95716 12.6404 3.85736 12.2003 4.66771C12.6319 5.22923 13.1464 5.72189 13.7262 6.12879C13.6572 6.18132 13.6007 6.24832 13.5604 6.32506C13.5265 6.3724 13.5017 6.39607 13.4859 6.39607C13.4567 6.38805 13.43 6.37298 13.408 6.3522C12.8886 5.93948 12.4247 5.4616 12.0276 4.93037C11.574 5.56783 10.9725 6.08582 10.2747 6.43994C10.2479 6.45685 10.2181 6.46842 10.1869 6.474C10.1688 6.474 10.1407 6.44918 10.1026 6.39953C10.0585 6.33503 9.99893 6.28263 9.92932 6.24713C10.7069 5.90538 11.3738 5.35362 11.8549 4.65386C11.5051 4.03214 11.2572 3.35838 11.1208 2.65823C10.9837 2.93762 10.8266 3.20675 10.6507 3.46352C10.6237 3.50393 10.6024 3.52414 10.5866 3.52414C10.5558 3.51225 10.528 3.49372 10.5051 3.46987C10.4543 3.42621 10.3955 3.39287 10.3319 3.37174C10.8672 2.64795 11.2431 1.8191 11.435 0.939688C11.4944 0.732776 11.5297 0.519695 11.5401 0.304688C11.6429 0.326138 11.7436 0.356661 11.841 0.395897C11.8973 0.416294 11.9254 0.443425 11.9254 0.477292C11.9054 0.51591 11.8828 0.553134 11.8578 0.588706C11.8032 0.690285 11.7656 0.800052 11.7463 0.91371C11.6655 1.19965 11.5788 1.48117 11.4864 1.75826ZM11.3917 2.03535L11.3004 2.25529C11.4325 2.99139 11.6727 3.70393 12.0131 4.36984C12.3773 3.64301 12.5849 2.84793 12.6225 2.03593L11.3917 2.03535ZM8.04475 0.618724C8.22275 0.837008 8.36862 1.07961 8.47792 1.33916C8.48202 1.34641 8.48439 1.35451 8.48485 1.36283C8.48485 1.37861 8.46463 1.39785 8.4242 1.42056L8.33642 1.46789C8.31306 1.48451 8.28651 1.49611 8.25845 1.50195C8.24728 1.50195 8.23592 1.48848 8.22437 1.46154C8.12463 1.21068 7.9884 0.975891 7.82008 0.764774C7.81126 0.752885 7.80551 0.739006 7.80333 0.724365C7.80333 0.708586 7.8247 0.689343 7.86744 0.666637L7.95869 0.619301C7.97367 0.607744 7.99103 0.599659 8.00952 0.595633C8.02184 0.595248 8.03358 0.602945 8.04475 0.618724ZM9.67924 1.47424C9.84459 1.27607 9.98807 1.06066 10.1072 0.831738C10.1483 0.75286 10.1779 0.668486 10.195 0.581201C10.2853 0.612586 10.3725 0.6522 10.4555 0.699542C10.4928 0.722248 10.5115 0.746109 10.5115 0.771124C10.5099 0.783659 10.5054 0.795651 10.4984 0.806166C10.4914 0.816681 10.482 0.825433 10.4711 0.831738C10.4273 0.864369 10.3896 0.904422 10.3596 0.950078C10.246 1.14417 10.1182 1.32959 9.97726 1.50484C9.94337 1.54756 9.91739 1.56891 9.89929 1.56891C9.86777 1.56283 9.83788 1.55025 9.8115 1.53197C9.77195 1.50366 9.72689 1.48399 9.67924 1.47424ZM17.2966 4.49511H15.3849L14.4678 4.50839C14.4613 4.50924 14.4548 4.50861 14.4487 4.50653C14.4425 4.50445 14.437 4.50099 14.4324 4.49641C14.4278 4.49184 14.4243 4.48626 14.4223 4.48013C14.4202 4.474 14.4196 4.46747 14.4204 4.46105V4.23014C14.4196 4.22372 14.4202 4.2172 14.4223 4.21106C14.4243 4.20493 14.4278 4.19936 14.4324 4.19478C14.437 4.1902 14.4425 4.18674 14.4487 4.18466C14.4548 4.18259 14.4613 4.18195 14.4678 4.18281L15.3849 4.19608H17.2972C17.3058 3.95496 17.2899 3.71358 17.2499 3.47565C17.3654 3.50028 17.4738 3.52837 17.575 3.55993C17.9308 3.3631 18.2672 3.1333 18.58 2.87355H16.5891L15.6887 2.88683C15.6548 2.88683 15.6379 2.87105 15.6379 2.83949V2.62301C15.6379 2.59146 15.6548 2.57568 15.6887 2.57568L16.5891 2.58896H18.5488C18.6099 2.59181 18.6712 2.58735 18.7313 2.57568C18.7532 2.56812 18.7762 2.56403 18.7995 2.56356C18.8333 2.56356 18.8886 2.60531 18.9652 2.68882C19.0223 2.73646 19.0615 2.80196 19.0767 2.87471C19.0778 2.89286 19.0723 2.9108 19.0611 2.92516C19.05 2.93952 19.0339 2.94929 19.016 2.95264C18.9117 2.98952 18.8153 3.04573 18.7319 3.11831C18.3848 3.37481 18.0178 3.60335 17.6345 3.80181C17.6224 3.89151 17.6179 3.98209 17.6212 4.07255V4.19781H19.5064L20.4201 4.18454C20.454 4.18454 20.4709 4.20032 20.4709 4.23187V4.46278C20.4709 4.49434 20.454 4.51012 20.4201 4.51012L19.5064 4.49684H17.6218V5.30849L17.6287 5.90366C17.6366 5.98094 17.6249 6.05896 17.5946 6.1305C17.5643 6.20204 17.5165 6.26479 17.4555 6.31294C17.2743 6.39428 17.0761 6.43034 16.8779 6.41801C16.7358 6.41801 16.6186 6.4157 16.5262 6.41108C16.4904 6.41206 16.4548 6.40638 16.4211 6.39434C16.4114 6.38626 16.401 6.35624 16.3899 6.30428C16.3613 6.21605 16.3215 6.13185 16.2715 6.05375C16.5065 6.0837 16.7432 6.09855 16.9801 6.0982C17.067 6.10666 17.1542 6.08528 17.2273 6.03758C17.2537 6.00847 17.2736 5.97416 17.2858 5.93688C17.2981 5.89959 17.3023 5.86015 17.2984 5.82111L17.2966 4.49511ZM18.5523 1.59316C18.7439 1.30821 18.9103 1.00708 19.0495 0.693192C19.0876 0.595267 19.1138 0.493129 19.1275 0.388969C19.2377 0.419426 19.3444 0.461414 19.4457 0.514237C19.4908 0.538868 19.5133 0.565999 19.5133 0.595633C19.5123 0.609744 19.5082 0.623457 19.5012 0.63575C19.4942 0.648043 19.4845 0.6586 19.4729 0.666637C19.4158 0.707206 19.3702 0.761911 19.3406 0.825388C19.2251 1.05091 19.0728 1.30683 18.8838 1.59316H19.2089L20.1804 1.57988C20.2166 1.57988 20.2347 1.59335 20.2347 1.62029L20.2214 1.94818V2.22527L20.2347 2.95264C20.2347 2.98419 20.2166 2.99997 20.1804 2.99997H19.9494C19.9429 3.00083 19.9364 3.00019 19.9303 2.99812C19.9241 2.99604 19.9186 2.99258 19.914 2.988C19.9094 2.98342 19.9059 2.97785 19.9039 2.97172C19.9018 2.96558 19.9012 2.95906 19.902 2.95264V1.87083H15.002V2.95321C15.0029 2.95963 15.0022 2.96616 15.0002 2.97229C14.9981 2.97843 14.9946 2.984 14.99 2.98858C14.9854 2.99316 14.9799 2.99662 14.9737 2.99869C14.9676 3.00077 14.9611 3.00141 14.9547 3.00055H14.7179C14.7114 3.00141 14.7049 3.00077 14.6988 2.99869C14.6926 2.99662 14.6871 2.99316 14.6825 2.98858C14.6779 2.984 14.6744 2.97843 14.6724 2.97229C14.6703 2.96616 14.6696 2.95963 14.6705 2.95321L14.6838 2.22585V1.98628L14.6699 1.61971C14.6699 1.59278 14.6857 1.57931 14.7173 1.57931L15.6887 1.59258L18.5523 1.59316ZM15.6518 0.46286C15.8549 0.708073 16.0362 0.970578 16.1935 1.24737C16.2025 1.25787 16.2083 1.27068 16.2103 1.28432C16.2103 1.3001 16.1866 1.32261 16.1392 1.35186L16.041 1.3992C16.012 1.41723 15.9799 1.42976 15.9463 1.43614C15.9328 1.43614 15.9205 1.42383 15.9094 1.3992C15.7621 1.11181 15.5826 0.842038 15.3745 0.595056C15.3674 0.587611 15.3628 0.578128 15.3613 0.567924C15.3613 0.556763 15.3872 0.538676 15.4392 0.51366L15.5374 0.46286C15.5605 0.450268 15.5858 0.442232 15.6119 0.439192C15.6198 0.440172 15.6275 0.442781 15.6343 0.446855C15.6412 0.450928 15.6471 0.456378 15.6518 0.46286ZM17.0056 0.46286C16.9987 0.452624 16.9941 0.440994 16.9923 0.428801C16.9923 0.413022 17.0148 0.394935 17.0598 0.374538L17.165 0.334128C17.1838 0.323869 17.2044 0.317028 17.2256 0.313924C17.2391 0.313924 17.2537 0.325277 17.2695 0.347983C17.4476 0.60317 17.5985 0.876376 17.7194 1.16309C17.725 1.17245 17.7285 1.18288 17.7298 1.19369C17.7298 1.20716 17.7006 1.22736 17.642 1.2543L17.5473 1.29471C17.5185 1.30931 17.4878 1.31961 17.4561 1.32531C17.438 1.32531 17.4245 1.31068 17.4156 1.28143C17.312 0.993241 17.1743 0.71844 17.0056 0.46286ZM3.58081 13.2385C3.65726 13.2368 3.73313 13.2521 3.80301 13.2831C3.8729 13.3141 3.93507 13.3602 3.9851 13.418C4.08113 13.5254 4.13077 13.6664 4.1232 13.8102C4.11563 13.9541 4.05145 14.0891 3.94467 14.1858C3.84646 14.2786 3.71595 14.3295 3.58081 14.3278C3.43581 14.3266 3.2971 14.2685 3.19457 14.166C3.09204 14.0635 3.03391 13.9249 3.0327 13.78C3.03142 13.7033 3.04711 13.6273 3.07867 13.5575C3.11022 13.4876 3.15685 13.4256 3.21521 13.3759C3.31524 13.2854 3.44592 13.2363 3.58081 13.2385ZM8.6945 12.518H8.02107C7.9774 12.8311 7.90372 13.1393 7.80102 13.4382C7.78523 13.4925 7.76945 13.5196 7.75366 13.5196C7.72191 13.5139 7.69117 13.5036 7.66241 13.489C7.59988 13.4675 7.5352 13.4527 7.4695 13.4451C7.68503 12.8705 7.80955 12.2657 7.83856 11.6527C7.84087 11.5896 7.84203 11.5355 7.84203 11.4905C7.84246 11.4216 7.83802 11.3527 7.82874 11.2844C7.99585 11.309 8.09731 11.326 8.13312 11.3352C8.1851 11.3464 8.21109 11.3645 8.21109 11.3895C8.2067 11.4211 8.19755 11.4518 8.18394 11.4807C8.16114 11.5334 8.14635 11.5893 8.14005 11.6464C8.13543 11.6848 8.12869 11.748 8.11983 11.8357C8.09943 12.0139 8.08364 12.1486 8.07247 12.2398H8.69508V11.6267C8.7004 11.3183 8.68689 11.0099 8.65465 10.7031C8.77083 10.708 8.88659 10.7203 9.00119 10.74C9.04624 10.747 9.06876 10.7651 9.06876 10.7943C9.06876 10.8012 9.05971 10.8407 9.04161 10.9127C9.00587 11.1442 8.99233 11.3787 9.00119 11.6129V12.2421H9.11959L9.7549 12.2288C9.78878 12.2288 9.80572 12.2423 9.80572 12.2692V12.4857C9.80572 12.5173 9.78878 12.5331 9.7549 12.5331L9.11959 12.5198H9.00119V14.0455C9.2222 13.9327 9.48056 13.784 9.77627 13.5993C9.77396 13.6378 9.7728 13.6682 9.7728 13.6905C9.77298 13.7325 9.77646 13.7743 9.7832 13.8158C9.78782 13.8542 9.79013 13.8779 9.79013 13.8868C9.79013 13.9206 9.7574 13.9545 9.69194 13.9884C9.35118 14.1754 9.12016 14.2984 8.99888 14.3572V15.6457L9.01216 16.8701C9.01216 16.897 8.99637 16.9105 8.9648 16.9105H8.728C8.69643 16.9105 8.68064 16.897 8.68064 16.8701L8.69392 15.6526V14.5096C8.52682 14.5931 8.30677 14.6946 8.03378 14.8139C7.94498 14.843 7.86317 14.8901 7.79351 14.9524C7.78507 14.9658 7.77363 14.977 7.7601 14.9852C7.74657 14.9935 7.73132 14.9984 7.71554 14.9997C7.70005 14.9991 7.68499 14.9944 7.6719 14.9861C7.65882 14.9778 7.64817 14.9662 7.64104 14.9524C7.58112 14.858 7.53008 14.7583 7.48856 14.6545C7.69265 14.6018 7.89232 14.5333 8.08576 14.4496C8.33603 14.3503 8.53914 14.2635 8.69508 14.1893L8.6945 12.518ZM10.6097 12.129H12.4948L13.3271 12.1157C13.3353 12.1145 13.3437 12.1153 13.3516 12.1179C13.3595 12.1206 13.3666 12.125 13.3725 12.1309C13.3784 12.1368 13.3828 12.1439 13.3855 12.1518C13.3881 12.1597 13.3889 12.1681 13.3877 12.1763C13.3789 12.3814 13.3745 12.5325 13.3745 12.6295C13.3791 13.6847 13.3019 14.7387 13.1434 15.7819C13.1131 16.0696 13.0141 16.3458 12.8547 16.5872C12.7861 16.6658 12.7004 16.7274 12.6041 16.7675C12.5079 16.8075 12.4037 16.8249 12.2996 16.8182C12.1102 16.8182 11.8936 16.8068 11.6499 16.7841C11.5956 16.7795 11.5628 16.7693 11.5517 16.7535C11.5387 16.7208 11.5296 16.6867 11.5245 16.6519C11.5091 16.565 11.4817 16.4807 11.4431 16.4014C11.7112 16.4587 11.9844 16.4893 12.2586 16.4926C12.3466 16.4937 12.433 16.4694 12.5075 16.4226C12.582 16.3758 12.6414 16.3085 12.6785 16.2288C12.7637 16.0519 12.8185 15.8621 12.8408 15.6671C12.9962 14.5883 13.0709 13.4994 13.0643 12.4095H12.5705C12.3897 13.3144 12.0562 14.182 11.584 14.9749C11.1823 15.586 10.6678 16.115 10.0679 16.5336C10.0435 16.5577 10.0133 16.5752 9.98015 16.5844C9.96436 16.5844 9.93837 16.5607 9.90217 16.5134C9.85594 16.4492 9.79412 16.398 9.72256 16.3644C10.4087 15.9143 10.9894 15.3212 11.4246 14.6257C11.8227 13.9401 12.102 13.1922 12.2505 12.4136H11.5101C11.3611 12.9618 11.1273 13.4835 10.817 13.9595C10.5579 14.3249 10.2506 14.6537 9.90333 14.9368C9.88108 14.9598 9.85289 14.9762 9.82189 14.9842C9.8038 14.9842 9.77781 14.9616 9.74392 14.9166C9.69871 14.8543 9.63477 14.808 9.56142 14.7844C10.3724 14.2157 10.9514 13.3741 11.1924 12.4136H10.4572C10.2894 12.7073 10.0949 12.985 9.87619 13.2431C9.83999 13.2858 9.814 13.3072 9.79821 13.3072C9.78243 13.3072 9.75528 13.2902 9.71678 13.2564C9.6636 13.2095 9.60154 13.1738 9.53427 13.1513C10.0368 12.6188 10.412 11.9793 10.6316 11.281C10.6927 11.0893 10.7347 10.8921 10.757 10.6921C10.8667 10.7121 10.9752 10.7382 11.0821 10.7701C11.1272 10.7835 11.1497 10.806 11.1497 10.8376C11.1415 10.881 11.1204 10.9208 11.0891 10.9519C11.0319 11.052 10.9875 11.1589 10.9568 11.27C10.8592 11.5633 10.7432 11.8502 10.6097 12.129ZM17.731 11.1314H19.2199L20.1267 11.1182C20.1606 11.1182 20.1775 11.1339 20.1775 11.1655L20.1665 11.9154V13.2749L20.1798 14.0328C20.1798 14.0597 20.1629 14.0732 20.129 14.0732L19.2222 14.0599H18.5973V14.9258H19.284L20.1908 14.9126C20.1972 14.9117 20.2037 14.9124 20.2099 14.9144C20.216 14.9165 20.2216 14.92 20.2262 14.9245C20.2308 14.9291 20.2342 14.9347 20.2363 14.9408C20.2384 14.947 20.239 14.9535 20.2381 14.9599V15.1833C20.239 15.1897 20.2384 15.1963 20.2363 15.2024C20.2342 15.2085 20.2308 15.2141 20.2262 15.2187C20.2216 15.2233 20.216 15.2267 20.2099 15.2288C20.2037 15.2309 20.1972 15.2315 20.1908 15.2306L19.284 15.2174H18.5973V16.2086H19.6023L20.5939 16.1953C20.6209 16.1953 20.6344 16.2111 20.6344 16.2426V16.466C20.6344 16.4976 20.6209 16.5134 20.5939 16.5134L19.6023 16.5001H17.0697L16.078 16.5134C16.0441 16.5134 16.0272 16.4976 16.0272 16.466V16.2426C16.0272 16.2111 16.0441 16.1953 16.078 16.1953L17.0697 16.2086H18.2947V15.2139H17.7264L16.8196 15.2272C16.8132 15.228 16.8066 15.2274 16.8005 15.2253C16.7944 15.2233 16.7888 15.2198 16.7842 15.2152C16.7796 15.2106 16.7762 15.2051 16.7741 15.1989C16.772 15.1928 16.7714 15.1863 16.7722 15.1799V14.9564C16.7714 14.95 16.772 14.9435 16.7741 14.9374C16.7762 14.9312 16.7796 14.9257 16.7842 14.9211C16.7888 14.9165 16.7944 14.913 16.8005 14.911C16.8066 14.9089 16.8132 14.9083 16.8196 14.9091L17.7264 14.9224H18.2947V14.0565H17.731L16.8242 14.0698C16.788 14.0698 16.7699 14.0563 16.7699 14.0293L16.7832 13.272V11.9154L16.7722 11.1649C16.7722 11.1334 16.7903 11.1176 16.8265 11.1176L17.731 11.1314ZM18.5973 11.4155V12.4401H19.8598V11.4155H18.5973ZM18.5973 13.7823H19.8598V12.7109H18.5973V13.7823ZM18.2929 12.443V11.4155H17.0801V12.4401L18.2929 12.443ZM18.2929 12.7137H17.0801V13.78H18.2929V12.7137ZM15.6622 11.5269V13.0999H15.7875L16.4101 13.0867C16.437 13.0867 16.4505 13.1024 16.4505 13.134V13.3586C16.4505 13.3901 16.437 13.4059 16.4101 13.4059L15.7875 13.3926H15.6622V15.0534C15.9757 14.9178 16.2808 14.7636 16.5759 14.5916C16.5596 14.6582 16.5505 14.7263 16.5487 14.7948L16.5522 14.8525C16.5522 14.8929 16.5206 14.9314 16.4575 14.968C15.9559 15.2543 15.4333 15.5019 14.894 15.7086C14.8033 15.7417 14.7151 15.7813 14.6301 15.827C14.6094 15.8478 14.5815 15.86 14.5521 15.861C14.5294 15.861 14.5092 15.8429 14.4915 15.8068C14.444 15.7067 14.4071 15.6021 14.3811 15.4945C14.5986 15.4569 14.8115 15.3968 15.0164 15.3149C15.1655 15.2607 15.2771 15.2166 15.3514 15.1827V13.3909H15.199L14.5729 13.4042C14.5665 13.405 14.5599 13.4044 14.5538 13.4023C14.5477 13.4002 14.5421 13.3968 14.5375 13.3922C14.5329 13.3876 14.5295 13.382 14.5274 13.3759C14.5253 13.3698 14.5247 13.3632 14.5255 13.3568V13.1334C14.5247 13.127 14.5253 13.1205 14.5274 13.1143C14.5295 13.1082 14.5329 13.1026 14.5375 13.0981C14.5421 13.0935 14.5477 13.09 14.5538 13.0879C14.5599 13.0859 14.5665 13.0852 14.5729 13.0861L15.199 13.0994H15.3514V11.5269H15.1418L14.4718 11.5401C14.4379 11.5401 14.421 11.5244 14.421 11.4928V11.2769C14.421 11.2454 14.4379 11.2296 14.4718 11.2296L15.1418 11.2429H15.8481L16.5216 11.2296C16.528 11.2287 16.5345 11.2294 16.5407 11.2314C16.5468 11.2335 16.5524 11.237 16.5569 11.2415C16.5615 11.2461 16.565 11.2517 16.5671 11.2578C16.5691 11.264 16.5698 11.2705 16.5689 11.2769V11.4934C16.5698 11.4998 16.5691 11.5063 16.5671 11.5125C16.565 11.5186 16.5615 11.5242 16.5569 11.5288C16.5524 11.5333 16.5468 11.5368 16.5407 11.5389C16.5345 11.5409 16.528 11.5416 16.5216 11.5407L15.8481 11.5269H15.6622ZM3.58081 23.6294C3.65726 23.6278 3.73313 23.643 3.80301 23.674C3.8729 23.7051 3.93507 23.7511 3.9851 23.8089C4.08113 23.9163 4.13077 24.0573 4.1232 24.2011C4.11563 24.345 4.05145 24.48 3.94467 24.5767C3.84646 24.6695 3.71595 24.7205 3.58081 24.7187C3.43581 24.7175 3.2971 24.6594 3.19457 24.5569C3.09204 24.4544 3.03391 24.3158 3.0327 24.1709C3.03142 24.0942 3.04711 24.0183 3.07867 23.9484C3.11022 23.8785 3.15685 23.8165 3.21521 23.7668C3.31524 23.6763 3.44592 23.6272 3.58081 23.6294ZM8.99195 22.7975V26.129L9.00523 27.2183C9.00608 27.2247 9.00545 27.2312 9.00337 27.2374C9.00129 27.2435 8.99783 27.2491 8.99325 27.2537C8.98867 27.2582 8.98309 27.2617 8.97696 27.2638C8.97082 27.2659 8.96429 27.2665 8.95787 27.2656H8.70721C8.67102 27.2656 8.65292 27.2499 8.65292 27.2183L8.6662 26.129V24.3227C8.6662 24.3138 8.67294 23.9621 8.68642 23.2674C8.39316 23.7049 8.05394 24.1098 7.67454 24.4751C7.63411 24.5155 7.60484 24.5357 7.58675 24.5357C7.56865 24.5357 7.54497 24.5132 7.51571 24.4682C7.47826 24.4039 7.42598 24.3494 7.36323 24.3094C8.16438 23.5847 8.79345 22.6903 9.20449 21.6915C9.26502 21.5463 9.30712 21.394 9.32982 21.2383C9.44639 21.2716 9.55878 21.3181 9.6648 21.3769C9.70523 21.4015 9.72544 21.4275 9.72544 21.4548C9.72448 21.472 9.71894 21.4886 9.70939 21.5029C9.69985 21.5172 9.68664 21.5287 9.67115 21.5362C9.59743 21.6052 9.54172 21.6912 9.50886 21.7867C9.35864 22.1345 9.18598 22.4722 8.99195 22.7975ZM10.7754 24.0797C11.4187 23.6842 11.9984 23.1937 12.4948 22.6249C12.5922 22.5172 12.6742 22.3966 12.7386 22.2664C12.842 22.3298 12.9388 22.4035 13.0273 22.4864C13.0575 22.5108 13.077 22.546 13.0816 22.5845C13.0816 22.6138 13.0466 22.6409 12.9765 22.6659C12.8423 22.7555 12.7215 22.8638 12.6179 22.9875C12.0679 23.5492 11.4482 24.0382 10.7737 24.4422V26.1503C10.7631 26.2905 10.7875 26.4312 10.8447 26.5596C10.8982 26.6369 10.9796 26.6903 11.0717 26.7086C11.3759 26.758 11.6844 26.7762 11.9924 26.7628C12.3018 26.7914 12.6125 26.7241 12.8824 26.57C13.0402 26.4392 13.135 26.0986 13.1665 25.5482C13.2338 25.6087 13.3105 25.6578 13.3935 25.6937C13.459 25.7253 13.4917 25.7568 13.4917 25.7884C13.4906 25.8099 13.4883 25.8313 13.4848 25.8525C13.4861 26.2237 13.3442 26.5812 13.0886 26.8506C12.7526 27.0309 12.371 27.1085 11.9912 27.074C11.6171 27.0926 11.2421 27.0664 10.8742 26.996C10.5924 26.9102 10.4514 26.6724 10.4514 26.2825V22.0107C10.4562 21.7553 10.4427 21.4999 10.411 21.2464C10.5215 21.2533 10.6434 21.2657 10.7766 21.2834C10.8286 21.2903 10.8546 21.3084 10.8546 21.3376C10.8509 21.3811 10.8394 21.4236 10.8205 21.4629C10.7778 21.6422 10.763 21.8269 10.7766 22.0107L10.7754 24.0797ZM17.2966 25.2769H15.3849L14.4678 25.2902C14.4613 25.2911 14.4548 25.2904 14.4487 25.2883C14.4425 25.2863 14.437 25.2828 14.4324 25.2782C14.4278 25.2737 14.4243 25.2681 14.4223 25.262C14.4202 25.2558 14.4196 25.2493 14.4204 25.2429V25.012C14.4196 25.0055 14.4202 24.999 14.4223 24.9929C14.4243 24.9867 14.4278 24.9812 14.4324 24.9766C14.437 24.972 14.4425 24.9686 14.4487 24.9665C14.4548 24.9644 14.4613 24.9638 14.4678 24.9646L15.3849 24.9779H17.2972C17.3058 24.7368 17.2899 24.4954 17.2499 24.2575C17.3654 24.2821 17.4738 24.3102 17.575 24.3417C17.9308 24.1449 18.2672 23.9151 18.58 23.6554H16.5891L15.6887 23.6686C15.6548 23.6686 15.6379 23.6529 15.6379 23.6213V23.4048C15.6379 23.3733 15.6548 23.3575 15.6887 23.3575L16.5891 23.3708H18.5488C18.6099 23.3736 18.6712 23.3692 18.7313 23.3575C18.7532 23.3499 18.7762 23.3458 18.7995 23.3454C18.8333 23.3454 18.8886 23.3871 18.9652 23.4706C19.0223 23.5183 19.0615 23.5838 19.0767 23.6565C19.0778 23.6747 19.0723 23.6926 19.0611 23.707C19.05 23.7213 19.0339 23.7311 19.016 23.7345C18.9117 23.7713 18.8153 23.8275 18.7319 23.9001C18.3848 24.1566 18.0178 24.3852 17.6345 24.5836C17.6224 24.6733 17.6179 24.7639 17.6212 24.8544V24.9796H19.5064L20.4201 24.9664C20.454 24.9664 20.4709 24.9821 20.4709 25.0137V25.2446C20.4709 25.2762 20.454 25.2919 20.4201 25.2919L19.5064 25.2787H17.6218V26.0903L17.6287 26.6855C17.6366 26.7628 17.6249 26.8408 17.5946 26.9123C17.5643 26.9839 17.5165 27.0466 17.4555 27.0948C17.2743 27.1761 17.0761 27.2122 16.8779 27.1998C16.7358 27.1998 16.6186 27.1975 16.5262 27.1929C16.4904 27.1939 16.4548 27.1882 16.4211 27.1762C16.4099 27.1692 16.3985 27.14 16.387 27.0884C16.3584 27.0002 16.3186 26.916 16.2686 26.8379C16.5033 26.8676 16.7396 26.8822 16.9761 26.8817C17.063 26.8902 17.1502 26.8688 17.2233 26.8211C17.2496 26.792 17.2696 26.7577 17.2818 26.7204C17.294 26.6831 17.2983 26.6437 17.2943 26.6047L17.2966 25.2769ZM18.5523 22.375C18.7439 22.09 18.9103 21.7889 19.0495 21.475C19.0876 21.3771 19.1138 21.2749 19.1275 21.1708C19.2377 21.2012 19.3444 21.2432 19.4457 21.2961C19.4908 21.3207 19.5133 21.3478 19.5133 21.3774C19.5123 21.3916 19.5082 21.4053 19.5012 21.4176C19.4942 21.4299 19.4845 21.4404 19.4729 21.4485C19.4158 21.489 19.3702 21.5437 19.3406 21.6072C19.2251 21.8327 19.0728 22.0887 18.8838 22.375H19.2089L20.1804 22.3617C20.2166 22.3617 20.2347 22.3752 20.2347 22.4021L20.2214 22.73V23.0071L20.2347 23.7345C20.2347 23.766 20.2166 23.7818 20.1804 23.7818H19.9494C19.9429 23.7826 19.9364 23.782 19.9303 23.7799C19.9241 23.7779 19.9186 23.7744 19.914 23.7698C19.9094 23.7652 19.9059 23.7597 19.9039 23.7535C19.9018 23.7474 19.9012 23.7409 19.902 23.7345V22.6526H15.002V23.735C15.0029 23.7414 15.0022 23.748 15.0002 23.7541C14.9981 23.7602 14.9946 23.7658 14.99 23.7704C14.9854 23.775 14.9799 23.7784 14.9737 23.7805C14.9676 23.7826 14.9611 23.7832 14.9547 23.7824H14.7179C14.7114 23.7832 14.7049 23.7826 14.6988 23.7805C14.6926 23.7784 14.6871 23.775 14.6825 23.7704C14.6779 23.7658 14.6744 23.7602 14.6724 23.7541C14.6703 23.748 14.6696 23.7414 14.6705 23.735L14.6838 23.0077V22.7681L14.6705 22.3992C14.6705 22.3723 14.6863 22.3588 14.7179 22.3588L15.6893 22.3721L18.5523 22.375ZM15.6518 21.2447C15.8549 21.4899 16.0362 21.7524 16.1935 22.0292C16.2025 22.0397 16.2083 22.0525 16.2103 22.0661C16.2103 22.0819 16.1866 22.1044 16.1392 22.1337L16.041 22.181C16.012 22.199 15.9799 22.2116 15.9463 22.218C15.9328 22.218 15.9205 22.2056 15.9094 22.181C15.7621 21.8932 15.5827 21.6231 15.3745 21.3757C15.3674 21.3683 15.3628 21.3588 15.3613 21.3486C15.3613 21.3374 15.3872 21.3193 15.4392 21.2943L15.5374 21.2435C15.5605 21.2309 15.5858 21.2229 15.6119 21.2199C15.6199 21.221 15.6276 21.2238 15.6345 21.228C15.6413 21.2323 15.6472 21.238 15.6518 21.2447ZM17.0056 21.2447C16.9987 21.2344 16.9941 21.2228 16.9923 21.2106C16.9923 21.1948 17.0148 21.1768 17.0598 21.1564L17.165 21.1159C17.1838 21.1057 17.2044 21.0988 17.2256 21.0957C17.2391 21.0957 17.2537 21.1071 17.2695 21.1298C17.4476 21.385 17.5985 21.6582 17.7194 21.9449C17.725 21.9543 17.7285 21.9647 17.7298 21.9755C17.7298 21.989 17.7006 22.0092 17.642 22.0361L17.5473 22.0765C17.5185 22.0911 17.4878 22.1014 17.4561 22.1071C17.438 22.1071 17.4245 22.0925 17.4156 22.0633C17.312 21.7751 17.1743 21.5003 17.0056 21.2447ZM3.57387 32.184C3.69357 32.1836 3.80963 32.2251 3.90189 32.3014C3.99415 32.3776 4.0568 32.4837 4.07895 32.6013C4.1011 32.7188 4.08136 32.8405 4.02316 32.945C3.96496 33.0496 3.87196 33.1304 3.76033 33.1736C3.64869 33.2168 3.52545 33.2195 3.41201 33.1813C3.29857 33.1431 3.20209 33.0664 3.13931 32.9646C3.07654 32.8627 3.05143 32.7421 3.06836 32.6236C3.08528 32.5052 3.14316 32.3964 3.23196 32.3162C3.32467 32.2298 3.44713 32.1825 3.57387 32.184ZM1.70605 34.0544C1.77913 34.0532 1.85157 34.0681 1.91825 34.098C1.98492 34.1279 2.04419 34.1722 2.09186 34.2275C2.17834 34.3202 2.22572 34.4426 2.22412 34.5693C2.22585 34.641 2.21156 34.7122 2.18229 34.7777C2.15301 34.8432 2.10949 34.9014 2.0549 34.948C1.96014 35.0341 1.8364 35.0813 1.70836 35.0802C1.5754 35.0757 1.44937 35.0198 1.35688 34.9242C1.2644 34.8286 1.2127 34.7008 1.2127 34.5678C1.2127 34.4349 1.2644 34.3071 1.35688 34.2115C1.44937 34.1159 1.5754 34.06 1.70836 34.0555L1.70605 34.0544ZM5.45209 34.0544C5.52415 34.0533 5.59554 34.0683 5.66108 34.0982C5.72661 34.1282 5.78465 34.1724 5.83097 34.2275C5.91553 34.3211 5.96155 34.4432 5.95977 34.5693C5.96164 34.6407 5.94776 34.7117 5.91911 34.7771C5.89046 34.8425 5.84775 34.9009 5.79401 34.948C5.70133 35.0344 5.57885 35.0818 5.45209 35.0802C5.37937 35.0815 5.30723 35.0671 5.24062 35.0379C5.17402 35.0087 5.11454 34.9654 5.06628 34.911C5.0212 34.8614 4.98637 34.8033 4.96382 34.7402C4.94126 34.6771 4.93142 34.6101 4.93485 34.5431C4.93829 34.4762 4.95494 34.4106 4.98384 34.3501C5.01273 34.2896 5.05332 34.2354 5.10325 34.1906C5.19759 34.1019 5.32258 34.0531 5.45209 34.0544ZM3.57387 35.9247C3.64648 35.9234 3.71846 35.9382 3.7846 35.9682C3.85074 35.9981 3.90937 36.0425 3.95622 36.0979C4.04268 36.1924 4.08997 36.3162 4.08848 36.4443C4.09021 36.516 4.07592 36.5872 4.04664 36.6527C4.01737 36.7182 3.97385 36.7764 3.91925 36.823C3.82422 36.9082 3.70037 36.9542 3.57272 36.9517C3.50134 36.9531 3.4305 36.939 3.36509 36.9104C3.29968 36.8818 3.24126 36.8394 3.19384 36.786C3.10668 36.6938 3.05919 36.5711 3.06158 36.4443C3.06049 36.3721 3.07506 36.3006 3.10427 36.2346C3.13348 36.1687 3.17665 36.1098 3.23081 36.0621C3.32258 35.9729 3.44587 35.9235 3.57387 35.9247ZM3.78353 34.5681L6.39582 37.1728L6.18963 37.3789L3.57387 34.7754L0.974865 37.38L0.768677 37.1739L3.36769 34.5693L0.781961 31.9843L0.991614 31.7747L3.57387 34.3592L6.1596 31.7736L6.36926 31.9831L3.78353 34.5681ZM10.4162 35.5426V34.8331L9.4719 34.8464C9.44032 34.8464 9.42453 34.8283 9.42453 34.7921V34.6097C9.42368 34.6033 9.42432 34.5968 9.42639 34.5906C9.42847 34.5845 9.43193 34.5789 9.43651 34.5743C9.4411 34.5698 9.44667 34.5663 9.45281 34.5642C9.45894 34.5621 9.46547 34.5615 9.4719 34.5624L10.4162 34.5756V34.5041C10.4187 34.3419 10.4051 34.1798 10.3758 34.0203C10.4826 34.0271 10.5889 34.0406 10.694 34.0607C10.7437 34.0696 10.7685 34.0888 10.7685 34.1184C10.7668 34.1527 10.7549 34.1856 10.7344 34.2131C10.705 34.2883 10.6933 34.3693 10.7004 34.4498V34.5751H11.807V34.5346C11.8115 34.3646 11.7979 34.1945 11.7665 34.0272C11.8366 34.0318 11.945 34.0432 12.0917 34.0613C12.1414 34.0701 12.1662 34.0915 12.1662 34.1254C12.161 34.1588 12.1495 34.191 12.1321 34.22C12.1055 34.2843 12.0938 34.3538 12.0981 34.4232V34.5756H12.176L13.1169 34.5624C13.1233 34.5615 13.1298 34.5621 13.136 34.5642C13.1421 34.5663 13.1477 34.5698 13.1522 34.5743C13.1568 34.5789 13.1603 34.5845 13.1624 34.5906C13.1644 34.5968 13.1651 34.6033 13.1642 34.6097V34.7921C13.1642 34.8283 13.1484 34.8464 13.1169 34.8464L12.1766 34.8331H12.0986V35.5431H12.4301L13.408 35.5299C13.4144 35.529 13.4209 35.5296 13.427 35.5317C13.4332 35.5338 13.4388 35.5373 13.4433 35.5418C13.4479 35.5464 13.4514 35.552 13.4535 35.5581C13.4555 35.5643 13.4562 35.5708 13.4553 35.5772V35.7504C13.4553 35.7866 13.4395 35.8047 13.408 35.8047L12.4301 35.7914H10.2037L9.22586 35.8047C9.19197 35.8047 9.17503 35.7866 9.17503 35.7504V35.5772C9.17503 35.5456 9.19197 35.5299 9.22586 35.5299L10.2037 35.5431L10.4162 35.5426ZM10.7004 34.8325V35.5426H11.807V34.8331L10.7004 34.8325ZM10.6426 32.0385H9.80399L9.22181 32.0518C9.21544 32.0526 9.20897 32.0519 9.20291 32.0497C9.19685 32.0476 9.19135 32.0441 9.18684 32.0396C9.18232 32.035 9.17892 32.0295 9.17687 32.0234C9.17482 32.0173 9.17419 32.0108 9.17503 32.0045V31.8186C9.17503 31.7847 9.19082 31.7678 9.22239 31.7678L9.80457 31.7811H10.3325L10.9008 31.7678C10.9072 31.7669 10.9137 31.7676 10.9199 31.7696C10.926 31.7717 10.9316 31.7752 10.9362 31.7798C10.9407 31.7843 10.9442 31.7899 10.9463 31.796C10.9484 31.8022 10.949 31.8087 10.9481 31.8151L10.9348 32.2111V32.4276L10.9481 32.8317C10.949 32.8381 10.9484 32.8446 10.9463 32.8508C10.9442 32.8569 10.9407 32.8625 10.9362 32.8671C10.9316 32.8716 10.926 32.8751 10.9199 32.8772C10.9137 32.8792 10.9072 32.8799 10.9008 32.879L10.3325 32.8658H9.55737V33.17C9.54234 33.2874 9.56349 33.4066 9.61802 33.5117C9.79994 33.5666 9.99091 33.585 10.18 33.566C10.3841 33.5918 10.5915 33.565 10.7824 33.4881C10.8438 33.3689 10.8701 33.2348 10.858 33.1013C10.908 33.1541 10.9694 33.1946 11.0377 33.2196C11.0873 33.2354 11.1122 33.2614 11.1122 33.2976C11.1113 33.3225 11.109 33.3474 11.1052 33.372C11.0921 33.4995 11.0361 33.6188 10.9464 33.7103C10.6936 33.8135 10.419 33.8518 10.1476 33.8217C9.89518 33.8504 9.63954 33.8167 9.40316 33.7236C9.34914 33.6851 9.3087 33.6306 9.28765 33.5677C9.26312 33.4602 9.25283 33.35 9.25704 33.2398V32.9108L9.24029 32.647C9.24029 32.6154 9.25839 32.5996 9.29458 32.5996L9.80226 32.6129H10.6414L10.6426 32.0385ZM12.917 32.0385H12.0646L11.487 32.0518C11.4508 32.0518 11.4327 32.036 11.4327 32.0045V31.8186C11.4327 31.7847 11.4508 31.7678 11.487 31.7678L12.0646 31.7811H12.6063L13.1746 31.7678C13.181 31.7669 13.1876 31.7676 13.1937 31.7696C13.1998 31.7717 13.2054 31.7752 13.21 31.7798C13.2146 31.7843 13.218 31.7899 13.2201 31.796C13.2222 31.8022 13.2228 31.8087 13.222 31.8151L13.2087 32.2111V32.4276L13.222 32.8317C13.2228 32.8381 13.2222 32.8446 13.2201 32.8508C13.218 32.8569 13.2146 32.8625 13.21 32.8671C13.2054 32.8716 13.1998 32.8751 13.1937 32.8772C13.1876 32.8792 13.181 32.8799 13.1746 32.879L12.6063 32.8658H11.8006V33.1769C11.8006 33.3597 11.8243 33.4713 11.8716 33.5117C12.0742 33.5675 12.2851 33.5859 12.4943 33.566C12.6912 33.5888 12.8907 33.5644 13.0764 33.495C13.1408 33.3748 13.1679 33.2381 13.1544 33.1024C13.2102 33.1508 13.2729 33.1907 13.3404 33.2208C13.3989 33.2454 13.4282 33.2714 13.4282 33.2987C13.4152 33.4503 13.3562 33.5944 13.2589 33.7115C12.9873 33.8149 12.695 33.8531 12.4059 33.8229C12.1491 33.8514 11.8892 33.8177 11.6481 33.7247C11.5975 33.6846 11.56 33.6303 11.5401 33.5689C11.5156 33.4614 11.5053 33.3511 11.5095 33.241V32.9108L11.4962 32.647C11.4954 32.6406 11.496 32.634 11.4981 32.6279C11.5002 32.6218 11.5036 32.6162 11.5082 32.6116C11.5128 32.607 11.5184 32.6036 11.5245 32.6015C11.5306 32.5994 11.5372 32.5988 11.5436 32.5996L12.0634 32.6129H12.9164L12.917 32.0385ZM13.7528 37.0544C13.6972 37.1233 13.6589 37.2044 13.6413 37.2911C13.6398 37.3275 13.628 37.3628 13.6072 37.3927C13.5768 37.404 13.5449 37.4108 13.5125 37.4129C12.5356 37.4737 11.7122 37.5041 11.0423 37.5041C10.4546 37.544 9.86502 37.4634 9.3096 37.2675C9.01558 37.1212 8.78662 36.8708 8.66736 36.5649C8.43184 36.8126 8.18211 37.0464 7.91942 37.2652C7.86025 37.3041 7.8086 37.3534 7.76694 37.4106C7.74423 37.451 7.71824 37.4712 7.68897 37.4712C7.66857 37.4712 7.64373 37.4531 7.61447 37.417C7.54735 37.3331 7.48927 37.2423 7.4412 37.1462C7.5916 37.0725 7.73437 36.9841 7.86744 36.8824C8.10282 36.7017 8.32144 36.5002 8.52066 36.2803V34.4971H7.95869L7.48856 34.5104C7.48214 34.5113 7.47561 34.5106 7.46947 34.5085C7.46334 34.5065 7.45776 34.503 7.45318 34.4984C7.4486 34.4939 7.44514 34.4883 7.44306 34.4822C7.44098 34.476 7.44035 34.4695 7.4412 34.4631V34.2322C7.44035 34.2257 7.44098 34.2192 7.44306 34.2131C7.44514 34.2069 7.4486 34.2014 7.45318 34.1968C7.45776 34.1922 7.46334 34.1888 7.46947 34.1867C7.47561 34.1846 7.48214 34.184 7.48856 34.1848L7.95869 34.1981H8.29714L8.79095 34.1848C8.79738 34.184 8.80391 34.1846 8.81004 34.1867C8.81618 34.1888 8.82175 34.1922 8.82633 34.1968C8.83092 34.2014 8.83438 34.2069 8.83646 34.2131C8.83853 34.2192 8.83917 34.2257 8.83831 34.2322L8.82503 34.8851V36.2988C8.87293 36.4547 8.95311 36.5988 9.06038 36.7218C9.16765 36.8447 9.29959 36.9437 9.44764 37.0123C9.90284 37.1661 10.3837 37.2298 10.8632 37.1999C11.7658 37.1999 12.7291 37.1514 13.7533 37.0544H13.7528ZM10.5681 35.8999C10.6457 35.9351 10.7176 35.9818 10.7812 36.0384C10.7949 36.0469 10.8066 36.0582 10.8154 36.0717C10.8242 36.0852 10.8299 36.1004 10.832 36.1164V36.1297C10.8251 36.1543 10.7947 36.1745 10.7408 36.1903C10.7054 36.2045 10.6723 36.224 10.6426 36.248C10.5864 36.2865 10.5548 36.309 10.5479 36.3155C10.2511 36.5134 9.93469 36.68 9.60358 36.8126C9.577 36.8258 9.54857 36.8349 9.51925 36.8397C9.49885 36.8397 9.46958 36.8149 9.43147 36.7652C9.3948 36.7114 9.3446 36.6682 9.28592 36.64C9.64233 36.5221 9.98234 36.3596 10.2978 36.1562C10.4041 36.0882 10.4962 36.0004 10.5693 35.8976L10.5681 35.8999ZM8.01645 31.7834C8.30371 32.0761 8.56103 32.3967 8.7846 32.7405C8.79097 32.7481 8.79463 32.7577 8.795 32.7676C8.795 32.7811 8.77363 32.8048 8.73089 32.8386L8.63963 32.9062C8.61494 32.9308 8.5849 32.9493 8.55185 32.9604C8.53837 32.9604 8.52374 32.9502 8.50795 32.9298C8.30196 32.5769 8.05307 32.2507 7.76694 31.9589C7.75981 31.9514 7.75516 31.9419 7.75366 31.9317C7.75366 31.9136 7.77734 31.89 7.8247 31.8607L7.90614 31.8065C7.92807 31.7874 7.95333 31.7725 7.98064 31.7626C7.99482 31.764 8.00799 31.7706 8.01761 31.7811L8.01645 31.7834ZM13.3733 36.6475C13.3218 36.692 13.2793 36.7458 13.248 36.8062C13.2164 36.8693 13.1892 36.9009 13.1665 36.9009C13.1395 36.8971 13.1132 36.8891 13.0886 36.8772C12.6167 36.682 12.173 36.4249 11.7688 36.1129C11.7531 36.0994 11.7452 36.0881 11.7452 36.0789C11.7452 36.0696 11.7633 36.0471 11.7995 36.0113L11.8705 35.9472C11.8998 35.918 11.9211 35.9034 11.9346 35.9034C11.9515 35.9062 11.9669 35.9145 11.9785 35.927C12.4006 36.2424 12.8724 36.4851 13.3745 36.6452L13.3733 36.6475ZM18.6764 34.1479C18.7555 34.6714 18.9069 35.1814 19.1264 35.6632C19.3511 36.1604 19.6746 36.6068 20.077 36.9754C20.2246 37.1042 20.3818 37.2218 20.5471 37.3269C20.4727 37.3788 20.4075 37.4428 20.3542 37.5163C20.325 37.5613 20.3025 37.5838 20.2867 37.5838C20.2582 37.5757 20.2317 37.5619 20.2087 37.5434C19.693 37.1268 19.2651 36.6122 18.9496 36.0292C18.6342 35.4463 18.4375 34.8067 18.3709 34.1473H17.3879C17.3743 34.5957 17.3257 35.0423 17.2424 35.4831C17.0918 36.2473 16.7456 36.9593 16.2374 37.5497C16.2058 37.5902 16.1833 37.6104 16.1698 37.6104C16.1564 37.6104 16.1304 37.5902 16.0919 37.5497C16.0359 37.4898 15.9661 37.4444 15.8886 37.4175C16.4402 36.8467 16.8101 36.125 16.9513 35.344C17.022 34.9486 17.0616 34.5483 17.0697 34.1467C17.0785 33.9281 17.083 33.5048 17.083 32.8767L17.0697 31.9906C17.0688 31.9842 17.0694 31.9777 17.0715 31.9715C17.0736 31.9654 17.0771 31.9598 17.0816 31.9552C17.0862 31.9507 17.0918 31.9472 17.0979 31.9451C17.1041 31.9431 17.1106 31.9424 17.117 31.9433L17.9701 31.9566H19.1783L20.0279 31.9433C20.0618 31.9433 20.0787 31.9591 20.0787 31.9906L20.0655 32.6833V33.7767L20.0787 34.4971C20.0797 34.504 20.0791 34.511 20.0768 34.5176C20.0746 34.5243 20.0709 34.5302 20.066 34.5352C20.0611 34.5401 20.0551 34.5438 20.0484 34.546C20.0418 34.5482 20.0348 34.5489 20.0279 34.5479H19.8009C19.7694 34.5479 19.7536 34.531 19.7536 34.4971V34.1456L18.6764 34.1479ZM19.7524 33.8592V32.2411H17.4018V32.8975C17.4018 33.3462 17.3995 33.6653 17.3948 33.8546L19.7524 33.8592ZM15.4277 35.1292C15.2429 35.2081 15.0503 35.2838 14.8501 35.3561C14.7561 35.3849 14.6688 35.432 14.5931 35.4947C14.5818 35.5082 14.5679 35.5193 14.5522 35.5274C14.5365 35.5355 14.5194 35.5405 14.5018 35.542C14.4791 35.542 14.4589 35.5239 14.4412 35.4877C14.3938 35.384 14.352 35.2778 14.3159 35.1697C14.5206 35.13 14.722 35.0746 14.9183 35.004L15.4259 34.8146V33.2393H15.1146L14.4141 33.2525C14.4072 33.2535 14.4001 33.2528 14.3935 33.2506C14.3869 33.2484 14.3809 33.2447 14.376 33.2398C14.3711 33.2348 14.3674 33.2288 14.3651 33.2222C14.3629 33.2156 14.3623 33.2086 14.3632 33.2017V32.9818C14.3623 32.9749 14.3629 32.9679 14.3651 32.9613C14.3674 32.9547 14.3711 32.9487 14.376 32.9437C14.3809 32.9388 14.3869 32.9351 14.3935 32.9329C14.4001 32.9307 14.4072 32.93 14.4141 32.931L15.1146 32.9477H15.4259V32.3127C15.4339 32.0468 15.4169 31.7806 15.3751 31.5178C15.4978 31.5223 15.62 31.5358 15.7407 31.5582C15.7881 31.5652 15.8117 31.5809 15.8117 31.6056C15.8058 31.6516 15.7921 31.6963 15.7713 31.7378C15.744 31.9258 15.7349 32.116 15.7442 32.3058V32.9448H15.8597L16.5603 32.9281C16.5672 32.9271 16.5742 32.9278 16.5808 32.93C16.5874 32.9322 16.5934 32.9359 16.5983 32.9409C16.6032 32.9458 16.607 32.9518 16.6092 32.9584C16.6114 32.965 16.612 32.972 16.6111 32.9789V33.1988C16.612 33.2057 16.6114 33.2128 16.6092 33.2194C16.607 33.226 16.6032 33.232 16.5983 33.2369C16.5934 33.2418 16.5874 33.2455 16.5808 33.2477C16.5742 33.2499 16.5672 33.2506 16.5603 33.2496L15.8597 33.2364H15.7442V34.6674C16.1096 34.5096 16.4164 34.3619 16.6648 34.2241C16.6602 34.2803 16.6579 34.3299 16.6579 34.373V34.4406C16.6601 34.4551 16.6612 34.4697 16.6613 34.4844C16.6613 34.5318 16.6253 34.5747 16.5533 34.6132C16.3685 34.7055 16.099 34.8306 15.7448 34.9884V36.0471L15.7517 36.9806C15.7637 37.0721 15.7551 37.1653 15.7264 37.2531C15.6977 37.3409 15.6497 37.4212 15.5859 37.488C15.4053 37.58 15.2021 37.6187 15.0003 37.5994H14.8582C14.8219 37.6042 14.785 37.5972 14.7531 37.5792C14.7372 37.5507 14.7257 37.5199 14.719 37.488C14.6905 37.404 14.6507 37.3244 14.6006 37.2513C14.7805 37.2707 14.9614 37.2798 15.1424 37.2784C15.2197 37.2875 15.2976 37.2657 15.3589 37.2178C15.4127 37.141 15.4367 37.0472 15.4265 36.954L15.4277 35.1292ZM26.1587 32.2746H22.3693L21.4452 32.2879C21.4388 32.2888 21.4323 32.2881 21.4262 32.286C21.42 32.284 21.4144 32.2805 21.4099 32.2759C21.4053 32.2714 21.4018 32.2658 21.3997 32.2596C21.3977 32.2535 21.397 32.247 21.3979 32.2406V31.997C21.397 31.9905 21.3977 31.984 21.3997 31.9779C21.4018 31.9717 21.4053 31.9662 21.4099 31.9616C21.4144 31.957 21.42 31.9536 21.4262 31.9515C21.4323 31.9494 21.4388 31.9488 21.4452 31.9496L22.3693 31.9629H26.3793L27.2999 31.9496C27.3338 31.9496 27.3508 31.9654 27.3508 31.997V32.2354C27.3508 32.2669 27.3338 32.2827 27.2999 32.2827L26.4977 32.2694V35.6349L26.511 36.9049C26.5218 36.9951 26.5111 37.0865 26.4799 37.1717C26.4487 37.257 26.3978 37.3337 26.3314 37.3956C26.0977 37.4989 25.8411 37.5397 25.5869 37.514C25.4714 37.514 25.3366 37.5116 25.1826 37.507C25.1478 37.5117 25.1124 37.5059 25.081 37.4903C25.0623 37.4616 25.0498 37.4294 25.044 37.3956C25.0208 37.3064 24.9806 37.2225 24.9256 37.1485C25.1512 37.1689 25.4265 37.1791 25.7515 37.1791C25.8637 37.1898 25.9768 37.1711 26.0796 37.1249C26.1099 37.0975 26.1331 37.0632 26.1473 37.0249C26.1615 36.9866 26.1662 36.9454 26.161 36.9049L26.1587 32.2746ZM22.6495 35.6805V36.2422C22.6503 36.2486 22.6497 36.2552 22.6476 36.2613C22.6455 36.2674 22.6421 36.273 22.6375 36.2776C22.6329 36.2822 22.6273 36.2856 22.6212 36.2877C22.615 36.2898 22.6085 36.2904 22.6021 36.2896H22.3653C22.3589 36.2904 22.3523 36.2898 22.3462 36.2877C22.3401 36.2856 22.3345 36.2822 22.3299 36.2776C22.3253 36.273 22.3219 36.2674 22.3198 36.2613C22.3177 36.2552 22.3171 36.2486 22.3179 36.2422L22.3312 34.9601V34.298L22.3179 33.439C22.3171 33.4326 22.3177 33.426 22.3198 33.4199C22.3219 33.4138 22.3253 33.4082 22.3299 33.4036C22.3345 33.399 22.3401 33.3956 22.3462 33.3935C22.3523 33.3914 22.3589 33.3908 22.3653 33.3917L23.1063 33.4049H23.9686L24.7096 33.3917C24.716 33.3908 24.7226 33.3914 24.7287 33.3935C24.7348 33.3956 24.7404 33.399 24.745 33.4036C24.7496 33.4082 24.753 33.4138 24.7551 33.4199C24.7572 33.426 24.7578 33.4326 24.757 33.439L24.7437 34.1461V34.8158L24.757 36.0367C24.7578 36.0431 24.7572 36.0497 24.7551 36.0558C24.753 36.0619 24.7496 36.0675 24.745 36.0721C24.7404 36.0767 24.7348 36.0801 24.7287 36.0822C24.7226 36.0843 24.716 36.0849 24.7096 36.0841H24.4728C24.4366 36.0841 24.4185 36.0683 24.4185 36.0367V35.6748L22.6495 35.6805ZM22.6495 35.3827H24.4191V33.7091H22.6506L22.6495 35.3827ZM31.9966 32.823C32.456 32.6663 32.9005 32.4693 33.325 32.2342C33.4622 32.1624 33.5868 32.0688 33.6941 31.9571C33.7794 32.0208 33.8608 32.0897 33.9378 32.1632C33.961 32.1829 33.9756 32.2109 33.9782 32.2411C33.9782 32.275 33.9501 32.2952 33.8939 32.3018C33.7888 32.3369 33.687 32.3811 33.5896 32.434C33.0732 32.6942 32.5407 32.9213 31.9955 33.114V33.6381C31.9883 33.7149 32.0023 33.7922 32.0359 33.8615C32.0735 33.9053 32.1248 33.9351 32.1815 33.9458C32.4194 33.9865 32.661 34.0024 32.9023 33.9932C33.2133 34.0303 33.5285 33.9799 33.8125 33.8477C33.9422 33.6482 34.003 33.4118 33.9858 33.1746C34.0486 33.2276 34.1167 33.2741 34.1891 33.3131C34.2476 33.3447 34.2768 33.3763 34.2768 33.4078C34.2757 33.4272 34.2734 33.4465 34.2699 33.4655C34.2602 33.6091 34.2295 33.7505 34.1787 33.8852C34.1405 33.9615 34.0875 34.0294 34.0227 34.085C33.6704 34.2502 33.2792 34.3145 32.8924 34.2708C32.5728 34.2864 32.2525 34.262 31.9389 34.1981C31.8574 34.1762 31.7872 34.1242 31.7425 34.0526C31.7007 33.9592 31.682 33.857 31.6882 33.7548V32.2683C31.6943 32.0297 31.6808 31.7911 31.6478 31.5548C31.7425 31.5594 31.858 31.5707 31.9943 31.5888C32.0506 31.5977 32.0787 31.6169 32.0787 31.6466C32.0712 31.6889 32.0576 31.7299 32.0382 31.7684C32.0033 31.9328 31.9909 32.1011 32.0013 32.2689L31.9966 32.823ZM32.0099 35.7995C32.5023 35.643 32.9768 35.4352 33.4255 35.1795C33.5609 35.1096 33.6824 35.0157 33.7842 34.9024C33.8702 34.9604 33.9517 35.0248 34.0279 35.0952C34.0545 35.1187 34.0713 35.1512 34.0753 35.1864C34.0753 35.2203 34.0472 35.2405 33.991 35.247C33.8827 35.2797 33.7784 35.3241 33.6797 35.3792C33.1464 35.6675 32.5879 35.9063 32.0111 36.0927V36.7958C32.0026 36.8665 32.0167 36.9381 32.0513 37.0003C32.086 37.0625 32.1394 37.1122 32.204 37.1422C32.4603 37.2066 32.7252 37.2305 32.9889 37.2132C33.1634 37.2134 33.3375 37.1964 33.5087 37.1624C33.6213 37.1497 33.7299 37.1129 33.8269 37.0544C33.9047 36.9851 33.9582 36.8926 33.9794 36.7906C34.0066 36.649 34.0224 36.5053 34.0268 36.3611C34.0938 36.4132 34.1651 36.4595 34.2399 36.4997C34.2984 36.5289 34.3277 36.5561 34.3277 36.5811C34.3259 36.605 34.3224 36.6287 34.3173 36.6521C34.3034 36.7992 34.2658 36.9431 34.2058 37.0781C34.1632 37.1561 34.1071 37.2259 34.04 37.2842C33.7169 37.4612 33.3473 37.5355 32.9808 37.4972C32.6356 37.5195 32.2891 37.484 31.9556 37.3922C31.8654 37.3415 31.7926 37.2648 31.7467 37.1721C31.7009 37.0794 31.6841 36.975 31.6986 36.8726V35.314C31.7051 35.0775 31.6916 34.841 31.6582 34.6068C31.7441 34.6114 31.8613 34.6228 32.0099 34.6409C32.0619 34.6497 32.0879 34.669 32.0879 34.6986C32.0796 34.7423 32.0648 34.7845 32.044 34.8239C32.011 34.9873 31.9996 35.1544 32.0099 35.3209V35.7995ZM28.8426 33.0632C29.0497 32.7071 29.2328 32.3376 29.3907 31.9571C29.4543 31.8054 29.4987 31.6464 29.523 31.4838C29.6296 31.5065 29.7339 31.5394 29.8343 31.5819C29.8951 31.6088 29.9255 31.6369 29.9255 31.6662C29.9255 31.6954 29.9018 31.7293 29.8545 31.7678C29.8059 31.8181 29.7668 31.8768 29.739 31.941C29.569 32.3128 29.3793 32.6752 29.1707 33.0268C29.7709 32.9614 30.2807 32.8948 30.7 32.8271C30.5871 32.6527 30.4604 32.4876 30.3212 32.3335C30.31 32.3247 30.3044 32.3168 30.3044 32.3098C30.3044 32.2964 30.3258 32.275 30.3685 32.2458L30.4499 32.195C30.4664 32.1844 30.4849 32.1775 30.5042 32.1748C30.5187 32.1766 30.5319 32.1838 30.5412 32.195C30.8497 32.5205 31.1116 32.8871 31.3198 33.2843C31.3257 33.2947 31.3293 33.3063 31.3301 33.3183C31.3301 33.3341 31.3099 33.3555 31.2695 33.3824L31.1713 33.443C31.1489 33.4617 31.122 33.4744 31.0933 33.48C31.0776 33.48 31.0629 33.4653 31.0495 33.4361C31.036 33.4068 30.9705 33.2818 30.8531 33.0609C30.2959 33.1648 29.5921 33.2708 28.7415 33.3789C28.6342 33.3855 28.5294 33.4142 28.4337 33.4632C28.4142 33.4784 28.3908 33.4879 28.3661 33.4904C28.3434 33.4904 28.3232 33.4655 28.3055 33.4159C28.2685 33.3103 28.2403 33.2017 28.2212 33.0915C28.4289 33.0954 28.6367 33.0859 28.8432 33.0632H28.8426ZM30.6532 36.065H29.0736V36.6873L29.0869 37.5532C29.0869 37.5871 29.0711 37.604 29.0396 37.604H28.816C28.7845 37.604 28.7687 37.5871 28.7687 37.5532L28.782 36.704V34.7355L28.7687 33.8696C28.7678 33.8632 28.7685 33.8567 28.7705 33.8506C28.7726 33.8444 28.7761 33.8388 28.7807 33.8343C28.7852 33.8297 28.7908 33.8262 28.7969 33.8242C28.8031 33.8221 28.8096 33.8214 28.816 33.8223L29.5091 33.8356H30.223L30.9235 33.8223C30.9505 33.8223 30.964 33.8381 30.964 33.8696L30.9507 34.7696V36.0973L30.9576 37.0036C30.9686 37.079 30.9618 37.1559 30.9377 37.2282C30.9136 37.3004 30.873 37.3661 30.819 37.4199C30.6015 37.5164 30.3627 37.5548 30.1259 37.5313C30.09 37.5355 30.0537 37.5297 30.0208 37.5145C30.0026 37.4852 29.9889 37.4533 29.9804 37.4199C29.9592 37.3435 29.9248 37.2714 29.8787 37.2068C30.0459 37.2203 30.1914 37.2271 30.3154 37.2271C30.4119 37.2373 30.509 37.2134 30.5897 37.1595C30.6392 37.0961 30.6622 37.0161 30.6538 36.9361L30.6532 36.065ZM30.6532 35.8012V35.064H29.0736V35.7977L30.6532 35.8012ZM30.6532 34.8031V34.1052H29.0736V34.8019L30.6532 34.8031Z" fill="black"/>
</svg>
